  0
SECTION
  2
HEADER
  9
$ACADVER
  1
AC1024
  9
$ACADMAINTVER
 70
6
  9
$DWGCODEPAGE
  3
ANSI_1252
  9
$LASTSAVEDBY
  1
ezdxf
  9
$INSBASE
 10
0.0
 20
0.0
 30
0.0
  9
$EXTMIN
 10
1e+20
 20
1e+20
 30
1e+20
  9
$EXTMAX
 10
-1e+20
 20
-1e+20
 30
-1e+20
  9
$LIMMIN
 10
0.0
 20
0.0
  9
$LIMMAX
 10
420.0
 20
297.0
  9
$ORTHOMODE
 70
0
  9
$REGENMODE
 70
1
  9
$FILLMODE
 70
1
  9
$QTEXTMODE
 70
0
  9
$MIRRTEXT
 70
1
  9
$LTSCALE
 40
1.0
  9
$ATTMODE
 70
1
  9
$TEXTSIZE
 40
2.5
  9
$TRACEWID
 40
1.0
  9
$TEXTSTYLE
  7
Standard
  9
$CLAYER
  8
0
  9
$CELTYPE
  6
ByLayer
  9
$CECOLOR
 62
256
  9
$CELTSCALE
 40
1.0
  9
$DISPSILH
 70
0
  9
$DIMSCALE
 40
1.0
  9
$DIMASZ
 40
2.5
  9
$DIMEXO
 40
0.625
  9
$DIMDLI
 40
3.75
  9
$DIMRND
 40
0.0
  9
$DIMDLE
 40
0.0
  9
$DIMEXE
 40
1.25
  9
$DIMTP
 40
0.0
  9
$DIMTM
 40
0.0
  9
$DIMTXT
 40
2.5
  9
$DIMCEN
 40
2.5
  9
$DIMTSZ
 40
0.0
  9
$DIMTOL
 70
0
  9
$DIMLIM
 70
0
  9
$DIMTIH
 70
0
  9
$DIMTOH
 70
0
  9
$DIMSE1
 70
0
  9
$DIMSE2
 70
0
  9
$DIMTAD
 70
1
  9
$DIMZIN
 70
8
  9
$DIMBLK
  1

  9
$DIMASO
 70
1
  9
$DIMSHO
 70
1
  9
$DIMPOST
  1

  9
$DIMAPOST
  1

  9
$DIMALT
 70
0
  9
$DIMALTD
 70
3
  9
$DIMALTF
 40
0.03937007874
  9
$DIMLFAC
 40
1.0
  9
$DIMTOFL
 70
1
  9
$DIMTVP
 40
0.0
  9
$DIMTIX
 70
0
  9
$DIMSOXD
 70
0
  9
$DIMSAH
 70
0
  9
$DIMBLK1
  1

  9
$DIMBLK2
  1

  9
$DIMSTYLE
  2
ISO-25
  9
$DIMCLRD
 70
0
  9
$DIMCLRE
 70
0
  9
$DIMCLRT
 70
0
  9
$DIMTFAC
 40
1.0
  9
$DIMGAP
 40
0.625
  9
$DIMJUST
 70
0
  9
$DIMSD1
 70
0
  9
$DIMSD2
 70
0
  9
$DIMTOLJ
 70
0
  9
$DIMTZIN
 70
8
  9
$DIMALTZ
 70
0
  9
$DIMALTTZ
 70
0
  9
$DIMUPT
 70
0
  9
$DIMDEC
 70
2
  9
$DIMTDEC
 70
2
  9
$DIMALTU
 70
2
  9
$DIMALTTD
 70
3
  9
$DIMTXSTY
  7
Standard
  9
$DIMAUNIT
 70
0
  9
$DIMADEC
 70
0
  9
$DIMALTRND
 40
0.0
  9
$DIMAZIN
 70
0
  9
$DIMDSEP
 70
44
  9
$DIMATFIT
 70
3
  9
$DIMFRAC
 70
0
  9
$DIMLDRBLK
  1

  9
$DIMLUNIT
 70
2
  9
$DIMLWD
 70
-2
  9
$DIMLWE
 70
-2
  9
$DIMTMOVE
 70
0
  9
$DIMFXL
 40
1.0
  9
$DIMFXLON
 70
0
  9
$DIMJOGANG
 40
0.785398163397
  9
$DIMTFILL
 70
0
  9
$DIMTFILLCLR
 70
0
  9
$DIMARCSYM
 70
0
  9
$DIMLTYPE
  6

  9
$DIMLTEX1
  6

  9
$DIMLTEX2
  6

  9
$DIMTXTDIRECTION
 70
0
  9
$LUNITS
 70
2
  9
$LUPREC
 70
4
  9
$SKETCHINC
 40
1.0
  9
$FILLETRAD
 40
10.0
  9
$AUNITS
 70
0
  9
$AUPREC
 70
2
  9
$MENU
  1
.
  9
$ELEVATION
 40
0.0
  9
$PELEVATION
 40
0.0
  9
$THICKNESS
 40
0.0
  9
$LIMCHECK
 70
0
  9
$CHAMFERA
 40
0.0
  9
$CHAMFERB
 40
0.0
  9
$CHAMFERC
 40
0.0
  9
$CHAMFERD
 40
0.0
  9
$SKPOLY
 70
0
  9
$TDCREATE
 40
2461117.9349537035
  9
$TDUCREATE
 40
2458532.153996898
  9
$TDUPDATE
 40
2461117.9349652776
  9
$TDUUPDATE
 40
2458532.1544311
  9
$TDINDWG
 40
0.0
  9
$TDUSRTIMER
 40
0.0
  9
$USRTIMER
 70
1
  9
$ANGBASE
 50
0.0
  9
$ANGDIR
 70
0
  9
$PDMODE
 70
0
  9
$PDSIZE
 40
0.0
  9
$PLINEWID
 40
0.0
  9
$SPLFRAME
 70
0
  9
$SPLINETYPE
 70
6
  9
$SPLINESEGS
 70
8
  9
$HANDSEED
  5
58
  9
$SURFTAB1
 70
6
  9
$SURFTAB2
 70
6
  9
$SURFTYPE
 70
6
  9
$SURFU
 70
6
  9
$SURFV
 70
6
  9
$UCSBASE
  2

  9
$UCSNAME
  2

  9
$UCSORG
 10
0.0
 20
0.0
 30
0.0
  9
$UCSXDIR
 10
1.0
 20
0.0
 30
0.0
  9
$UCSYDIR
 10
0.0
 20
1.0
 30
0.0
  9
$UCSORTHOREF
  2

  9
$UCSORTHOVIEW
 70
0
  9
$UCSORGTOP
 10
0.0
 20
0.0
 30
0.0
  9
$UCSORGBOTTOM
 10
0.0
 20
0.0
 30
0.0
  9
$UCSORGLEFT
 10
0.0
 20
0.0
 30
0.0
  9
$UCSORGRIGHT
 10
0.0
 20
0.0
 30
0.0
  9
$UCSORGFRONT
 10
0.0
 20
0.0
 30
0.0
  9
$UCSORGBACK
 10
0.0
 20
0.0
 30
0.0
  9
$PUCSBASE
  2

  9
$PUCSNAME
  2

  9
$PUCSORG
 10
0.0
 20
0.0
 30
0.0
  9
$PUCSXDIR
 10
1.0
 20
0.0
 30
0.0
  9
$PUCSYDIR
 10
0.0
 20
1.0
 30
0.0
  9
$PUCSORTHOREF
  2

  9
$PUCSORTHOVIEW
 70
0
  9
$PUCSORGTOP
 10
0.0
 20
0.0
 30
0.0
  9
$PUCSORGBOTTOM
 10
0.0
 20
0.0
 30
0.0
  9
$PUCSORGLEFT
 10
0.0
 20
0.0
 30
0.0
  9
$PUCSORGRIGHT
 10
0.0
 20
0.0
 30
0.0
  9
$PUCSORGFRONT
 10
0.0
 20
0.0
 30
0.0
  9
$PUCSORGBACK
 10
0.0
 20
0.0
 30
0.0
  9
$USERI1
 70
0
  9
$USERI2
 70
0
  9
$USERI3
 70
0
  9
$USERI4
 70
0
  9
$USERI5
 70
0
  9
$USERR1
 40
0.0
  9
$USERR2
 40
0.0
  9
$USERR3
 40
0.0
  9
$USERR4
 40
0.0
  9
$USERR5
 40
0.0
  9
$WORLDVIEW
 70
1
  9
$SHADEDGE
 70
3
  9
$SHADEDIF
 70
70
  9
$TILEMODE
 70
1
  9
$MAXACTVP
 70
64
  9
$PINSBASE
 10
0.0
 20
0.0
 30
0.0
  9
$PLIMCHECK
 70
0
  9
$PEXTMIN
 10
1e+20
 20
1e+20
 30
1e+20
  9
$PEXTMAX
 10
-1e+20
 20
-1e+20
 30
-1e+20
  9
$PLIMMIN
 10
0.0
 20
0.0
  9
$PLIMMAX
 10
420.0
 20
297.0
  9
$UNITMODE
 70
0
  9
$VISRETAIN
 70
1
  9
$PLINEGEN
 70
0
  9
$PSLTSCALE
 70
1
  9
$TREEDEPTH
 70
3020
  9
$CMLSTYLE
  2
Standard
  9
$CMLJUST
 70
0
  9
$CMLSCALE
 40
20.0
  9
$PROXYGRAPHICS
 70
1
  9
$MEASUREMENT
 70
1
  9
$CELWEIGHT
370
-1
  9
$ENDCAPS
280
0
  9
$JOINSTYLE
280
0
  9
$LWDISPLAY
290
0
  9
$INSUNITS
 70
4
  9
$HYPERLINKBASE
  1

  9
$STYLESHEET
  1

  9
$XEDIT
290
1
  9
$CEPSNTYPE
380
0
  9
$PSTYLEMODE
290
1
  9
$FINGERPRINTGUID
  2
{7E63C811-0917-45DA-9204-B962F425061E}
  9
$VERSIONGUID
  2
{7944738E-65E4-4335-8D3C-C4584A5CC7D2}
  9
$EXTNAMES
290
1
  9
$PSVPSCALE
 40
0.0
  9
$OLESTARTUP
290
0
  9
$SORTENTS
280
127
  9
$INDEXCTL
280
0
  9
$HIDETEXT
280
1
  9
$XCLIPFRAME
280
1
  9
$HALOGAP
280
0
  9
$OBSCOLOR
 70
257
  9
$OBSLTYPE
280
0
  9
$INTERSECTIONDISPLAY
280
0
  9
$INTERSECTIONCOLOR
 70
257
  9
$DIMASSOC
280
2
  9
$PROJECTNAME
  1

  9
$CAMERADISPLAY
290
0
  9
$LENSLENGTH
 40
50.0
  9
$CAMERAHEIGHT
 40
0.0
  9
$STEPSPERSEC
 40
24.0
  9
$STEPSIZE
 40
100.0
  9
$3DDWFPREC
 40
2.0
  9
$PSOLWIDTH
 40
0.005
  9
$PSOLHEIGHT
 40
0.08
  9
$LOFTANG1
 40
1.570796326795
  9
$LOFTANG2
 40
1.570796326795
  9
$LOFTMAG1
 40
0.0
  9
$LOFTMAG2
 40
0.0
  9
$LOFTPARAM
 70
7
  9
$LOFTNORMALS
280
1
  9
$LATITUDE
 40
37.795
  9
$LONGITUDE
 40
-122.394
  9
$NORTHDIRECTION
 40
0.0
  9
$TIMEZONE
 70
-8000
  9
$LIGHTGLYPHDISPLAY
280
1
  9
$TILEMODELIGHTSYNCH
280
1
  9
$CMATERIAL
347
20
  9
$SOLIDHIST
280
0
  9
$SHOWHIST
280
1
  9
$DWFFRAME
280
2
  9
$DGNFRAME
280
2
  9
$REALWORLDSCALE
290
1
  9
$INTERFERECOLOR
 62
256
  9
$CSHADOW
280
0
  9
$SHADOWPLANELOCATION
 40
0.0
  0
ENDSEC
  0
SECTION
  2
CLASSES
  0
CLASS
  1
ACDBDICTIONARYWDFLT
  2
AcDbDictionaryWithDefault
  3
ObjectDBX Classes
 90
0
 91
0
280
0
281
0
  0
CLASS
  1
SUN
  2
AcDbSun
  3
SCENEOE
 90
1153
 91
0
280
0
281
0
  0
CLASS
  1
VISUALSTYLE
  2
AcDbVisualStyle
  3
ObjectDBX Classes
 90
4095
 91
0
280
0
281
0
  0
CLASS
  1
MATERIAL
  2
AcDbMaterial
  3
ObjectDBX Classes
 90
1153
 91
0
280
0
281
0
  0
CLASS
  1
SCALE
  2
AcDbScale
  3
ObjectDBX Classes
 90
1153
 91
0
280
0
281
0
  0
CLASS
  1
TABLESTYLE
  2
AcDbTableStyle
  3
ObjectDBX Classes
 90
4095
 91
0
280
0
281
0
  0
CLASS
  1
MLEADERSTYLE
  2
AcDbMLeaderStyle
  3
ACDB_MLEADERSTYLE_CLASS
 90
4095
 91
0
280
0
281
0
  0
CLASS
  1
DICTIONARYVAR
  2
AcDbDictionaryVar
  3
ObjectDBX Classes
 90
0
 91
0
280
0
281
0
  0
CLASS
  1
CELLSTYLEMAP
  2
AcDbCellStyleMap
  3
ObjectDBX Classes
 90
1152
 91
0
280
0
281
0
  0
CLASS
  1
MENTALRAYRENDERSETTINGS
  2
AcDbMentalRayRenderSettings
  3
SCENEOE
 90
1024
 91
0
280
0
281
0
  0
CLASS
  1
ACDBDETAILVIEWSTYLE
  2
AcDbDetailViewStyle
  3
ObjectDBX Classes
 90
1025
 91
0
280
0
281
0
  0
CLASS
  1
ACDBSECTIONVIEWSTYLE
  2
AcDbSectionViewStyle
  3
ObjectDBX Classes
 90
1025
 91
0
280
0
281
0
  0
CLASS
  1
RASTERVARIABLES
  2
AcDbRasterVariables
  3
ISM
 90
0
 91
0
280
0
281
0
  0
CLASS
  1
ACDBPLACEHOLDER
  2
AcDbPlaceHolder
  3
ObjectDBX Classes
 90
0
 91
0
280
0
281
0
  0
CLASS
  1
LAYOUT
  2
AcDbLayout
  3
ObjectDBX Classes
 90
0
 91
0
280
0
281
0
  0
ENDSEC
  0
SECTION
  2
TABLES
  0
TABLE
  2
VPORT
  5
8
330
0
100
AcDbSymbolTable
 70
1
  0
VPORT
  5
23
330
8
100
AcDbSymbolTableRecord
100
AcDbViewportTableRecord
  2
*Active
 70
0
 10
0.0
 20
0.0
 11
1.0
 21
1.0
 12
0.0
 22
0.0
 13
0.0
 23
0.0
 14
0.5
 24
0.5
 15
0.5
 25
0.5
 16
0.0
 26
0.0
 36
1.0
 17
0.0
 27
0.0
 37
0.0
 40
1000.0
 41
1.34
 42
50.0
 43
0.0
 44
0.0
 50
0.0
 51
0.0
 71
0
 72
1000
 73
1
 74
3
 75
0
 76
0
 77
0
 78
0
281
0
 65
0
146
0.0
  0
ENDTAB
  0
TABLE
  2
LTYPE
  5
2
330
0
100
AcDbSymbolTable
 70
3
  0
LTYPE
  5
24
330
2
100
AcDbSymbolTableRecord
100
AcDbLinetypeTableRecord
  2
ByBlock
 70
0
  3

 72
65
 73
0
 40
0.0
  0
LTYPE
  5
25
330
2
100
AcDbSymbolTableRecord
100
AcDbLinetypeTableRecord
  2
ByLayer
 70
0
  3

 72
65
 73
0
 40
0.0
  0
LTYPE
  5
26
330
2
100
AcDbSymbolTableRecord
100
AcDbLinetypeTableRecord
  2
Continuous
 70
0
  3

 72
65
 73
0
 40
0.0
  0
ENDTAB
  0
TABLE
  2
LAYER
  5
1
330
0
100
AcDbSymbolTable
 70
2
  0
LAYER
  5
27
330
1
100
AcDbSymbolTableRecord
100
AcDbLayerTableRecord
  2
0
 70
0
 62
7
  6
Continuous
370
-3
390
13
347
21
  0
LAYER
  5
28
330
1
100
AcDbSymbolTableRecord
100
AcDbLayerTableRecord
  2
Defpoints
 70
0
 62
7
  6
Continuous
290
0
370
-3
390
13
347
21
  0
ENDTAB
  0
TABLE
  2
STYLE
  5
5
330
0
100
AcDbSymbolTable
 70
1
  0
STYLE
  5
29
330
5
100
AcDbSymbolTableRecord
100
AcDbTextStyleTableRecord
  2
Standard
 70
0
 40
0.0
 41
1.0
 50
0.0
 71
0
 42
2.5
  3
txt
  4

  0
ENDTAB
  0
TABLE
  2
VIEW
  5
7
330
0
100
AcDbSymbolTable
 70
0
  0
ENDTAB
  0
TABLE
  2
UCS
  5
6
330
0
100
AcDbSymbolTable
 70
0
  0
ENDTAB
  0
TABLE
  2
APPID
  5
3
330
0
100
AcDbSymbolTable
 70
3
  0
APPID
  5
2A
330
3
100
AcDbSymbolTableRecord
100
AcDbRegAppTableRecord
  2
ACAD
 70
0
  0
APPID
  5
55
330
3
100
AcDbSymbolTableRecord
100
AcDbRegAppTableRecord
  2
HATCHBACKGROUNDCOLOR
 70
0
  0
APPID
  5
56
330
3
100
AcDbSymbolTableRecord
100
AcDbRegAppTableRecord
  2
EZDXF
 70
0
  0
ENDTAB
  0
TABLE
  2
DIMSTYLE
  5
4
330
0
100
AcDbSymbolTable
 70
1
100
AcDbDimStyleTable
  0
DIMSTYLE
105
2B
330
4
100
AcDbSymbolTableRecord
100
AcDbDimStyleTableRecord
  2
Standard
 70
0
 40
1.0
 41
2.5
 42
0.625
 43
3.75
 44
1.25
 45
0.0
 46
0.0
 47
0.0
 48
0.0
 49
2.5
140
2.5
141
2.5
142
0.0
143
0.03937007874
144
1.0
145
0.0
146
1.0
147
0.625
148
0.0
 69
0
 70
0
 71
0
 72
0
 73
0
 74
0
 75
0
 76
0
 77
1
 78
8
 79
3
170
0
171
3
172
1
173
0
174
0
175
0
176
0
177
0
178
0
179
2
271
2
272
2
273
2
274
3
275
0
276
0
277
2
278
44
279
0
280
0
281
0
282
0
283
0
284
8
285
0
286
0
288
0
289
3
290
0
371
-2
372
-2
  0
ENDTAB
  0
TABLE
  2
BLOCK_RECORD
  5
9
330
0
100
AcDbSymbolTable
 70
2
  0
BLOCK_RECORD
  5
17
330
9
100
AcDbSymbolTableRecord
100
AcDbBlockTableRecord
  2
*Model_Space
340
1A
 70
0
280
1
281
0
  0
BLOCK_RECORD
  5
1B
330
9
100
AcDbSymbolTableRecord
100
AcDbBlockTableRecord
  2
*Paper_Space
340
1E
 70
0
280
1
281
0
  0
ENDTAB
  0
ENDSEC
  0
SECTION
  2
BLOCKS
  0
BLOCK
  5
18
330
17
100
AcDbEntity
  8
0
100
AcDbBlockBegin
  2
*Model_Space
 70
0
 10
0.0
 20
0.0
 30
0.0
  3
*Model_Space
  1

  0
ENDBLK
  5
19
330
17
100
AcDbEntity
  8
0
100
AcDbBlockEnd
  0
BLOCK
  5
1C
330
1B
100
AcDbEntity
  8
0
100
AcDbBlockBegin
  2
*Paper_Space
 70
0
 10
0.0
 20
0.0
 30
0.0
  3
*Paper_Space
  1

  0
ENDBLK
  5
1D
330
1B
100
AcDbEntity
  8
0
100
AcDbBlockEnd
  0
ENDSEC
  0
SECTION
  2
ENTITIES
  0
LWPOLYLINE
  5
2F
330
17
100
AcDbEntity
  8
SECTION
 62
1
100
AcDbPolyline
 90
209
 70
0
 10
-90.17362657585652
 20
695.7478657980968
 10
-86.83858293951364
 20
667.9179511661729
 10
-83.5035393031708
 20
640.0880365342491
 10
-80.16849566682792
 20
612.2581219023252
 10
-76.83345203048505
 20
584.4282072704012
 10
-73.49840839414219
 20
556.5982926384775
 10
-70.16336475779931
 20
528.7683780065536
 10
-66.82832112145644
 20
500.93846337462963
 10
-63.49327748511357
 20
473.10854874270586
 10
-60.158233848770706
 20
445.2786341107819
 10
-56.82319021242783
 20
417.44871947885804
 10
-53.48814657608498
 20
389.6188048469342
 10
-50.153102939742105
 20
361.7888902150103
 10
-46.81805930339923
 20
333.95897558308644
 10
-43.48301566705637
 20
306.1290609511626
 10
-40.147972030713504
 20
278.29914631923873
 10
-36.81292839437064
 20
250.46923168731482
 10
-33.47788475802776
 20
222.63931705539096
 10
-30.142841121684903
 20
194.8094024234671
 10
-26.807797485342032
 20
166.97948779154322
 10
-23.47275384899917
 20
139.14957315961937
 10
-20.137710212656298
 20
111.31965852769548
 10
-16.802666576313428
 20
83.48974389577161
 10
-13.467622939970562
 20
55.65982926384774
 10
-10.132579303627695
 20
27.82991463192387
 10
-6.797535667284826
 20
-2.775002450050579e-14
 10
-6.796187102895258
 20
-3.2447364935480416
 10
-6.792152266198232
 20
-6.48819053351227
 10
-6.785432750286927
 20
-9.729080173314697
 10
-6.776031209616834
 20
-12.966124480188455
 10
-6.763951358956347
 20
-16.19804404158237
 10
-6.749197971918164
 20
-19.423561470964493
 10
-6.731776879072081
 20
-22.641401912824726
 10
-6.711694965639938
 20
-25.85029354667667
 10
-6.688960168773606
 20
-29.048968089859926
 10
-6.663581474417119
 20
-32.236161298943195
 10
-6.635568913754152
 20
-35.41061346953133
 10
-6.604933559242303
 20
-38.57106993427714
 10
-6.571687520235695
 20
-41.71628155890205
 10
-6.535843938197658
 20
-44.84500523602978
 10
-6.497416981505381
 20
-47.95600437663676
 10
-6.456421839848577
 20
-51.048049398925755
 10
-6.412874718224378
 20
-54.119918214429454
 10
-6.36679283053086
 20
-57.170396711151405
 10
-6.318194392761673
 20
-60.19827923355365
 10
-6.267098615804538
 20
-63.20236905920095
 10
-6.213525697846395
 20
-66.18147887187396
 10
-6.157496816388244
 20
-69.1344312309631
 10
-6.099034119872836
 20
-72.06005903695835
 10
-6.038160718928471
 20
-74.95720599285127
 10
-5.974900677232459
 20
-77.82472706126575
 10
-5.909279001997755
 20
-80.66148891713755
 10
-5.841321634086602
 20
-83.46637039576386
 10
-5.771055437755069
 20
-86.23826293604472
 10
-5.698508190032504
 20
-88.97607101874219
 10
-5.623708569740168
 20
-91.67871259958365
 10
-5.546686146153326
 20
-94.34511953703732
 10
-5.46747136731132
 20
-96.9742380145921
 10
-5.386095547980229
 20
-99.56502895737374
 10
-5.30259085727287
 20
-102.1164684429332
 10
-5.216990305931051
 20
-104.62754810604463
 10
-5.129327733275085
 20
-107.097275537353
 10
-5.039637793825742
 20
-109.52467467571361
 10
-4.94795594360391
 20
-111.90878619406844
 10
-4.854318426113398
 20
-114.24866787870727
 10
-4.758750211746676
 20
-116.54299356743854
 10
-4.661289075682166
 20
-118.79085638381989
 10
-4.561985582950186
 20
-120.99176909568298
 10
-4.460878980673449
 20
-123.14486159781143
 10
-4.358009228816825
 20
-125.24928269025257
 10
-4.253416984389547
 20
-127.30420041483123
 10
-4.147143585371857
 20
-129.30880238405643
 10
-4.0392310343724205
 20
-131.26229610229103
 10
-3.9297219820230076
 20
-133.16390927905744
 10
-3.8186597101169606
 20
-135.01289013435502
 10
-3.706088114498161
 20
-136.8085076958695
 10
-3.592051687707215
 20
-138.55005208795558
 10
-3.476595501391761
 20
-140.2368348122796
 10
-3.3597651884878235
 20
-141.86818902001104
 10
-3.24160692517926
 20
-143.44346977545436
 10
-3.122167412642453
 20
-144.96205431101853
 10
-3.0014938585834448
 20
-146.4233422734222
 10
-2.879633958574821
 20
-147.82675596103758
 10
-2.756635877199719
 20
-149.1717405522793
 10
-2.632548229010423
 20
-150.45776432494768
 10
-2.5074200593090588
 20
-151.6843188664404
 10
-2.381300824758009
 20
-152.8509192747482
 10
-2.25424037382769
 20
-153.95710435015644
 10
-2.1262889270894307
 20
-155.00243677757595
 10
-1.9974970573612563
 20
-155.98650329943143
 10
-1.8679156697144008
 20
-156.90891487903883
 10
-1.737595981348476
 20
-157.76930685440735
 10
-1.6065895013432399
 20
-158.56733908240503
 10
-1.4749480102949724
 20
-159.30269607323117
 10
-1.3427235398455122
 20
-159.975087115142
 10
-1.2099683521120406
 20
-160.58424638938115
 10
-1.0767349190257565
 20
-161.12993307526824
 10
-0.9430759015875948
 20
-161.61193144540513
 10
-0.8090441290492038
 20
-162.03005095096188
 10
-0.6746925780274059
 20
-162.38412629700807
 10
-0.5400743515603945
 20
-162.67401750786078
 10
-0.40524265811395754
 20
-162.8996099824228
 10
-0.2702507905460158
 20
-163.0608145394886
 10
-0.13515210503780142
 20
-163.15756745300177
 10
0.0
 20
-163.1898304772483
 10
0.13515210503780142
 20
-163.15756745300177
 10
0.2702507905460158
 20
-163.0608145394886
 10
0.40524265811395754
 20
-162.8996099824228
 10
0.5400743515603945
 20
-162.67401750786078
 10
0.6746925780274059
 20
-162.38412629700807
 10
0.8090441290492038
 20
-162.03005095096188
 10
0.9430759015875948
 20
-161.61193144540513
 10
1.0767349190257565
 20
-161.12993307526824
 10
1.2099683521120406
 20
-160.58424638938115
 10
1.3427235398455122
 20
-159.975087115142
 10
1.4749480102949724
 20
-159.30269607323117
 10
1.6065895013432399
 20
-158.56733908240503
 10
1.737595981348476
 20
-157.76930685440735
 10
1.8679156697144008
 20
-156.90891487903883
 10
1.9974970573612563
 20
-155.98650329943143
 10
2.1262889270894307
 20
-155.00243677757595
 10
2.25424037382769
 20
-153.95710435015644
 10
2.381300824758009
 20
-152.8509192747482
 10
2.5074200593090588
 20
-151.6843188664404
 10
2.632548229010423
 20
-150.45776432494768
 10
2.756635877199719
 20
-149.1717405522793
 10
2.879633958574821
 20
-147.82675596103758
 10
3.0014938585834448
 20
-146.4233422734222
 10
3.122167412642453
 20
-144.96205431101853
 10
3.24160692517926
 20
-143.44346977545436
 10
3.3597651884878235
 20
-141.86818902001104
 10
3.476595501391761
 20
-140.2368348122796
 10
3.592051687707215
 20
-138.55005208795558
 10
3.706088114498161
 20
-136.8085076958695
 10
3.8186597101169606
 20
-135.01289013435502
 10
3.9297219820230076
 20
-133.16390927905744
 10
4.0392310343724205
 20
-131.26229610229103
 10
4.147143585371857
 20
-129.30880238405643
 10
4.253416984389547
 20
-127.30420041483123
 10
4.358009228816825
 20
-125.24928269025257
 10
4.460878980673449
 20
-123.14486159781143
 10
4.561985582950186
 20
-120.99176909568298
 10
4.661289075682166
 20
-118.79085638381989
 10
4.758750211746676
 20
-116.54299356743854
 10
4.854318426113398
 20
-114.24866787870727
 10
4.94795594360391
 20
-111.90878619406844
 10
5.039637793825742
 20
-109.52467467571361
 10
5.129327733275085
 20
-107.097275537353
 10
5.216990305931051
 20
-104.62754810604463
 10
5.30259085727287
 20
-102.1164684429332
 10
5.386095547980229
 20
-99.56502895737374
 10
5.46747136731132
 20
-96.9742380145921
 10
5.546686146153326
 20
-94.34511953703732
 10
5.623708569740168
 20
-91.67871259958365
 10
5.698508190032504
 20
-88.97607101874219
 10
5.771055437755069
 20
-86.23826293604472
 10
5.841321634086602
 20
-83.46637039576386
 10
5.909279001997755
 20
-80.66148891713755
 10
5.974900677232459
 20
-77.82472706126575
 10
6.038160718928471
 20
-74.95720599285127
 10
6.099034119872836
 20
-72.06005903695835
 10
6.157496816388244
 20
-69.1344312309631
 10
6.213525697846395
 20
-66.18147887187396
 10
6.267098615804538
 20
-63.20236905920095
 10
6.318194392761673
 20
-60.19827923355365
 10
6.36679283053086
 20
-57.170396711151405
 10
6.412874718224378
 20
-54.119918214429454
 10
6.456421839848577
 20
-51.048049398925755
 10
6.497416981505381
 20
-47.95600437663676
 10
6.535843938197658
 20
-44.84500523602978
 10
6.571687520235695
 20
-41.71628155890205
 10
6.604933559242303
 20
-38.57106993427714
 10
6.635568913754152
 20
-35.41061346953133
 10
6.663581474417119
 20
-32.236161298943195
 10
6.688960168773606
 20
-29.048968089859926
 10
6.711694965639938
 20
-25.85029354667667
 10
6.731776879072081
 20
-22.641401912824726
 10
6.749197971918164
 20
-19.423561470964493
 10
6.763951358956347
 20
-16.19804404158237
 10
6.776031209616834
 20
-12.966124480188455
 10
6.785432750286927
 20
-9.729080173314697
 10
6.792152266198232
 20
-6.48819053351227
 10
6.796187102895258
 20
-3.2447364935480416
 10
6.797535667284826
 20
-2.775002450050579e-14
 10
10.132579303627695
 20
27.82991463192387
 10
13.467622939970562
 20
55.65982926384774
 10
16.802666576313428
 20
83.48974389577161
 10
20.137710212656298
 20
111.31965852769548
 10
23.47275384899917
 20
139.14957315961937
 10
26.807797485342032
 20
166.97948779154322
 10
30.142841121684903
 20
194.8094024234671
 10
33.47788475802776
 20
222.63931705539096
 10
36.81292839437064
 20
250.46923168731482
 10
40.147972030713504
 20
278.29914631923873
 10
43.48301566705637
 20
306.1290609511626
 10
46.81805930339923
 20
333.95897558308644
 10
50.153102939742105
 20
361.7888902150103
 10
53.48814657608498
 20
389.6188048469342
 10
56.82319021242783
 20
417.44871947885804
 10
60.158233848770706
 20
445.2786341107819
 10
63.49327748511357
 20
473.10854874270586
 10
66.82832112145644
 20
500.93846337462963
 10
70.16336475779931
 20
528.7683780065536
 10
73.49840839414219
 20
556.5982926384775
 10
76.83345203048505
 20
584.4282072704012
 10
80.16849566682792
 20
612.2581219023252
 10
83.5035393031708
 20
640.0880365342491
 10
86.83858293951364
 20
667.9179511661729
 10
90.17362657585652
 20
695.7478657980968
  0
LWPOLYLINE
  5
30
330
17
100
AcDbEntity
  8
SECTION
 62
1
100
AcDbPolyline
 90
209
 70
0
 10
-122.10674591583792
 20
718.4325452038058
 10
-118.63778326235314
 20
689.6952433956536
 10
-115.16882060886834
 20
660.9579415875014
 10
-111.69985795538356
 20
632.2206397793492
 10
-108.23089530189878
 20
603.4833379711969
 10
-104.76193264841399
 20
574.7460361630447
 10
-101.29296999492921
 20
546.0087343548923
 10
-97.82400734144441
 20
517.2714325467402
 10
-94.35504468795963
 20
488.534130738588
 10
-90.88608203447485
 20
459.7968289304357
 10
-87.41711938099006
 20
431.0595271222835
 10
-83.94815672750528
 20
402.3222253141313
 10
-80.47919407402048
 20
373.5849235059791
 10
-77.0102314205357
 20
344.8476216978268
 10
-73.54126876705092
 20
316.1103198896746
 10
-70.07230611356613
 20
287.37301808152233
 10
-66.60334346008133
 20
258.6357162733701
 10
-63.134380806596546
 20
229.89841446521785
 10
-59.66541815311176
 20
201.16111265706564
 10
-56.19645549962697
 20
172.4238108489134
 10
-52.727492846142184
 20
143.68650904076117
 10
-49.258530192657396
 20
114.94920723260893
 10
-45.789567539172616
 20
86.2119054244567
 10
-42.32060488568782
 20
57.474603616304464
 10
-38.851642232203034
 20
28.737301808152232
 10
-35.38267957871825
 20
-2.772840652437167e-14
 10
-35.37556079718689
 20
-3.7737850094743073
 10
-35.354470265814015
 20
-7.546079834818633
 10
-35.31941627054267
 20
-11.315394881033058
 10
-35.27041261763814
 20
-15.080241731145042
 10
-35.20747862822976
 20
-18.83913373464053
 10
-35.13063913067253
 20
-22.590586595197436
 10
-35.03992445073142
 20
-26.333118957487823
 10
-34.93537039959239
 20
-30.065252992817605
 10
-34.81701825970475
 20
-33.785514983372146
 10
-34.68491476846062
 20
-37.49243590483625
 10
-34.53911209971763
 20
-41.18455200715933
 10
-34.37966784317256
 20
-44.8604053932348
 10
-34.2066449815938
 20
-48.51854459526557
 10
-34.02011186592167
 20
-52.15752514858846
 10
-33.82014218824659
 20
-55.7759101627292
 10
-33.60681495267557
 20
-59.37227088946336
 10
-33.38021444409867
 20
-62.945187287658534
 10
-33.140430194867854
 20
-66.4932485846739
 10
-32.887556949401144
 20
-70.01505383409585
 10
-32.62169462672638
 20
-73.50921246958849
 10
-32.34294828097912
 20
-76.97434485464122
 10
-32.05142805987056
 20
-80.4090828279946
 10
-31.747249161141646
 20
-83.81207024452966
 10
-31.430531787020772
 20
-87.18196351140747
 10
-31.101401096702926
 20
-90.51743211924531
 10
-30.759987156869244
 20
-93.81715916812094
 10
-30.406424890266393
 20
-97.0798418881966
 10
-30.040854022366116
 20
-100.30419215475645
 10
-29.66341902612611
 20
-103.48893699745432
 10
-29.27426906487403
 20
-106.63281910357082
 10
-28.873557933337192
 20
-109.73459731507937
 10
-28.46144399684129
 20
-112.7930471193266
 10
-28.038090128702162
 20
-115.80696113313147
 10
-27.603663645835397
 20
-118.77514958011291
 10
-27.15833624260919
 20
-121.69644076105642
 10
-26.702283922966597
 20
-124.56968151713426
 10
-26.23568693084406
 20
-127.39373768579576
 10
-25.758729678913685
 20
-130.16749454914745
 10
-25.271600675677476
 20
-132.88985727464674
 10
-24.774185558253393
 20
-135.55768688629186
 10
-24.266680801638287
 20
-138.1699296127032
 10
-23.74959364103335
 20
-140.72761730372167
 10
-23.223128207262935
 20
-143.22973891536
 10
-22.687492338762212
 20
-145.67530537115027
 10
-22.142897499410235
 20
-148.06334995316595
 10
-21.589558694929718
 20
-150.39292868420443
 10
-21.02769438788655
 20
-152.6631207009796
 10
-20.45752641132276
 20
-154.87302861817622
 10
-19.879279881056885
 20
-157.02177888322277
 10
-19.293183106686588
 20
-159.10852212164198
 10
-18.699467501328655
 20
-161.13243347284308
 10
-18.098367490132024
 20
-163.0927129162224
 10
-17.490120417600025
 20
-164.98858558744402
 10
-16.874966453758507
 20
-166.8193020847749
 10
-16.253148499206908
 20
-168.5841387653539
 10
-15.62491208908981
 20
-170.2823980312767
 10
-14.990505296026974
 20
-171.91340860538492
 10
-14.350178632040198
 20
-173.47652579664876
 10
-13.704184949515762
 20
-174.97113175503972
 10
-13.052779341241669
 20
-176.39663571579155
 10
-12.396219039559135
 20
-177.75247423295363
 10
-11.73476331466824
 20
-179.0381114021436
 10
-11.068673372127922
 20
-180.2530390724127
 10
-10.39821224959086
 20
-181.39677704713756
 10
-9.72364471281404
 20
-182.468873273862
 10
-9.045237150986145
 20
-183.46890402301145
 10
-8.363257471413123
 20
-184.39647405541038
 10
-7.677974993603599
 20
-185.25121677853622
 10
-6.989660342795971
 20
-186.03279439144853
 10
-6.298585342969299
 20
-186.74089801833503
 10
-5.605022909380302
 20
-187.37524783062295
 10
-4.9092469406689005
 20
-187.9355931576065
 10
-4.211532210575007
 20
-188.42171258554703
 10
-3.5121542593093587
 20
-188.8334140452071
 10
-2.811389284621306
 20
-189.170534887783
 10
-2.109514032606685
 20
-189.4329419492064
 10
-1.4068056882988749
 20
-189.6205316027898
 10
-0.7035417660863479
 20
-189.73322980019395
 10
0.0
 20
-189.77099210070224
 10
0.7035417660863479
 20
-189.73322980019395
 10
1.4068056882988749
 20
-189.6205316027898
 10
2.109514032606685
 20
-189.4329419492064
 10
2.811389284621306
 20
-189.170534887783
 10
3.5121542593093587
 20
-188.8334140452071
 10
4.211532210575007
 20
-188.42171258554703
 10
4.9092469406689005
 20
-187.9355931576065
 10
5.605022909380302
 20
-187.37524783062295
 10
6.298585342969299
 20
-186.74089801833503
 10
6.989660342795971
 20
-186.03279439144853
 10
7.677974993603599
 20
-185.25121677853622
 10
8.363257471413123
 20
-184.39647405541038
 10
9.045237150986145
 20
-183.46890402301145
 10
9.72364471281404
 20
-182.468873273862
 10
10.39821224959086
 20
-181.39677704713756
 10
11.068673372127922
 20
-180.2530390724127
 10
11.73476331466824
 20
-179.0381114021436
 10
12.396219039559135
 20
-177.75247423295363
 10
13.052779341241669
 20
-176.39663571579155
 10
13.704184949515762
 20
-174.97113175503972
 10
14.350178632040198
 20
-173.47652579664876
 10
14.990505296026974
 20
-171.91340860538492
 10
15.62491208908981
 20
-170.2823980312767
 10
16.253148499206908
 20
-168.5841387653539
 10
16.874966453758507
 20
-166.8193020847749
 10
17.490120417600025
 20
-164.98858558744402
 10
18.098367490132024
 20
-163.0927129162224
 10
18.699467501328655
 20
-161.13243347284308
 10
19.293183106686588
 20
-159.10852212164198
 10
19.879279881056885
 20
-157.02177888322277
 10
20.45752641132276
 20
-154.87302861817622
 10
21.02769438788655
 20
-152.6631207009796
 10
21.589558694929718
 20
-150.39292868420443
 10
22.142897499410235
 20
-148.06334995316595
 10
22.687492338762212
 20
-145.67530537115027
 10
23.223128207262935
 20
-143.22973891536
 10
23.74959364103335
 20
-140.72761730372167
 10
24.266680801638287
 20
-138.1699296127032
 10
24.774185558253393
 20
-135.55768688629186
 10
25.271600675677476
 20
-132.88985727464674
 10
25.758729678913685
 20
-130.16749454914745
 10
26.23568693084406
 20
-127.39373768579576
 10
26.702283922966597
 20
-124.56968151713426
 10
27.15833624260919
 20
-121.69644076105642
 10
27.603663645835397
 20
-118.77514958011291
 10
28.038090128702162
 20
-115.80696113313147
 10
28.46144399684129
 20
-112.7930471193266
 10
28.873557933337192
 20
-109.73459731507937
 10
29.27426906487403
 20
-106.63281910357082
 10
29.66341902612611
 20
-103.48893699745432
 10
30.040854022366116
 20
-100.30419215475645
 10
30.406424890266393
 20
-97.0798418881966
 10
30.759987156869244
 20
-93.81715916812094
 10
31.101401096702926
 20
-90.51743211924531
 10
31.430531787020772
 20
-87.18196351140747
 10
31.747249161141646
 20
-83.81207024452966
 10
32.05142805987056
 20
-80.4090828279946
 10
32.34294828097912
 20
-76.97434485464122
 10
32.62169462672638
 20
-73.50921246958849
 10
32.887556949401144
 20
-70.01505383409585
 10
33.140430194867854
 20
-66.4932485846739
 10
33.38021444409867
 20
-62.945187287658534
 10
33.60681495267557
 20
-59.37227088946336
 10
33.82014218824659
 20
-55.7759101627292
 10
34.02011186592167
 20
-52.15752514858846
 10
34.2066449815938
 20
-48.51854459526557
 10
34.37966784317256
 20
-44.8604053932348
 10
34.53911209971763
 20
-41.18455200715933
 10
34.68491476846062
 20
-37.49243590483625
 10
34.81701825970475
 20
-33.785514983372146
 10
34.93537039959239
 20
-30.065252992817605
 10
35.03992445073142
 20
-26.333118957487823
 10
35.13063913067253
 20
-22.590586595197436
 10
35.20747862822976
 20
-18.83913373464053
 10
35.27041261763814
 20
-15.080241731145042
 10
35.31941627054267
 20
-11.315394881033058
 10
35.354470265814015
 20
-7.546079834818633
 10
35.37556079718689
 20
-3.7737850094743073
 10
35.38267957871825
 20
-2.772840652437167e-14
 10
38.851642232203034
 20
28.737301808152232
 10
42.32060488568782
 20
57.474603616304464
 10
45.789567539172616
 20
86.2119054244567
 10
49.258530192657396
 20
114.94920723260893
 10
52.727492846142184
 20
143.68650904076117
 10
56.19645549962697
 20
172.4238108489134
 10
59.66541815311176
 20
201.16111265706564
 10
63.134380806596546
 20
229.89841446521785
 10
66.60334346008133
 20
258.6357162733701
 10
70.07230611356613
 20
287.37301808152233
 10
73.54126876705092
 20
316.1103198896746
 10
77.0102314205357
 20
344.8476216978268
 10
80.47919407402048
 20
373.5849235059791
 10
83.94815672750528
 20
402.3222253141313
 10
87.41711938099006
 20
431.0595271222835
 10
90.88608203447485
 20
459.7968289304357
 10
94.35504468795963
 20
488.534130738588
 10
97.82400734144441
 20
517.2714325467402
 10
101.29296999492921
 20
546.0087343548923
 10
104.76193264841399
 20
574.7460361630447
 10
108.23089530189878
 20
603.4833379711969
 10
111.69985795538356
 20
632.2206397793492
 10
115.16882060886834
 20
660.9579415875014
 10
118.63778326235314
 20
689.6952433956536
 10
122.10674591583792
 20
718.4325452038058
  0
LWPOLYLINE
  5
31
330
17
100
AcDbEntity
  8
SECTION
 62
1
100
AcDbPolyline
 90
209
 70
0
 10
-257.44871814388716
 20
765.6962502679585
 10
-253.7280483847684
 20
735.0684002572402
 10
-250.0073786256497
 20
704.4405502465219
 10
-246.286708866531
 20
673.8127002358035
 10
-242.56603910741228
 20
643.1848502250851
 10
-238.8453693482936
 20
612.5570002143669
 10
-235.12469958917487
 20
581.9291502036484
 10
-231.40402983005615
 20
551.3013001929301
 10
-227.68336007093743
 20
520.6734501822118
 10
-223.96269031181873
 20
490.04560017149345
 10
-220.2420205527
 20
459.4177501607751
 10
-216.52135079358132
 20
428.7899001500568
 10
-212.8006810344626
 20
398.1620501393384
 10
-209.08001127534388
 20
367.5342001286201
 10
-205.35934151622516
 20
336.90635011790175
 10
-201.63867175710647
 20
306.27850010718345
 10
-197.91800199798774
 20
275.65065009646503
 10
-194.19733223886902
 20
245.02280008574672
 10
-190.4766624797503
 20
214.3949500750284
 10
-186.75599272063158
 20
183.76710006431006
 10
-183.03532296151286
 20
153.13925005359172
 10
-179.31465320239417
 20
122.51140004287336
 10
-175.59398344327545
 20
91.88355003215503
 10
-171.87331368415673
 20
61.25570002143668
 10
-168.15264392503803
 20
30.62785001071834
 10
-164.4319741659193
 20
-5.529911750110078e-14
 10
-164.39720991925958
 20
-5.373284070066864
 10
-164.29770016426977
 20
-10.744452411116676
 10
-164.13348329825882
 20
-16.11139013056565
 10
-163.90462329987466
 20
-21.471984008365997
 10
-163.6112097038108
 20
-26.82412333244708
 10
-163.25335756540989
 20
-32.16570073316541
 10
-162.8312074151775
 20
-37.494613016433334
 10
-162.34492520322468
 20
-42.808761995196264
 10
-161.7947022336614
 20
-48.10605531893151
 10
-161.18075508896604
 20
-53.384407300838404
 10
-160.50332554436173
 20
-58.64173974239542
 10
-159.7626804722327
 20
-63.87598275495581
 10
-158.95911173661904
 20
-69.08507557805788
 10
-158.0929360778307
 20
-74.26696739412782
 10
-157.16449498722764
 20
-79.41961813925028
 10
-156.17415457221418
 20
-84.54099930968836
 10
-155.12230541150197
 20
-89.62909476383317
 10
-154.00936240069845
 20
-94.6819015192663
 10
-152.83576458828207
 20
-99.69743054461969
 10
-151.60197500202818
 20
-104.67370754592002
 10
-150.30848046595577
 20
-109.60877374710753
 10
-148.95579140786617
 20
-114.50068666441905
 10
-147.5444416575503
 20
-119.34752087433026
 10
-146.07498823574406
 20
-124.14736877475403
 10
-144.54801113391557
 20
-128.89834133919237
 10
-142.96411308497107
 20
-133.59856886354487
 10
-141.32391932497018
 20
-138.24620170527908
 10
-139.62807734594486
 20
-142.8394110146681
 10
-137.8772566399196
 20
-147.37638945780944
 10
-136.07214843423404
 20
-151.85535193113736
 10
-134.2134654182729
 20
-156.27453626714606
 10
-132.30194146171107
 20
-160.63220393104618
 10
-130.33833132438514
 20
-164.92664070807766
 10
-128.32341035790643
 20
-169.15615738120852
 10
-126.25797419913299
 20
-173.3190903989503
 10
-124.14283845562234
 20
-177.41380253302765
 10
-121.97883838318849
 20
-181.4386835256407
 10
-119.76682855569189
 20
-185.39215072606504
 10
-117.50768252719156
 20
-189.27264971633795
 10
-115.1967272716944
 20
-193.07009836639227
 10
-112.83487326023585
 20
-196.78300055595645
 10
-110.42861410093376
 20
-200.41844676603148
 10
-107.97889574215814
 20
-203.97500153971063
 10
-105.48668131345882
 20
-207.45126060906424
 10
-102.9529507448015
 20
-210.84585145030312
 10
-100.3787003791617
 20
-214.15743382639306
 10
-97.76494257863021
 20
-217.38470031690454
 10
-95.11270532418517
 20
-220.52637683488913
 10
-92.42303180928982
 20
-223.5812231305773
 10
-89.69698002747583
 20
-226.54803328169976
 10
-86.93562235407555
 20
-229.425636170237
 10
-84.14004512226882
 20
-232.21289594540968
 10
-81.31134819361142
 20
-234.9087124727265
 10
-78.45064452321533
 20
-237.5120217689118
 10
-75.55905971975248
 20
-240.0217964225413
 10
-72.63773160045619
 20
-242.43704600021914
 10
-69.68780974129592
 20
-244.75681743813664
 10
-66.71045502250342
 20
-246.98019541885668
 10
-63.70683916962977
 20
-249.10630273317585
 10
-60.67814429031486
 20
-251.13430062692078
 10
-57.62556240695243
 20
-253.06338913254163
 10
-54.55029498543542
 20
-254.89280738537124
 10
-51.4535524601678
 20
-256.62183392442637
 10
-48.33655375553098
 20
-258.2497869776299
 10
-45.200525803993614
 20
-259.77602473134306
 10
-42.04670306105558
 20
-261.19994558410036
 10
-38.876327017217776
 20
-262.52098838444726
 10
-35.69064570717068
 20
-263.73863265278527
 10
-32.49091321639579
 20
-264.8523987871396
 10
-29.278389185374774
 20
-265.8618482527643
 10
-26.054338311602784
 20
-266.76658375551335
 10
-22.820029849602257
 20
-267.5662493989073
 10
-19.576737109135248
 20
-268.26053082483276
 10
-16.325736951812658
 20
-268.8491553378214
 10
-13.068309286299039
 20
-269.33189201285774
 10
-9.805736562313044
 20
-269.70855178667244
 10
-6.539303263623078
 20
-269.9789875324875
 10
-3.270295400238937
 20
-270.1430941181807
 10
0.0
 20
-270.2008084478489
 10
3.270295400238937
 20
-270.1430941181807
 10
6.539303263623078
 20
-269.9789875324875
 10
9.805736562313044
 20
-269.70855178667244
 10
13.068309286299039
 20
-269.33189201285774
 10
16.325736951812658
 20
-268.8491553378214
 10
19.576737109135248
 20
-268.26053082483276
 10
22.820029849602257
 20
-267.5662493989073
 10
26.054338311602784
 20
-266.76658375551335
 10
29.278389185374774
 20
-265.8618482527643
 10
32.49091321639579
 20
-264.8523987871396
 10
35.69064570717068
 20
-263.73863265278527
 10
38.876327017217776
 20
-262.52098838444726
 10
42.04670306105558
 20
-261.19994558410036
 10
45.200525803993614
 20
-259.77602473134306
 10
48.33655375553098
 20
-258.2497869776299
 10
51.4535524601678
 20
-256.62183392442637
 10
54.55029498543542
 20
-254.89280738537124
 10
57.62556240695243
 20
-253.06338913254163
 10
60.67814429031486
 20
-251.13430062692078
 10
63.70683916962977
 20
-249.10630273317585
 10
66.71045502250342
 20
-246.98019541885668
 10
69.68780974129592
 20
-244.75681743813664
 10
72.63773160045619
 20
-242.43704600021914
 10
75.55905971975248
 20
-240.0217964225413
 10
78.45064452321533
 20
-237.5120217689118
 10
81.31134819361142
 20
-234.9087124727265
 10
84.14004512226882
 20
-232.21289594540968
 10
86.93562235407555
 20
-229.425636170237
 10
89.69698002747583
 20
-226.54803328169976
 10
92.42303180928982
 20
-223.5812231305773
 10
95.11270532418517
 20
-220.52637683488913
 10
97.76494257863021
 20
-217.38470031690454
 10
100.3787003791617
 20
-214.15743382639306
 10
102.9529507448015
 20
-210.84585145030312
 10
105.48668131345882
 20
-207.45126060906424
 10
107.97889574215814
 20
-203.97500153971063
 10
110.42861410093376
 20
-200.41844676603148
 10
112.83487326023585
 20
-196.78300055595645
 10
115.1967272716944
 20
-193.07009836639227
 10
117.50768252719156
 20
-189.27264971633795
 10
119.76682855569189
 20
-185.39215072606504
 10
121.97883838318849
 20
-181.4386835256407
 10
124.14283845562234
 20
-177.41380253302765
 10
126.25797419913299
 20
-173.3190903989503
 10
128.32341035790643
 20
-169.15615738120852
 10
130.33833132438514
 20
-164.92664070807766
 10
132.30194146171107
 20
-160.63220393104618
 10
134.2134654182729
 20
-156.27453626714606
 10
136.07214843423404
 20
-151.85535193113736
 10
137.8772566399196
 20
-147.37638945780944
 10
139.62807734594486
 20
-142.8394110146681
 10
141.32391932497018
 20
-138.24620170527908
 10
142.96411308497107
 20
-133.59856886354487
 10
144.54801113391557
 20
-128.89834133919237
 10
146.07498823574406
 20
-124.14736877475403
 10
147.5444416575503
 20
-119.34752087433026
 10
148.95579140786617
 20
-114.50068666441905
 10
150.30848046595577
 20
-109.60877374710753
 10
151.60197500202818
 20
-104.67370754592002
 10
152.83576458828207
 20
-99.69743054461969
 10
154.00936240069845
 20
-94.6819015192663
 10
155.12230541150197
 20
-89.62909476383317
 10
156.17415457221418
 20
-84.54099930968836
 10
157.16449498722764
 20
-79.41961813925028
 10
158.0929360778307
 20
-74.26696739412782
 10
158.95911173661904
 20
-69.08507557805788
 10
159.7626804722327
 20
-63.87598275495581
 10
160.50332554436173
 20
-58.64173974239542
 10
161.18075508896604
 20
-53.384407300838404
 10
161.7947022336614
 20
-48.10605531893151
 10
162.34492520322468
 20
-42.808761995196264
 10
162.8312074151775
 20
-37.494613016433334
 10
163.25335756540989
 20
-32.16570073316541
 10
163.6112097038108
 20
-26.82412333244708
 10
163.90462329987466
 20
-21.471984008365997
 10
164.13348329825882
 20
-16.11139013056565
 10
164.29770016426977
 20
-10.744452411116676
 10
164.39720991925958
 20
-5.373284070066864
 10
164.4319741659193
 20
-5.529911750110078e-14
 10
168.15264392503803
 20
30.62785001071834
 10
171.87331368415673
 20
61.25570002143668
 10
175.59398344327545
 20
91.88355003215503
 10
179.31465320239417
 20
122.51140004287336
 10
183.03532296151286
 20
153.13925005359172
 10
186.75599272063158
 20
183.76710006431006
 10
190.4766624797503
 20
214.3949500750284
 10
194.19733223886902
 20
245.02280008574672
 10
197.91800199798774
 20
275.65065009646503
 10
201.63867175710647
 20
306.27850010718345
 10
205.35934151622516
 20
336.90635011790175
 10
209.08001127534388
 20
367.5342001286201
 10
212.8006810344626
 20
398.1620501393384
 10
216.52135079358132
 20
428.7899001500568
 10
220.2420205527
 20
459.4177501607751
 10
223.96269031181873
 20
490.04560017149345
 10
227.68336007093743
 20
520.6734501822118
 10
231.40402983005615
 20
551.3013001929301
 10
235.12469958917487
 20
581.9291502036484
 10
238.8453693482936
 20
612.5570002143669
 10
242.56603910741228
 20
643.1848502250851
 10
246.286708866531
 20
673.8127002358035
 10
250.0073786256497
 20
704.4405502465219
 10
253.7280483847684
 20
735.0684002572402
 10
257.44871814388716
 20
765.6962502679585
  0
LWPOLYLINE
  5
32
330
17
100
AcDbEntity
  8
SECTION
 62
1
100
AcDbPolyline
 90
209
 70
0
 10
-511.44068727383996
 20
777.2489807636375
 10
-507.76221922936503
 20
746.159021533092
 10
-504.0837511848901
 20
715.0690623025465
 10
-500.4052831404151
 20
683.979103072001
 10
-496.72681509594025
 20
652.8891438414555
 10
-493.04834705146527
 20
621.79918461091
 10
-489.36987900699035
 20
590.7092253803645
 10
-485.6914109625154
 20
559.6192661498189
 10
-482.01294291804055
 20
528.5293069192735
 10
-478.33447487356557
 20
497.439347688728
 10
-474.65600682909064
 20
466.3493884581825
 10
-470.9775387846157
 20
435.259429227637
 10
-467.2990707401408
 20
404.1694699970915
 10
-463.62060269566587
 20
373.079510766546
 10
-459.94213465119094
 20
341.9895515360005
 10
-456.26366660671596
 20
310.899592305455
 10
-452.58519856224103
 20
279.80963307490947
 10
-448.90673051776616
 20
248.719673844364
 10
-445.2282624732912
 20
217.6297146138185
 10
-441.54979442881626
 20
186.539755383273
 10
-437.87132638434133
 20
155.4497961527275
 10
-434.19285833986635
 20
124.359836922182
 10
-430.5143902953915
 20
93.2698776916365
 10
-426.83592225091655
 20
62.179918461091
 10
-423.15745420644157
 20
31.0899592305455
 10
-419.4789861619666
 20
-5.5053500927262875e-14
 10
-419.3836184419068
 20
-7.108250944147321
 10
-419.1238134266051
 20
-14.213713479551314
 10
-418.69966863556186
 20
-21.313600299839475
 10
-418.1113465584399
 20
-28.40512630294519
 10
-417.35907459082586
 20
-35.48550969217095
 10
-416.4431449443313
 20
-42.551973075945476
 10
-415.36391453107007
 20
-49.6017445658389
 10
-414.12180482255616
 20
-56.63205887240208
 10
-412.71730168307886
 20
-63.640158398398164
 10
-411.15095517762137
 20
-70.62329432899121
 10
-409.4233793543975
 20
-77.57872771846507
 10
-407.5352520020938
 20
-84.50373057303898
 10
-405.48731438191203
 20
-91.39558692935336
 10
-403.2803709345189
 20
-98.25159392820096
 10
-400.9152889620177
 20
-105.06906288307584
 10
-398.3929982850694
 20
-111.84532034311997
 10
-395.71449087529584
 20
-118.57770915004673
 10
-392.88082046311456
 20
-125.2635894886231
 10
-389.8931021211555
 20
-131.90033993029527
 10
-386.75251182342777
 20
-138.4853584695452
 10
-383.46028598041016
 20
-145.01606355256936
 10
-380.01772095024734
 20
-151.4898950978708
 10
-376.42617252624774
 20
-157.904315508363
 10
-372.6870554008829
 20
-164.25681067458498
 10
-368.8018426065028
 20
-170.5448909686303
 10
-364.7720649329864
 20
-176.76609222839744
 10
-360.5993103225581
 20
-182.9179767317736
 10
-356.28522324201083
 20
-188.99813416036378
 10
-351.831504032581
 20
-195.0041825523878
 10
-347.2399082377349
 20
-200.93376924436643
 10
-342.51224590913176
 20
-206.78457180122373
 10
-337.6503808910368
 20
-212.55429893444014
 10
-332.6562300834681
 20
-218.24069140789138
 10
-327.5317626843685
 20
-223.8415229310157
 10
-322.2789994111025
 20
-229.35460103895701
 10
-316.9000117015841
 20
-234.77776795933465
 10
-311.39692089535396
 20
-240.10890146529832
 10
-305.7718973949284
 20
-245.34591571452975
 10
-300.02715980775065
 20
-250.48676207386129
 10
-294.1343308293106
 20
-255.51169100830128
 10
-288.09572282688015
 20
-260.4187307176748
 10
-281.94433692534085
 20
-265.2236879161555
 10
-275.6825755954648
 20
-269.9246707543825
 10
-269.31288494389696
 20
-274.5198284882664
 10
-262.8377537461096
 20
-279.00735221066293
 10
-256.25971246248935
 20
-283.38547556650764
 10
-249.58133223794334
 20
-287.6524754511272
 10
-242.8052238854218
 20
-291.8066726914525
 10
-235.93403685375793
 20
-295.84643270986373
 10
-228.97045818023392
 20
-299.77016617040493
 10
-221.9172114282857
 20
-303.57632960711305
 10
-214.777055610769
 20
-307.26342603421233
 10
-207.55278409920922
 20
-310.83000553793306
 10
-200.24722351946906
 20
-314.2746658497217
 10
-192.8632326342687
 20
-317.5960529006141
 10
-185.4037012130015
 20
-320.79286135655366
 10
-177.87154888929103
 20
-323.863835134443
 10
-170.26972400674174
 20
-326.80776789872385
 10
-162.60120245333965
 20
-329.62350353829095
 10
-154.86898648496322
 20
-332.30993662354933
 10
-147.0761035384702
 20
-334.86601284343527
 10
-139.22560503482958
 20
-337.2907294222278
 10
-131.3205651727709
 20
-339.58313551598764
 10
-123.36407971342963
 20
-341.74233258846255
 10
-115.35926475646727
 20
-343.7674747663168
 10
-107.30925550815113
 20
-345.65776917353793
 10
-99.21720504188042
 20
-347.41247624489336
 10
-91.08628305164883
 20
-349.03091001831
 10
-82.91967459893623
 20
-350.51243840606315
 10
-74.72057885352487
 20
-351.8564834446663
 10
-66.49220782873837
 20
-353.0625215233634
 10
-58.2377851116027
 20
-354.1300835911333
 10
-49.96054458843182
 20
-355.05875534212464
 10
-41.66372916634171
 20
-355.8481773794482
 10
-33.35058949119781
 20
-356.4980453572598
 10
-25.02438266250334
 20
-357.0081101010822
 10
-16.688370945735954
 20
-357.3781777063124
 10
-8.345820482642303
 20
-357.6081096148806
 10
0.0
 20
-357.69782267002813
 10
8.345820482642303
 20
-357.6081096148806
 10
16.688370945735954
 20
-357.3781777063124
 10
25.02438266250334
 20
-357.0081101010822
 10
33.35058949119781
 20
-356.4980453572598
 10
41.66372916634171
 20
-355.8481773794482
 10
49.96054458843182
 20
-355.05875534212464
 10
58.2377851116027
 20
-354.1300835911333
 10
66.49220782873837
 20
-353.0625215233634
 10
74.72057885352487
 20
-351.8564834446663
 10
82.91967459893623
 20
-350.51243840606315
 10
91.08628305164883
 20
-349.03091001831
 10
99.21720504188042
 20
-347.41247624489336
 10
107.30925550815113
 20
-345.65776917353793
 10
115.35926475646727
 20
-343.7674747663168
 10
123.36407971342963
 20
-341.74233258846255
 10
131.3205651727709
 20
-339.58313551598764
 10
139.22560503482958
 20
-337.2907294222278
 10
147.0761035384702
 20
-334.86601284343527
 10
154.86898648496322
 20
-332.30993662354933
 10
162.60120245333965
 20
-329.62350353829095
 10
170.26972400674174
 20
-326.80776789872385
 10
177.87154888929103
 20
-323.863835134443
 10
185.4037012130015
 20
-320.79286135655366
 10
192.8632326342687
 20
-317.5960529006141
 10
200.24722351946906
 20
-314.2746658497217
 10
207.55278409920922
 20
-310.83000553793306
 10
214.777055610769
 20
-307.26342603421233
 10
221.9172114282857
 20
-303.57632960711305
 10
228.97045818023392
 20
-299.77016617040493
 10
235.93403685375793
 20
-295.84643270986373
 10
242.8052238854218
 20
-291.8066726914525
 10
249.58133223794334
 20
-287.6524754511272
 10
256.25971246248935
 20
-283.38547556650764
 10
262.8377537461096
 20
-279.00735221066293
 10
269.31288494389696
 20
-274.5198284882664
 10
275.6825755954648
 20
-269.9246707543825
 10
281.94433692534085
 20
-265.2236879161555
 10
288.09572282688015
 20
-260.4187307176748
 10
294.1343308293106
 20
-255.51169100830128
 10
300.02715980775065
 20
-250.48676207386129
 10
305.7718973949284
 20
-245.34591571452975
 10
311.39692089535396
 20
-240.10890146529832
 10
316.9000117015841
 20
-234.77776795933465
 10
322.2789994111025
 20
-229.35460103895701
 10
327.5317626843685
 20
-223.8415229310157
 10
332.6562300834681
 20
-218.24069140789138
 10
337.6503808910368
 20
-212.55429893444014
 10
342.51224590913176
 20
-206.78457180122373
 10
347.2399082377349
 20
-200.93376924436643
 10
351.831504032581
 20
-195.0041825523878
 10
356.28522324201083
 20
-188.99813416036378
 10
360.5993103225581
 20
-182.9179767317736
 10
364.7720649329864
 20
-176.76609222839744
 10
368.8018426065028
 20
-170.5448909686303
 10
372.6870554008829
 20
-164.25681067458498
 10
376.42617252624774
 20
-157.904315508363
 10
380.01772095024734
 20
-151.4898950978708
 10
383.46028598041016
 20
-145.01606355256936
 10
386.75251182342777
 20
-138.4853584695452
 10
389.8931021211555
 20
-131.90033993029527
 10
392.88082046311456
 20
-125.2635894886231
 10
395.71449087529584
 20
-118.57770915004673
 10
398.3929982850694
 20
-111.84532034311997
 10
400.9152889620177
 20
-105.06906288307584
 10
403.2803709345189
 20
-98.25159392820096
 10
405.48731438191203
 20
-91.39558692935336
 10
407.5352520020938
 20
-84.50373057303898
 10
409.4233793543975
 20
-77.57872771846507
 10
411.15095517762137
 20
-70.62329432899121
 10
412.71730168307886
 20
-63.640158398398164
 10
414.12180482255616
 20
-56.63205887240208
 10
415.36391453107007
 20
-49.6017445658389
 10
416.4431449443313
 20
-42.551973075945476
 10
417.35907459082586
 20
-35.48550969217095
 10
418.1113465584399
 20
-28.40512630294519
 10
418.69966863556186
 20
-21.313600299839475
 10
419.1238134266051
 20
-14.213713479551314
 10
419.3836184419068
 20
-7.108250944147321
 10
419.4789861619666
 20
-5.5053500927262875e-14
 10
423.15745420644157
 20
31.0899592305455
 10
426.83592225091655
 20
62.179918461091
 10
430.5143902953915
 20
93.2698776916365
 10
434.19285833986635
 20
124.359836922182
 10
437.87132638434133
 20
155.4497961527275
 10
441.54979442881626
 20
186.539755383273
 10
445.2282624732912
 20
217.6297146138185
 10
448.90673051776616
 20
248.719673844364
 10
452.58519856224103
 20
279.80963307490947
 10
456.26366660671596
 20
310.899592305455
 10
459.94213465119094
 20
341.9895515360005
 10
463.62060269566587
 20
373.079510766546
 10
467.2990707401408
 20
404.1694699970915
 10
470.9775387846157
 20
435.259429227637
 10
474.65600682909064
 20
466.3493884581825
 10
478.33447487356557
 20
497.439347688728
 10
482.01294291804055
 20
528.5293069192735
 10
485.6914109625154
 20
559.6192661498189
 10
489.36987900699035
 20
590.7092253803645
 10
493.04834705146527
 20
621.79918461091
 10
496.72681509594025
 20
652.8891438414555
 10
500.4052831404151
 20
683.979103072001
 10
504.0837511848901
 20
715.0690623025465
 10
507.76221922936503
 20
746.159021533092
 10
511.44068727383996
 20
777.2489807636375
  0
LWPOLYLINE
  5
33
330
17
100
AcDbEntity
  8
SECTION
 62
1
100
AcDbPolyline
 90
209
 70
0
 10
-848.7737295348243
 20
747.2259531140354
 10
-845.4847337987729
 20
717.3369149894739
 10
-842.1957380627218
 20
687.4478768649126
 10
-838.9067423266706
 20
657.5588387403511
 10
-835.6177465906194
 20
627.6698006157897
 10
-832.3287508545683
 20
597.7807624912283
 10
-829.0397551185171
 20
567.891724366667
 10
-825.7507593824657
 20
538.0026862421055
 10
-822.4617636464146
 20
508.11364811754413
 10
-819.1727679103634
 20
478.22460999298266
 10
-815.8837721743122
 20
448.3355718684212
 10
-812.5947764382611
 20
418.44653374385985
 10
-809.3057807022099
 20
388.55749561929844
 10
-806.0167849661586
 20
358.66845749473697
 10
-802.7277892301074
 20
328.77941937017556
 10
-799.4387934940562
 20
298.89038124561415
 10
-796.149797758005
 20
269.00134312105274
 10
-792.8608020219538
 20
239.11230499649133
 10
-789.5718062859027
 20
209.22326687192992
 10
-786.2828105498514
 20
179.33422874736848
 10
-782.9938148138001
 20
149.44519062280708
 10
-779.704819077749
 20
119.55615249824567
 10
-776.4158233416978
 20
89.66711437368424
 10
-773.1268276056466
 20
59.77807624912283
 10
-769.8378318695954
 20
29.889038124561417
 10
-766.5488361335442
 20
-5.4744005988788204e-14
 10
-766.3591779876566
 20
-8.433371389942433
 10
-765.8707191652268
 20
-16.863450390452535
 10
-765.0836368699277
 20
-25.286945913712856
 10
-763.9982263633729
 20
-33.700569474621034
 10
-762.6149008483887
 20
-42.10103649086057
 10
-760.9341913056577
 20
-50.485067581429306
 10
-758.9567462838008
 20
-58.849389863111874
 10
-756.6833316429796
 20
-67.19073824438215
 10
-754.114830252121
 20
-75.50585671622665
 10
-751.2522416398832
 20
-83.79149963937579
 10
-748.0966815995022
 20
-92.04443302743759
 10
-744.6493817476725
 20
-100.26143582542262
 10
-740.9116890376404
 20
-108.43930118315696
 10
-736.8850652266981
 20
-116.57483772308083
 10
-732.5710862982916
 20
-124.66487080192857
 10
-727.9714418389723
 20
-132.70624376579377
 10
-723.087934370433
 20
-140.69581919808212
 10
-717.9224786368993
 20
-148.6304801598595
 10
-712.4771008481538
 20
-156.50713142210375
 10
-706.7539378784928
 20
-164.3227006893737
 10
-700.7552364219343
 20
-172.07413981441258
 10
-694.483352104008
 20
-179.7584260032035
 10
-687.9407485504814
 20
-187.37256301000184
 10
-681.1299964133896
 20
-194.9135823218733
 10
-674.0537723547519
 20
-202.37854433226656
 10
-666.7148579883791
 20
-209.76453950315874
 10
-659.1161387801892
 20
-217.06868951531396
 10
-651.2606029074655
 20
-224.28814840619856
 10
-643.1513400775099
 20
-231.42010369510592
 10
-634.7915403061558
 20
-238.4617774950438
 10
-626.1844926566268
 20
-245.4104276109451
 10
-617.3335839392363
 20
-252.263348623769
 10
-608.2422973724439
 20
-259.017872960062
 10
-598.9142112057989
 20
-265.6713719465581
 10
-589.352997305314
 20
-272.2212568493997
 10
-579.5624197018266
 20
-278.66497989756846
 10
-569.5463331029258
 20
-285.0000352901226
 10
-559.3086813690317
 20
-291.22396018684117
 10
-548.8534959542254
 20
-297.3343356818846
 10
-538.0910283496381
 20
-303.2977015530691
 10
-527.0254803812861
 20
-309.1117296144443
 10
-515.7550025489204
 20
-314.8052246367207
 10
-504.28396040654087
 20
-320.3759528351785
 10
-492.6167987993355
 20
-325.8217289597906
 10
-480.75804010645066
 20
-331.14041715913993
 10
-468.7122824531128
 20
-336.3299318248086
 10
-456.4841978928039
 20
-341.38823841590255
 10
-444.07853056020866
 20
-346.3133542633886
 10
-431.500094795667
 20
-351.10334935392325
 10
-418.75377324186996
 20
-355.7563470928651
 10
-405.8445149135536
 20
-360.2705250461689
 10
-392.77733324095374
 20
-364.64411566086727
 10
-379.5573040877934
 20
-368.8754069638558
 10
-366.1895637445892
 20
-372.96274323870546
 10
-352.67930689806695
 20
-376.9045256802344
 10
-339.03178457749317
 20
-380.69921302657997
 10
-325.25230207872954
 20
-384.34532216852216
 10
-311.3462168668353
 20
-387.8414287358167
 10
-297.3189364580447
 20
-391.1861676603059
 10
-283.1759162819568
 20
-394.3782337155859
 10
-268.92265752478346
 20
-397.4163820330151
 10
-254.5647049545079
 20
-400.299428593861
 10
-240.1076447288133
 20
-403.02625069739105
 10
-225.55710218664953
 20
-405.5957874047213
 10
-210.91873962430782
 20
-408.0070399582489
 10
-196.1982540568869
 20
-410.25907217650104
 10
-181.40137496603197
 20
-412.35101082424535
 10
-166.53386203483893
 20
-414.2820459577156
 10
-151.60150287081868
 20
-416.05143124481435
 10
-136.61011071782147
 20
-417.6584842601693
 10
-121.56552215782675
 20
-419.10258675492287
 10
-106.47359480350586
 20
-420.3831849011512
 10
-91.34020498247082
 20
-421.4997895108148
 10
-76.17124541412443
 20
-422.4519762291544
 10
-60.97262288002965
 20
-423.2393857024555
 10
-45.75025588872001
 20
-423.8617237201152
 10
-30.51007233587367
 20
-424.31876133095614
 10
-15.258007160776405
 20
-424.61033493373964
 10
0.0
 20
-424.7363463418439
 10
15.258007160776405
 20
-424.61033493373964
 10
30.51007233587367
 20
-424.31876133095614
 10
45.75025588872001
 20
-423.8617237201152
 10
60.97262288002965
 20
-423.2393857024555
 10
76.17124541412443
 20
-422.4519762291544
 10
91.34020498247082
 20
-421.4997895108148
 10
106.47359480350586
 20
-420.3831849011512
 10
121.56552215782675
 20
-419.10258675492287
 10
136.61011071782147
 20
-417.6584842601693
 10
151.60150287081868
 20
-416.05143124481435
 10
166.53386203483893
 20
-414.2820459577156
 10
181.40137496603197
 20
-412.35101082424535
 10
196.1982540568869
 20
-410.25907217650104
 10
210.91873962430782
 20
-408.0070399582489
 10
225.55710218664953
 20
-405.5957874047213
 10
240.1076447288133
 20
-403.02625069739105
 10
254.5647049545079
 20
-400.299428593861
 10
268.92265752478346
 20
-397.4163820330151
 10
283.1759162819568
 20
-394.3782337155859
 10
297.3189364580447
 20
-391.1861676603059
 10
311.3462168668353
 20
-387.8414287358167
 10
325.25230207872954
 20
-384.34532216852216
 10
339.03178457749317
 20
-380.69921302657997
 10
352.67930689806695
 20
-376.9045256802344
 10
366.1895637445892
 20
-372.96274323870546
 10
379.5573040877934
 20
-368.8754069638558
 10
392.77733324095374
 20
-364.64411566086727
 10
405.8445149135536
 20
-360.2705250461689
 10
418.75377324186996
 20
-355.7563470928651
 10
431.500094795667
 20
-351.10334935392325
 10
444.07853056020866
 20
-346.3133542633886
 10
456.4841978928039
 20
-341.38823841590255
 10
468.7122824531128
 20
-336.3299318248086
 10
480.75804010645066
 20
-331.14041715913993
 10
492.6167987993355
 20
-325.8217289597906
 10
504.28396040654087
 20
-320.3759528351785
 10
515.7550025489204
 20
-314.8052246367207
 10
527.0254803812861
 20
-309.1117296144443
 10
538.0910283496381
 20
-303.2977015530691
 10
548.8534959542254
 20
-297.3343356818846
 10
559.3086813690317
 20
-291.22396018684117
 10
569.5463331029258
 20
-285.0000352901226
 10
579.5624197018266
 20
-278.66497989756846
 10
589.352997305314
 20
-272.2212568493997
 10
598.9142112057989
 20
-265.6713719465581
 10
608.2422973724439
 20
-259.017872960062
 10
617.3335839392363
 20
-252.263348623769
 10
626.1844926566268
 20
-245.4104276109451
 10
634.7915403061558
 20
-238.4617774950438
 10
643.1513400775099
 20
-231.42010369510592
 10
651.2606029074655
 20
-224.28814840619856
 10
659.1161387801892
 20
-217.06868951531396
 10
666.7148579883791
 20
-209.76453950315874
 10
674.0537723547519
 20
-202.37854433226656
 10
681.1299964133896
 20
-194.9135823218733
 10
687.9407485504814
 20
-187.37256301000184
 10
694.483352104008
 20
-179.7584260032035
 10
700.7552364219343
 20
-172.07413981441258
 10
706.7539378784928
 20
-164.3227006893737
 10
712.4771008481538
 20
-156.50713142210375
 10
717.9224786368993
 20
-148.6304801598595
 10
723.087934370433
 20
-140.69581919808212
 10
727.9714418389723
 20
-132.70624376579377
 10
732.5710862982916
 20
-124.66487080192857
 10
736.8850652266981
 20
-116.57483772308083
 10
740.9116890376404
 20
-108.43930118315696
 10
744.6493817476725
 20
-100.26143582542262
 10
748.0966815995022
 20
-92.04443302743759
 10
751.2522416398832
 20
-83.79149963937579
 10
754.114830252121
 20
-75.50585671622665
 10
756.6833316429796
 20
-67.19073824438215
 10
758.9567462838008
 20
-58.849389863111874
 10
760.9341913056577
 20
-50.485067581429306
 10
762.6149008483887
 20
-42.10103649086057
 10
763.9982263633729
 20
-33.700569474621034
 10
765.0836368699277
 20
-25.286945913712856
 10
765.8707191652268
 20
-16.863450390452535
 10
766.3591779876566
 20
-8.433371389942433
 10
766.5488361335442
 20
-5.4744005988788204e-14
 10
769.8378318695954
 20
29.889038124561417
 10
773.1268276056466
 20
59.77807624912283
 10
776.4158233416978
 20
89.66711437368424
 10
779.704819077749
 20
119.55615249824567
 10
782.9938148138001
 20
149.44519062280708
 10
786.2828105498514
 20
179.33422874736848
 10
789.5718062859027
 20
209.22326687192992
 10
792.8608020219538
 20
239.11230499649133
 10
796.149797758005
 20
269.00134312105274
 10
799.4387934940562
 20
298.89038124561415
 10
802.7277892301074
 20
328.77941937017556
 10
806.0167849661586
 20
358.66845749473697
 10
809.3057807022099
 20
388.55749561929844
 10
812.5947764382611
 20
418.44653374385985
 10
815.8837721743122
 20
448.3355718684212
 10
819.1727679103634
 20
478.22460999298266
 10
822.4617636464146
 20
508.11364811754413
 10
825.7507593824657
 20
538.0026862421055
 10
829.0397551185171
 20
567.891724366667
 10
832.3287508545683
 20
597.7807624912283
 10
835.6177465906194
 20
627.6698006157897
 10
838.9067423266706
 20
657.5588387403511
 10
842.1957380627218
 20
687.4478768649126
 10
845.4847337987729
 20
717.3369149894739
 10
848.7737295348243
 20
747.2259531140354
  0
LWPOLYLINE
  5
34
330
17
100
AcDbEntity
  8
SECTION
 62
1
100
AcDbPolyline
 90
209
 70
0
 10
-1117.8683795147367
 20
701.4578681509623
 10
-1115.1536443341472
 20
673.3995534249239
 10
-1112.4389091535577
 20
645.3412386988854
 10
-1109.7241739729682
 20
617.2829239728469
 10
-1107.009438792379
 20
589.2246092468083
 10
-1104.2947036117894
 20
561.16629452077
 10
-1101.5799684311999
 20
533.1079797947314
 10
-1098.8652332506103
 20
505.0496650686929
 10
-1096.150498070021
 20
476.9913503426544
 10
-1093.4357628894313
 20
448.9330356166159
 10
-1090.721027708842
 20
420.87472089057735
 10
-1088.0062925282525
 20
392.81640616453893
 10
-1085.2915573476632
 20
364.7580914385004
 10
-1082.5768221670735
 20
336.6997767124619
 10
-1079.8620869864842
 20
308.64146198642345
 10
-1077.1473518058947
 20
280.583147260385
 10
-1074.4326166253054
 20
252.52483253434644
 10
-1071.7178814447157
 20
224.46651780830794
 10
-1069.0031462641264
 20
196.40820308226947
 10
-1066.2884110835369
 20
168.34988835623096
 10
-1063.5736759029473
 20
140.2915736301925
 10
-1060.8589407223578
 20
112.23325890415397
 10
-1058.1442055417685
 20
84.17494417811548
 10
-1055.429470361179
 20
56.116629452076985
 10
-1052.7147351805895
 20
28.058314726038493
 10
-1049.9999999999998
 20
-5.440092820663267e-14
 10
-1049.7168504979543
 20
-9.186971552431975
 10
-1049.0269760760073
 20
-18.370381348122823
 10
-1047.93061794228
 20
-27.546669038438193
 10
-1046.4281780043495
 20
-36.71227709040009
 10
-1044.5202187103625
 20
-45.86365219312362
 10
-1042.2074628266723
 20
-54.997246662584445
 10
-1039.4907931521034
 20
-64.10951984416226
 10
-1036.3712521689429
 20
-73.19693951240414
 10
-1032.8500416308075
 20
-82.25598326745714
 10
-1028.9285220875404
 20
-91.28313992761399
 10
-1024.6082123473302
 20
-100.27491091742691
 10
-1019.8907888762653
 20
-109.22781165083538
 10
-1014.7780851355608
 20
-118.13837290876312
 10
-1009.2720908567132
 20
-127.00314221064238
 10
-1003.3749512548824
 20
-135.818685179318
 10
-997.0889661807997
 20
-144.5815868987961
 10
-990.4165892115449
 20
-153.28845326429834
 10
-983.3604266805463
 20
-161.93591232408926
 10
-975.9232366471934
 20
-170.5206156125449
 10
-968.107927806464
 20
-179.03923947393625
 10
-959.9175583389981
 20
-187.4884863764062
 10
-951.3553347020766
 20
-195.86508621561612
 10
-942.4246103619796
 20
-204.1657976075506
 10
-933.1288844682236
 20
-212.38740916996815
 10
-923.4718004702083
 20
-220.52674079199014
 10
-913.4571446768114
 20
-228.58064489132735
 10
-903.0888447595091
 20
-236.54600765864697
 10
-892.3709681996082
 20
-244.4197502885867
 10
-881.3077206802066
 20
-252.19883019693162
 10
-869.9034444235147
 20
-259.8802422234709
 10
-858.1626164742024
 20
-267.46101982005877
 10
-846.0898469294398
 20
-274.9382362234114
 10
-833.6898771163396
 20
-282.3090056121746
 10
-820.96757771752
 20
-289.57048424780606
 10
-807.927946845525
 20
-296.71987159881996
 10
-794.5761080668694
 20
-303.7544114479506
 10
-780.9173083764856
 20
-310.67139298179615
 10
-766.9569161233741
 20
-317.46815186251365
 10
-752.700418888277
 20
-324.1420712811388
 10
-737.9673453648501
 20
-330.63001097597106
 10
-722.7634150426534
 20
-336.9294522801964
 10
-707.2805359460057
 20
-343.0984991176187
 10
-691.5246504295962
 20
-349.13473494610383
 10
-675.5018087785969
 20
-355.03579572908365
 10
-659.2181668167415
 20
-360.79937087015423
 10
-642.6799834726777
 20
-366.42320412654897
 10
-625.893618305561
 20
-371.90509450112165
 10
-608.8655289908626
 20
-377.24289711249077
 10
-591.6022687673895
 20
-382.434524042997
 10
-574.1104838465242
 20
-387.4779451641421
 10
-556.3969107847073
 20
-392.37118893918085
 10
-538.4683738202062
 20
-397.1123432025485
 10
-520.3317821752154
 20
-401.6995559158184
 10
-501.9941273243631
 20
-406.1310358998867
 10
-483.4624802306975
 20
-410.4050535430988
 10
-464.74398855024924
 20
-414.5199414850337
 10
-445.8458738062741
 20
-418.4740952756803
 10
-426.7754285342922
 20
-422.2659740097404
 10
-407.5400133990539
 20
-425.89410093581125
 10
-388.1470542845712
 20
-429.35706404020556
 10
-368.60403935836507
 20
-432.653516605177
 10
-348.9185161110904
 20
-435.78217774133236
 10
-329.09808837270714
 20
-438.7418328940193
 10
-309.1504133063788
 20
-441.5313343234887
 10
-289.083198381286
 20
-444.14960155864225
 10
-268.9041983255523
 20
-446.5956218241874
 10
-248.6212120604857
 20
-448.8684504410271
 10
-228.24207961735064
 20
-450.96721119973074
 10
-207.77467903788545
 20
-452.891096706935
 10
-187.22692325979412
 20
-454.6393687045382
 10
-166.6067569884419
 20
-456.211358361565
 10
-145.92215355599168
 20
-457.60646653858123
 10
-125.1811117692233
 20
-458.8241640245587
 10
-104.39165274728146
 20
-459.86399174609306
 10
-83.56181675060294
 20
-460.72556094889467
 10
-62.69966000227631
 20
-461.4085533514786
 10
-41.813251503090896
 20
-461.9127212709941
 10
-20.910669841534418
 20
-462.2378877211441
 10
0.0
 20
-462.38394648215444
 10
20.910669841534418
 20
-462.2378877211441
 10
41.813251503090896
 20
-461.9127212709941
 10
62.69966000227631
 20
-461.4085533514786
 10
83.56181675060294
 20
-460.72556094889467
 10
104.39165274728146
 20
-459.86399174609306
 10
125.1811117692233
 20
-458.8241640245587
 10
145.92215355599168
 20
-457.60646653858123
 10
166.6067569884419
 20
-456.211358361565
 10
187.22692325979412
 20
-454.6393687045382
 10
207.77467903788545
 20
-452.891096706935
 10
228.24207961735064
 20
-450.96721119973074
 10
248.6212120604857
 20
-448.8684504410271
 10
268.9041983255523
 20
-446.5956218241874
 10
289.083198381286
 20
-444.14960155864225
 10
309.1504133063788
 20
-441.5313343234887
 10
329.09808837270714
 20
-438.7418328940193
 10
348.9185161110904
 20
-435.78217774133236
 10
368.60403935836507
 20
-432.653516605177
 10
388.1470542845712
 20
-429.35706404020556
 10
407.5400133990539
 20
-425.89410093581125
 10
426.7754285342922
 20
-422.2659740097404
 10
445.8458738062741
 20
-418.4740952756803
 10
464.74398855024924
 20
-414.5199414850337
 10
483.4624802306975
 20
-410.4050535430988
 10
501.9941273243631
 20
-406.1310358998867
 10
520.3317821752154
 20
-401.6995559158184
 10
538.4683738202062
 20
-397.1123432025485
 10
556.3969107847073
 20
-392.37118893918085
 10
574.1104838465242
 20
-387.4779451641421
 10
591.6022687673895
 20
-382.434524042997
 10
608.8655289908626
 20
-377.24289711249077
 10
625.893618305561
 20
-371.90509450112165
 10
642.6799834726777
 20
-366.42320412654897
 10
659.2181668167415
 20
-360.79937087015423
 10
675.5018087785969
 20
-355.03579572908365
 10
691.5246504295962
 20
-349.13473494610383
 10
707.2805359460057
 20
-343.0984991176187
 10
722.7634150426534
 20
-336.9294522801964
 10
737.9673453648501
 20
-330.63001097597106
 10
752.700418888277
 20
-324.1420712811388
 10
766.9569161233741
 20
-317.46815186251365
 10
780.9173083764856
 20
-310.67139298179615
 10
794.5761080668694
 20
-303.7544114479506
 10
807.927946845525
 20
-296.71987159881996
 10
820.96757771752
 20
-289.57048424780606
 10
833.6898771163396
 20
-282.3090056121746
 10
846.0898469294398
 20
-274.9382362234114
 10
858.1626164742024
 20
-267.46101982005877
 10
869.9034444235147
 20
-259.8802422234709
 10
881.3077206802066
 20
-252.19883019693162
 10
892.3709681996082
 20
-244.4197502885867
 10
903.0888447595091
 20
-236.54600765864697
 10
913.4571446768114
 20
-228.58064489132735
 10
923.4718004702083
 20
-220.52674079199014
 10
933.1288844682236
 20
-212.38740916996815
 10
942.4246103619796
 20
-204.1657976075506
 10
951.3553347020766
 20
-195.86508621561612
 10
959.9175583389981
 20
-187.4884863764062
 10
968.107927806464
 20
-179.03923947393625
 10
975.9232366471934
 20
-170.5206156125449
 10
983.3604266805463
 20
-161.93591232408926
 10
990.4165892115449
 20
-153.28845326429834
 10
997.0889661807997
 20
-144.5815868987961
 10
1003.3749512548824
 20
-135.818685179318
 10
1009.2720908567132
 20
-127.00314221064238
 10
1014.7780851355608
 20
-118.13837290876312
 10
1019.8907888762653
 20
-109.22781165083538
 10
1024.6082123473302
 20
-100.27491091742691
 10
1028.9285220875404
 20
-91.28313992761399
 10
1032.8500416308075
 20
-82.25598326745714
 10
1036.3712521689429
 20
-73.19693951240414
 10
1039.4907931521034
 20
-64.10951984416226
 10
1042.2074628266723
 20
-54.997246662584445
 10
1044.5202187103625
 20
-45.86365219312362
 10
1046.4281780043495
 20
-36.71227709040009
 10
1047.93061794228
 20
-27.546669038438193
 10
1049.0269760760073
 20
-18.370381348122823
 10
1049.7168504979543
 20
-9.186971552431975
 10
1049.9999999999998
 20
-5.440092820663267e-14
 10
1052.7147351805895
 20
28.058314726038493
 10
1055.429470361179
 20
56.116629452076985
 10
1058.1442055417685
 20
84.17494417811548
 10
1060.8589407223578
 20
112.23325890415397
 10
1063.5736759029473
 20
140.2915736301925
 10
1066.2884110835369
 20
168.34988835623096
 10
1069.0031462641264
 20
196.40820308226947
 10
1071.7178814447157
 20
224.46651780830794
 10
1074.4326166253054
 20
252.52483253434644
 10
1077.1473518058947
 20
280.583147260385
 10
1079.8620869864842
 20
308.64146198642345
 10
1082.5768221670735
 20
336.6997767124619
 10
1085.2915573476632
 20
364.7580914385004
 10
1088.0062925282525
 20
392.81640616453893
 10
1090.721027708842
 20
420.87472089057735
 10
1093.4357628894313
 20
448.9330356166159
 10
1096.150498070021
 20
476.9913503426544
 10
1098.8652332506103
 20
505.0496650686929
 10
1101.5799684311999
 20
533.1079797947314
 10
1104.2947036117894
 20
561.16629452077
 10
1107.009438792379
 20
589.2246092468083
 10
1109.7241739729682
 20
617.2829239728469
 10
1112.4389091535577
 20
645.3412386988854
 10
1115.1536443341472
 20
673.3995534249239
 10
1117.8683795147367
 20
701.4578681509623
  0
LWPOLYLINE
  5
35
330
17
100
AcDbEntity
  8
SECTION
 62
1
100
AcDbPolyline
 90
209
 70
0
 10
-955.0180622590964
 20
669.0251374746731
 10
-952.8846630270795
 20
642.2641319756862
 10
-950.7512637950624
 20
615.5031264766992
 10
-948.6178645630454
 20
588.7421209777123
 10
-946.4844653310284
 20
561.9811154787253
 10
-944.3510660990114
 20
535.2201099797385
 10
-942.2176668669945
 20
508.4591044807515
 10
-940.0842676349776
 20
481.6980989817646
 10
-937.9508684029605
 20
454.9370934827777
 10
-935.8174691709436
 20
428.17608798379075
 10
-933.6840699389267
 20
401.41508248480386
 10
-931.5506707069096
 20
374.6540769858169
 10
-929.4172714748926
 20
347.89307148683
 10
-927.2838722428756
 20
321.1320659878431
 10
-925.1504730108587
 20
294.37106048885613
 10
-923.0170737788417
 20
267.61005498986924
 10
-920.8836745468247
 20
240.8490494908823
 10
-918.7502753148078
 20
214.08804399189538
 10
-916.6168760827908
 20
187.32703849290846
 10
-914.4834768507739
 20
160.56603299392154
 10
-912.3500776187568
 20
133.80502749493462
 10
-910.2166783867398
 20
107.04402199594769
 10
-908.0832791547228
 20
80.28301649696077
 10
-905.9498799227059
 20
53.522010997973844
 10
-903.8164806906889
 20
26.761005498986922
 10
-901.6830814586721
 20
-5.405785042447714e-14
 10
-901.4198673918236
 20
-9.462690966069703
 10
-900.809582692982
 20
-18.921749832429565
 10
-899.8524331923062
 20
-28.373545935285783
 10
-898.5487618496451
 20
-37.81445148210896
 10
-896.8990486189523
 20
-47.24084298584685
 10
-894.9039102585406
 20
-56.649102697435765
 10
-892.5641000872517
 20
-66.03562003604331
 10
-889.8805076866407
 20
-75.39679301647641
 10
-886.8541585492864
 20
-84.72902967319266
 10
-883.4862136733738
 20
-94.02874948034854
 10
-879.7779691037044
 20
-103.29238476732745
 10
-875.730855419317
 20
-112.51638212918353
 10
-871.3464371679222
 20
-121.69720383144572
 10
-866.6264122473729
 20
-130.83132920872904
 10
-861.5726112344171
 20
-139.9152560565946
 10
-856.1869966609971
 20
-148.94550201611315
 10
-850.47166223838
 20
-157.91860595058284
 10
-844.4288320294302
 20
-166.83112931385597
 10
-838.0608595693468
 20
-175.67965750973613
 10
-831.370226935216
 20
-184.46080124190505
 10
-824.3595437647454
 20
-193.17119785385023
 10
-817.031546224569
 20
-201.8075126582578
 10
-809.3890959285296
 20
-210.36644025534946
 10
-801.4351788063672
 20
-218.84470583964165
 10
-793.1729039232599
 20
-227.23906649460758
 10
-784.6055022506849
 20
-235.5463124747339
 10
-775.7363253890848
 20
-243.76326847446313
 10
-766.568844242844
 20
-251.88679488351983
 10
-757.1066476480999
 20
-259.91378902812596
 10
-747.353440953931
 20
-267.84118639761357
 10
-737.3130445574826
 20
-275.6659618559491
 10
-726.9893923936083
 20
-283.38513083769305
 10
-716.3865303796279
 20
-290.99575052791874
 10
-705.5086148158109
 20
-298.4949210256262
 10
-694.3599107422241
 20
-305.8797864901906
 10
-682.9447902525885
 20
-313.1475362703913
 10
-671.267730765813
 20
-320.2954060155767
 10
-659.3333132558906
 20
-327.32067876852267
 10
-647.1462204408531
 20
-334.22068603955665
 10
-634.5020645684613
 20
-340.874638788538
 10
-621.4057262515299
 20
-347.2799686062041
 10
-608.0713525384249
 20
-353.55232872956714
 10
-594.504014219493
 20
-359.6892548909582
 10
-580.7088741854137
 20
-365.68833636523254
 10
-566.6911853861033
 20
-371.54721692282783
 10
-552.4562887540078
 20
-377.26359576127646
 10
-538.0096110926181
 20
-382.8352284148059
 10
-523.3566629310353
 20
-388.25992764166716
 10
-508.50303634543394
 20
-393.53556428883945
 10
-493.45440274828974
 20
-398.66006813377106
 10
-478.21651064623916
 20
-403.6314287028218
 10
-462.7951833674641
 20
-408.4476960660842
 10
-447.1963167594929
 20
-413.1069816082705
 10
-431.42587685833405
 20
-417.6074587753581
 10
-415.4898975298607
 20
-421.9473637967006
 10
-399.39447808437944
 20
-426.1249963823173
 10
-383.1457808653259
 20
-430.1387203950872
 10
-366.7500288130413
 20
-433.9869644975795
 10
-350.2135030045921
 20
-437.66822277326736
 10
-333.5425401706064
 20
-441.1810553218776
 10
-316.7435301901079
 20
-444.52408882864125
 10
-299.8229135643378
 20
-447.6960171072208
 10
-282.78717887056445
 20
-450.69560161609843
 10
-265.6428601968863
 20
-453.52167194822124
 10
-248.39653455904238
 20
-456.1731262937108
 10
-231.0548193002516
 20
-458.6489318754533
 10
-213.62436947510957
 20
-460.94812535739777
 10
-196.11187521857624
 20
-463.069813225402
 10
-178.52405910109476
 20
-465.01317214047515
 10
-160.86767347088744
 20
-466.7774492642762
 10
-143.1494977844792
 20
-468.3619625567422
 10
-125.37633592650435
 20
-469.7661010457256
 10
-107.5550135198554
 20
-470.989325068537
 10
-89.6923752272384
 20
-472.031166485295
 10
-71.79528204520075
 20
-472.891228864001
 10
-53.870608591701654
 20
-473.56918763726514
 10
-35.92524038829755
 20
-474.0647902306207
 10
-17.966071138016805
 20
-474.37785616237664
 10
0.0
 20
-474.5082771149701
 10
17.966071138016805
 20
-474.37785616237664
 10
35.92524038829755
 20
-474.0647902306207
 10
53.870608591701654
 20
-473.56918763726514
 10
71.79528204520075
 20
-472.891228864001
 10
89.6923752272384
 20
-472.031166485295
 10
107.5550135198554
 20
-470.989325068537
 10
125.37633592650435
 20
-469.7661010457256
 10
143.1494977844792
 20
-468.3619625567422
 10
160.86767347088744
 20
-466.7774492642762
 10
178.52405910109476
 20
-465.01317214047515
 10
196.11187521857624
 20
-463.069813225402
 10
213.62436947510957
 20
-460.94812535739777
 10
231.0548193002516
 20
-458.6489318754533
 10
248.39653455904238
 20
-456.1731262937108
 10
265.6428601968863
 20
-453.52167194822124
 10
282.78717887056445
 20
-450.69560161609843
 10
299.8229135643378
 20
-447.6960171072208
 10
316.7435301901079
 20
-444.52408882864125
 10
333.5425401706064
 20
-441.1810553218776
 10
350.2135030045921
 20
-437.66822277326736
 10
366.7500288130413
 20
-433.9869644975795
 10
383.1457808653259
 20
-430.1387203950872
 10
399.39447808437944
 20
-426.1249963823173
 10
415.4898975298607
 20
-421.9473637967006
 10
431.42587685833405
 20
-417.6074587753581
 10
447.1963167594929
 20
-413.1069816082705
 10
462.7951833674641
 20
-408.4476960660842
 10
478.21651064623916
 20
-403.6314287028218
 10
493.45440274828974
 20
-398.66006813377106
 10
508.50303634543394
 20
-393.53556428883945
 10
523.3566629310353
 20
-388.25992764166716
 10
538.0096110926181
 20
-382.8352284148059
 10
552.4562887540078
 20
-377.26359576127646
 10
566.6911853861033
 20
-371.54721692282783
 10
580.7088741854137
 20
-365.68833636523254
 10
594.504014219493
 20
-359.6892548909582
 10
608.0713525384249
 20
-353.55232872956714
 10
621.4057262515299
 20
-347.2799686062041
 10
634.5020645684613
 20
-340.874638788538
 10
647.1462204408531
 20
-334.22068603955665
 10
659.3333132558906
 20
-327.32067876852267
 10
671.267730765813
 20
-320.2954060155767
 10
682.9447902525885
 20
-313.1475362703913
 10
694.3599107422241
 20
-305.8797864901906
 10
705.5086148158109
 20
-298.4949210256262
 10
716.3865303796279
 20
-290.99575052791874
 10
726.9893923936083
 20
-283.38513083769305
 10
737.3130445574826
 20
-275.6659618559491
 10
747.353440953931
 20
-267.84118639761357
 10
757.1066476480999
 20
-259.91378902812596
 10
766.568844242844
 20
-251.88679488351983
 10
775.7363253890848
 20
-243.76326847446313
 10
784.6055022506849
 20
-235.5463124747339
 10
793.1729039232599
 20
-227.23906649460758
 10
801.4351788063672
 20
-218.84470583964165
 10
809.3890959285296
 20
-210.36644025534946
 10
817.031546224569
 20
-201.8075126582578
 10
824.3595437647454
 20
-193.17119785385023
 10
831.370226935216
 20
-184.46080124190505
 10
838.0608595693468
 20
-175.67965750973613
 10
844.4288320294302
 20
-166.83112931385597
 10
850.47166223838
 20
-157.91860595058284
 10
856.1869966609971
 20
-148.94550201611315
 10
861.5726112344171
 20
-139.9152560565946
 10
866.6264122473729
 20
-130.83132920872904
 10
871.3464371679222
 20
-121.69720383144572
 10
875.730855419317
 20
-112.51638212918353
 10
879.7779691037044
 20
-103.29238476732745
 10
883.4862136733738
 20
-94.02874948034854
 10
886.8541585492864
 20
-84.72902967319266
 10
889.8805076866407
 20
-75.39679301647641
 10
892.5641000872517
 20
-66.03562003604331
 10
894.9039102585406
 20
-56.649102697435765
 10
896.8990486189523
 20
-47.24084298584685
 10
898.5487618496451
 20
-37.81445148210896
 10
899.8524331923062
 20
-28.373545935285783
 10
900.809582692982
 20
-18.921749832429565
 10
901.4198673918236
 20
-9.462690966069703
 10
901.6830814586721
 20
-5.405785042447714e-14
 10
903.8164806906889
 20
26.761005498986922
 10
905.9498799227059
 20
53.522010997973844
 10
908.0832791547228
 20
80.28301649696077
 10
910.2166783867398
 20
107.04402199594769
 10
912.3500776187568
 20
133.80502749493462
 10
914.4834768507739
 20
160.56603299392154
 10
916.6168760827908
 20
187.32703849290846
 10
918.7502753148078
 20
214.08804399189538
 10
920.8836745468247
 20
240.8490494908823
 10
923.0170737788417
 20
267.61005498986924
 10
925.1504730108587
 20
294.37106048885613
 10
927.2838722428756
 20
321.1320659878431
 10
929.4172714748926
 20
347.89307148683
 10
931.5506707069096
 20
374.6540769858169
 10
933.6840699389267
 20
401.41508248480386
 10
935.8174691709436
 20
428.17608798379075
 10
937.9508684029605
 20
454.9370934827777
 10
940.0842676349776
 20
481.6980989817646
 10
942.2176668669945
 20
508.4591044807515
 10
944.3510660990114
 20
535.2201099797385
 10
946.4844653310284
 20
561.9811154787253
 10
948.6178645630454
 20
588.7421209777123
 10
950.7512637950624
 20
615.5031264766992
 10
952.8846630270795
 20
642.2641319756862
 10
955.0180622590964
 20
669.0251374746731
  0
LWPOLYLINE
  5
36
330
17
100
AcDbEntity
  8
SECTION
 62
1
100
AcDbPolyline
 90
209
 70
0
 10
-649.6721939939075
 20
664.7598430999484
 10
-648.0267485333463
 20
638.1694493759504
 10
-646.381303072785
 20
611.5790556519526
 10
-644.735857612224
 20
584.9886619279546
 10
-643.0904121516627
 20
558.3982682039566
 10
-641.4449666911015
 20
531.8078744799587
 10
-639.7995212305403
 20
505.2174807559607
 10
-638.154075769979
 20
478.62708703196284
 10
-636.508630309418
 20
452.0366933079649
 10
-634.8631848488567
 20
425.44629958396695
 10
-633.2177393882955
 20
398.855905859969
 10
-631.5722939277343
 20
372.26551213597116
 10
-629.926848467173
 20
345.6751184119732
 10
-628.281403006612
 20
319.0847246879752
 10
-626.6359575460507
 20
292.4943309639773
 10
-624.9905120854895
 20
265.90393723997937
 10
-623.3450666249282
 20
239.31354351598142
 10
-621.699621164367
 20
212.72314979198347
 10
-620.054175703806
 20
186.13275606798558
 10
-618.4087302432447
 20
159.5423623439876
 10
-616.7632847826835
 20
132.95196861998969
 10
-615.1178393221222
 20
106.36157489599174
 10
-613.472393861561
 20
79.7711811719938
 10
-611.826948401
 20
53.18078744799587
 10
-610.1815029404387
 20
26.590393723997934
 10
-608.5360574798775
 20
-5.374835548600246e-14
 10
-608.3462037490295
 20
-9.421066778106152
 10
-607.9234568918869
 20
-18.838550896948128
 10
-607.2679550256647
 20
-28.24887111363209
 10
-606.3799282850505
 20
-37.64844901744456
 10
-605.2596987312226
 20
-47.03371044454284
 10
-603.9076802245264
 20
-56.40108689096672
 10
-602.3243782608582
 20
-65.74701692341273
 10
-600.5103897718233
 20
-75.06794758721215
 10
-598.4664028887426
 20
-84.36033581095873
 10
-596.1931966706093
 20
-93.62064980722668
 10
-593.6916407960933
 20
-102.84537046883098
 10
-590.9626952197227
 20
-112.03099276007175
 10
-588.007409792375
 20
-121.17402710241609
 10
-584.8269238462282
 20
-130.27100075407134
 10
-581.4224657443373
 20
-139.31845918289898
 10
-577.7953523950124
 20
-148.31296743213144
 10
-573.9469887311911
 20
-157.25111147834969
 10
-569.8788671550125
 20
-166.1294995811845
 10
-565.5925669478092
 20
-174.94476362420906
 10
-561.0897536457553
 20
-183.69356044649072
 10
-556.3721783814101
 20
-192.37257316427923
 10
-551.4416771914265
 20
-200.9785124823041
 10
-546.3001702906906
 20
-209.50811799416573
 10
-540.9496613131835
 20
-217.95815947130723
 10
-535.3922365198631
 20
-226.32543814005362
 10
-529.630063973881
 20
-234.60678794621634
 10
-523.66539268346
 20
-242.79907680676342
 10
-517.5005517127693
 20
-250.8992078480577
 10
-511.1379492611514
 20
-258.9041206301765
 10
-504.5800717110639
 20
-266.8107923568281
 10
-497.8294826451116
 20
-274.6162390703842
 10
-490.88882183255845
 20
-282.3175168315603
 10
-483.76080418572013
 20
-289.91172288327283
 10
-476.44821868664957
 20
-297.3959967982176
 10
-468.9539272845389
 20
-304.76752160971176
 10
-461.28086376427615
 20
-312.02352492535465
 10
-453.4320325865998
 20
-319.1612800230673
 10
-445.4105077003158
 20
-326.1781069290752
 10
-437.21943132703973
 20
-333.07137347741104
 10
-428.6907830469783
 20
-339.66886764817417
 10
-419.8278378741258
 20
-345.9680559935044
 10
-410.80516496151813
 20
-352.1360846391563
 10
-401.62616693705763
 20
-358.17052286127864
 10
-392.29430823028827
 20
-364.0689927497199
 10
-382.8131137027664
 20
-369.8291701481117
 10
-373.1861672545402
 20
-375.44878557270255
 10
-363.4171104072896
 20
-380.9256251095763
 10
-353.5096408646851
 20
-386.25753128990186
 10
-343.4675110505352
 20
-391.4424039428679
 10
-333.294526625303
 20
-396.4782010259654
 10
-322.9945449815725
 20
-401.3629394322902
 10
-312.5714737190678
 20
-406.09469577454394
 10
-302.0292690998185
 20
-410.6716071454286
 10
-291.37193448409096
 20
-415.091871854128
 10
-280.60351874769646
 20
-419.3537501385896
 10
-269.7281146813083
 20
-423.4555648533224
 10
-258.7498573724153
 20
-427.3957021324411
 10
-247.67292257055414
 20
-431.1726120276917
 10
-236.50152503646714
 20
-434.7848091212093
 10
-225.23991687583663
 20
-438.230873112764
 10
-213.89238585825547
 20
-441.5094493812628
 10
-202.46325372209833
 20
-444.6192495202857
 10
-190.9568744659636
 20
-447.55905184744597
 10
-179.37763262736166
 20
-450.32770188736964
 10
-167.72994154932965
 20
-452.9241128281068
 10
-156.01824163565863
 20
-455.34726595079206
 10
-144.2469985954221
 20
-457.5962110323857
 10
-132.4207016775006
 20
-459.67006672133505
 10
-120.54386189580003
 20
-461.5680208860083
 10
-108.62101024586521
 20
-463.2893309357632
 10
-96.65669591359422
 20
-464.8333241145233
 10
-84.65548447676096
 20
-466.19939776674516
 10
-72.62195610005767
 20
-467.38701957567304
 10
-60.56070372437044
 20
-468.39572777378487
 10
-48.47633125100384
 20
-469.2251313253479
 10
-36.373451721572536
 20
-469.8749100810104
 10
-24.256685494279225
 20
-470.34481490437065
 10
-12.130658417300115
 20
-470.63466777046955
 10
0.0
 20
-470.74436183617183
 10
12.130658417300115
 20
-470.63466777046955
 10
24.256685494279225
 20
-470.34481490437065
 10
36.373451721572536
 20
-469.8749100810104
 10
48.47633125100384
 20
-469.2251313253479
 10
60.56070372437044
 20
-468.39572777378487
 10
72.62195610005767
 20
-467.38701957567304
 10
84.65548447676096
 20
-466.19939776674516
 10
96.65669591359422
 20
-464.8333241145233
 10
108.62101024586521
 20
-463.2893309357632
 10
120.54386189580003
 20
-461.5680208860083
 10
132.4207016775006
 20
-459.67006672133505
 10
144.2469985954221
 20
-457.5962110323857
 10
156.01824163565863
 20
-455.34726595079206
 10
167.72994154932965
 20
-452.9241128281068
 10
179.37763262736166
 20
-450.32770188736964
 10
190.9568744659636
 20
-447.55905184744597
 10
202.46325372209833
 20
-444.6192495202857
 10
213.89238585825547
 20
-441.5094493812628
 10
225.23991687583663
 20
-438.230873112764
 10
236.50152503646714
 20
-434.7848091212093
 10
247.67292257055414
 20
-431.1726120276917
 10
258.7498573724153
 20
-427.3957021324411
 10
269.7281146813083
 20
-423.4555648533224
 10
280.60351874769646
 20
-419.3537501385896
 10
291.37193448409096
 20
-415.091871854128
 10
302.0292690998185
 20
-410.6716071454286
 10
312.5714737190678
 20
-406.09469577454394
 10
322.9945449815725
 20
-401.3629394322902
 10
333.294526625303
 20
-396.4782010259654
 10
343.4675110505352
 20
-391.4424039428679
 10
353.5096408646851
 20
-386.25753128990186
 10
363.4171104072896
 20
-380.9256251095763
 10
373.1861672545402
 20
-375.44878557270255
 10
382.8131137027664
 20
-369.8291701481117
 10
392.29430823028827
 20
-364.0689927497199
 10
401.62616693705763
 20
-358.17052286127864
 10
410.80516496151813
 20
-352.1360846391563
 10
419.8278378741258
 20
-345.9680559935044
 10
428.6907830469783
 20
-339.66886764817417
 10
437.21943132703973
 20
-333.07137347741104
 10
445.4105077003158
 20
-326.1781069290752
 10
453.4320325865998
 20
-319.1612800230673
 10
461.28086376427615
 20
-312.02352492535465
 10
468.9539272845389
 20
-304.76752160971176
 10
476.44821868664957
 20
-297.3959967982176
 10
483.76080418572013
 20
-289.91172288327283
 10
490.88882183255845
 20
-282.3175168315603
 10
497.8294826451116
 20
-274.6162390703842
 10
504.5800717110639
 20
-266.8107923568281
 10
511.1379492611514
 20
-258.9041206301765
 10
517.5005517127693
 20
-250.8992078480577
 10
523.66539268346
 20
-242.79907680676342
 10
529.630063973881
 20
-234.60678794621634
 10
535.3922365198631
 20
-226.32543814005362
 10
540.9496613131835
 20
-217.95815947130723
 10
546.3001702906906
 20
-209.50811799416573
 10
551.4416771914265
 20
-200.9785124823041
 10
556.3721783814101
 20
-192.37257316427923
 10
561.0897536457553
 20
-183.69356044649072
 10
565.5925669478092
 20
-174.94476362420906
 10
569.8788671550125
 20
-166.1294995811845
 10
573.9469887311911
 20
-157.25111147834969
 10
577.7953523950124
 20
-148.31296743213144
 10
581.4224657443373
 20
-139.31845918289898
 10
584.8269238462282
 20
-130.27100075407134
 10
588.007409792375
 20
-121.17402710241609
 10
590.9626952197227
 20
-112.03099276007175
 10
593.6916407960933
 20
-102.84537046883098
 10
596.1931966706093
 20
-93.62064980722668
 10
598.4664028887426
 20
-84.36033581095873
 10
600.5103897718233
 20
-75.06794758721215
 10
602.3243782608582
 20
-65.74701692341273
 10
603.9076802245264
 20
-56.40108689096672
 10
605.2596987312226
 20
-47.03371044454284
 10
606.3799282850505
 20
-37.64844901744456
 10
607.2679550256647
 20
-28.24887111363209
 10
607.9234568918869
 20
-18.838550896948128
 10
608.3462037490295
 20
-9.421066778106152
 10
608.5360574798775
 20
-5.374835548600246e-14
 10
610.1815029404387
 20
26.590393723997934
 10
611.826948401
 20
53.18078744799587
 10
613.472393861561
 20
79.7711811719938
 10
615.1178393221222
 20
106.36157489599174
 10
616.7632847826835
 20
132.95196861998969
 10
618.4087302432447
 20
159.5423623439876
 10
620.054175703806
 20
186.13275606798558
 10
621.699621164367
 20
212.72314979198347
 10
623.3450666249282
 20
239.31354351598142
 10
624.9905120854895
 20
265.90393723997937
 10
626.6359575460507
 20
292.4943309639773
 10
628.281403006612
 20
319.0847246879752
 10
629.926848467173
 20
345.6751184119732
 10
631.5722939277343
 20
372.26551213597116
 10
633.2177393882955
 20
398.855905859969
 10
634.8631848488567
 20
425.44629958396695
 10
636.508630309418
 20
452.0366933079649
 10
638.154075769979
 20
478.62708703196284
 10
639.7995212305403
 20
505.2174807559607
 10
641.4449666911015
 20
531.8078744799587
 10
643.0904121516627
 20
558.3982682039566
 10
644.735857612224
 20
584.9886619279546
 10
646.381303072785
 20
611.5790556519526
 10
648.0267485333463
 20
638.1694493759504
 10
649.6721939939075
 20
664.7598430999484
  0
LWPOLYLINE
  5
37
330
17
100
AcDbEntity
  8
SECTION
 62
1
100
AcDbPolyline
 90
209
 70
0
 10
-387.38128438818796
 20
684.1492182435071
 10
-386.09739561779094
 20
656.7832495137668
 10
-384.81350684739397
 20
629.4172807840265
 10
-383.52961807699694
 20
602.0513120542862
 10
-382.2457293065999
 20
574.6853433245459
 10
-380.9618405362028
 20
547.3193745948056
 10
-379.67795176580586
 20
519.9534058650653
 10
-378.39406299540883
 20
492.58743713532505
 10
-377.1101742250118
 20
465.2214684055848
 10
-375.82628545461483
 20
437.85549967584456
 10
-374.5423966842178
 20
410.48953094610425
 10
-373.2585079138208
 20
383.123562216364
 10
-371.97461914342375
 20
355.75759348662365
 10
-370.6907303730267
 20
328.3916247568834
 10
-369.4068416026297
 20
301.0256560271431
 10
-368.12295283223267
 20
273.6596872974028
 10
-366.83906406183564
 20
246.29371856766252
 10
-365.5551752914387
 20
218.92774983792228
 10
-364.27128652104165
 20
191.561781108182
 10
-362.9873977506446
 20
164.1958123784417
 10
-361.7035089802476
 20
136.8298436487014
 10
-360.41962020985056
 20
109.46387491896114
 10
-359.13573143945354
 20
82.09790618922085
 10
-357.8518426690565
 20
54.73193745948057
 10
-356.56795389865954
 20
27.365968729740285
 10
-355.28406512826257
 20
-5.3502738912164565e-14
 10
-355.16756316674594
 20
-9.250615360074702
 10
-354.91571162358457
 20
-18.497737021046866
 10
-354.5285907678171
 20
-27.73787266501473
 10
-354.00633434591407
 20
-36.96753273593177
 10
-353.34912952890295
 20
-46.18323181916907
 10
-352.5572168383719
 20
-55.38149001944105
 10
-351.6308900513817
 20
-64.55883433654908
 10
-350.5704960843238
 20
-73.71180003839848
 10
-349.37643485577024
 20
-82.83693203074773
 10
-348.04915912836975
 20
-91.9307862231463
 10
-346.5891743298524
 20
-100.98993089052416
 10
-344.9970383532132
 20
-110.01094802989073
 10
-343.273361336155
 20
-118.99043471160928
 10
-341.41880541987575
 20
-127.92500442471413
 10
-339.4340844872978
 20
-136.8112884157341
 10
-337.31996388084093
 20
-145.64593702049777
 10
-335.0772600998514
 20
-154.42562098839102
 10
-332.70684047780685
 20
-163.14703279854453
 10
-330.2096228394242
 20
-171.8068879674308
 10
-327.5865751378066
 20
-180.4019263473528
 10
-324.8387150717721
 20
-188.9289134153131
 10
-321.9671096835164
 20
-197.38464155175103
 10
-318.97287493676777
 20
-205.76593130864453
 10
-315.85717527560155
 20
-214.06963266647497
 10
-312.62122316408795
 20
-222.29262627955714
 10
-309.26627860695646
 20
-230.43182470924233
 10
-305.7936486514646
 20
-238.48417364450884
 10
-302.2046868706695
 20
-246.44665310945348
 10
-298.5007928283056
 20
-254.31627865721086
 10
-294.6834115254801
 20
-262.0901025498262
 10
-290.7540328294067
 20
-269.7652149236148
 10
-286.7141908843994
 20
-277.33874493954943
 10
-282.56546350536405
 20
-284.80786191821875
 10
-278.30947155402407
 20
-292.16977645890984
 10
-273.9478782981283
 20
-299.4217415423705
 10
-269.4823887538937
 20
-306.56105361681796
 10
-264.91474901194374
 20
-313.5850536667617
 10
-260.2467455470082
 20
-320.49112826421964
 10
-255.4802045116568
 20
-327.2767106019129
 10
-250.5030921692461
 20
-333.7370598981719
 10
-245.3173118467699
 20
-339.8697056125786
 10
-240.03870318239782
 20
-345.8744484226718
 10
-234.66924366799657
 20
-351.7489179613267
 10
-229.2109467124497
 20
-357.4907953637144
 10
-223.66586084567572
 20
-363.0978141840414
 10
-218.036068908761
 20
-368.56776129156873
 10
-212.3236872305288
 20
-373.89847774555085
 10
-206.5308647908687
 20
-379.08785964875307
 10
-200.65978237115775
 20
-384.1338589792069
 10
-194.71265169210974
 20
-389.03448439987613
 10
-188.69171453939202
 20
-393.78780204591305
 10
-182.59924187735734
 20
-398.3919362891931
 10
-176.43753295123955
 20
-402.84507047982686
 10
-170.208914378169
 20
-407.1454476643551
 10
-163.9157392273666
 20
-411.29137128034387
 10
-157.5603860898804
 20
-415.28120582710363
 10
-151.14525813823238
 20
-419.11337751226966
 10
-144.67278217634697
 20
-422.78637487398515
 10
-138.14540768013728
 20
-426.2987493784436
 10
-131.56560582912837
 20
-429.6491159925528
 10
-124.93586852949967
 20
-432.8361537314946
 10
-118.25870742893404
 20
-435.8586061809631
 10
-111.53665292366142
 20
-438.71528199387666
 10
-104.77225315809119
 20
-441.40505536136527
 10
-97.96807301742726
 20
-443.92686645784846
 10
-91.12669311366538
 20
-446.27972186002745
 10
-84.25070876537278
 20
-448.46269493962495
 10
-77.34272897165366
 20
-450.4749262297194
 10
-70.40537538070635
 20
-452.31562376452695
 10
-63.44128125337965
 20
-453.9840633924972
 10
-56.453090422138395
 20
-455.47958906260004
 10
-49.443456245849355
 20
-456.801613083689
 10
-42.41504056080117
 20
-457.949616356839
 10
-35.37051262837286
 20
-458.92314858056795
 10
-28.312548079766685
 20
-459.72182842885826
 10
-21.24382785822296
 20
-460.34534370191113
 10
-14.167037159134656
 20
-460.7934514495715
 10
-7.084864368481054
 20
-461.0659780673756
 10
0.0
 20
-461.162819365185
 10
7.084864368481054
 20
-461.0659780673756
 10
14.167037159134656
 20
-460.7934514495715
 10
21.24382785822296
 20
-460.34534370191113
 10
28.312548079766685
 20
-459.72182842885826
 10
35.37051262837286
 20
-458.92314858056795
 10
42.41504056080117
 20
-457.949616356839
 10
49.443456245849355
 20
-456.801613083689
 10
56.453090422138395
 20
-455.47958906260004
 10
63.44128125337965
 20
-453.9840633924972
 10
70.40537538070635
 20
-452.31562376452695
 10
77.34272897165366
 20
-450.4749262297194
 10
84.25070876537278
 20
-448.46269493962495
 10
91.12669311366538
 20
-446.27972186002745
 10
97.96807301742726
 20
-443.92686645784846
 10
104.77225315809119
 20
-441.40505536136527
 10
111.53665292366142
 20
-438.71528199387666
 10
118.25870742893404
 20
-435.8586061809631
 10
124.93586852949967
 20
-432.8361537314946
 10
131.56560582912837
 20
-429.6491159925528
 10
138.14540768013728
 20
-426.2987493784436
 10
144.67278217634697
 20
-422.78637487398515
 10
151.14525813823238
 20
-419.11337751226966
 10
157.5603860898804
 20
-415.28120582710363
 10
163.9157392273666
 20
-411.29137128034387
 10
170.208914378169
 20
-407.1454476643551
 10
176.43753295123955
 20
-402.84507047982686
 10
182.59924187735734
 20
-398.3919362891931
 10
188.69171453939202
 20
-393.78780204591305
 10
194.71265169210974
 20
-389.03448439987613
 10
200.65978237115775
 20
-384.1338589792069
 10
206.5308647908687
 20
-379.08785964875307
 10
212.3236872305288
 20
-373.89847774555085
 10
218.036068908761
 20
-368.56776129156873
 10
223.66586084567572
 20
-363.0978141840414
 10
229.2109467124497
 20
-357.4907953637144
 10
234.66924366799657
 20
-351.7489179613267
 10
240.03870318239782
 20
-345.8744484226718
 10
245.3173118467699
 20
-339.8697056125786
 10
250.5030921692461
 20
-333.7370598981719
 10
255.4802045116568
 20
-327.2767106019129
 10
260.2467455470082
 20
-320.49112826421964
 10
264.91474901194374
 20
-313.5850536667617
 10
269.4823887538937
 20
-306.56105361681796
 10
273.9478782981283
 20
-299.4217415423705
 10
278.30947155402407
 20
-292.16977645890984
 10
282.56546350536405
 20
-284.80786191821875
 10
286.7141908843994
 20
-277.33874493954943
 10
290.7540328294067
 20
-269.7652149236148
 10
294.6834115254801
 20
-262.0901025498262
 10
298.5007928283056
 20
-254.31627865721086
 10
302.2046868706695
 20
-246.44665310945348
 10
305.7936486514646
 20
-238.48417364450884
 10
309.26627860695646
 20
-230.43182470924233
 10
312.62122316408795
 20
-222.29262627955714
 10
315.85717527560155
 20
-214.06963266647497
 10
318.97287493676777
 20
-205.76593130864453
 10
321.9671096835164
 20
-197.38464155175103
 10
324.8387150717721
 20
-188.9289134153131
 10
327.5865751378066
 20
-180.4019263473528
 10
330.2096228394242
 20
-171.8068879674308
 10
332.70684047780685
 20
-163.14703279854453
 10
335.0772600998514
 20
-154.42562098839102
 10
337.31996388084093
 20
-145.64593702049777
 10
339.4340844872978
 20
-136.8112884157341
 10
341.41880541987575
 20
-127.92500442471413
 10
343.273361336155
 20
-118.99043471160928
 10
344.9970383532132
 20
-110.01094802989073
 10
346.5891743298524
 20
-100.98993089052416
 10
348.04915912836975
 20
-91.9307862231463
 10
349.37643485577024
 20
-82.83693203074773
 10
350.5704960843238
 20
-73.71180003839848
 10
351.6308900513817
 20
-64.55883433654908
 10
352.5572168383719
 20
-55.38149001944105
 10
353.34912952890295
 20
-46.18323181916907
 10
354.00633434591407
 20
-36.96753273593177
 10
354.5285907678171
 20
-27.73787266501473
 10
354.91571162358457
 20
-18.497737021046866
 10
355.16756316674594
 20
-9.250615360074702
 10
355.28406512826257
 20
-5.3502738912164565e-14
 10
356.56795389865954
 20
27.365968729740285
 10
357.8518426690565
 20
54.73193745948057
 10
359.13573143945354
 20
82.09790618922085
 10
360.41962020985056
 20
109.46387491896114
 10
361.7035089802476
 20
136.8298436487014
 10
362.9873977506446
 20
164.1958123784417
 10
364.27128652104165
 20
191.561781108182
 10
365.5551752914387
 20
218.92774983792228
 10
366.83906406183564
 20
246.29371856766252
 10
368.12295283223267
 20
273.6596872974028
 10
369.4068416026297
 20
301.0256560271431
 10
370.6907303730267
 20
328.3916247568834
 10
371.97461914342375
 20
355.75759348662365
 10
373.2585079138208
 20
383.123562216364
 10
374.5423966842178
 20
410.48953094610425
 10
375.82628545461483
 20
437.85549967584456
 10
377.1101742250118
 20
465.2214684055848
 10
378.39406299540883
 20
492.58743713532505
 10
379.67795176580586
 20
519.9534058650653
 10
380.9618405362028
 20
547.3193745948056
 10
382.2457293065999
 20
574.6853433245459
 10
383.52961807699694
 20
602.0513120542862
 10
384.81350684739397
 20
629.4172807840265
 10
386.09739561779094
 20
656.7832495137668
 10
387.38128438818796
 20
684.1492182435071
  0
LWPOLYLINE
  5
38
330
17
100
AcDbEntity
  8
SECTION
 62
1
100
AcDbPolyline
 90
209
 70
0
 10
-271.4292230936612
 20
708.9999663996996
 10
-270.37030528770265
 20
680.6399677437116
 10
-269.31138748174413
 20
652.2799690877237
 10
-268.25246967578556
 20
623.9199704317357
 10
-267.193551869827
 20
595.5599717757477
 10
-266.1346340638685
 20
567.1999731197598
 10
-265.07571625790996
 20
538.8399744637718
 10
-264.0167984519514
 20
510.4799758077837
 10
-262.9578806459928
 20
482.11997715179575
 10
-261.89896284003424
 20
453.7599784958078
 10
-260.84004503407573
 20
425.39997983981976
 10
-259.78112722811716
 20
397.0399811838318
 10
-258.7222094221586
 20
368.67998252784383
 10
-257.66329161620007
 20
340.3199838718558
 10
-256.6043738102415
 20
311.95998521586785
 10
-255.54545600428293
 20
283.5999865598799
 10
-254.48653819832435
 20
255.23998790389186
 10
-253.42762039236584
 20
226.8799892479039
 10
-252.36870258640727
 20
198.5199905919159
 10
-251.3097847804487
 20
170.1599919359279
 10
-250.25086697449018
 20
141.79999327993994
 10
-249.1919491685316
 20
113.43999462395195
 10
-248.13303136257304
 20
85.07999596796395
 10
-247.0741135566145
 20
56.71999731197597
 10
-246.01519575065592
 20
28.359998655987987
 10
-244.95627794469738
 20
-5.3345043364522e-14
 10
-244.8734488154883
 20
-9.097735633958537
 10
-244.69757580461038
 20
-18.192049280975727
 10
-244.4287140917164
 20
-27.27952030696032
 10
-244.0669556186552
 20
-36.356730782986034
 10
-243.6124290531236
 20
-45.42026683653696
 10
-243.06529973779888
 20
-54.46672000114953
 10
-242.42576962497182
 20
-63.49268856391781
 10
-241.69407719670698
 20
-72.49477891032734
 10
-240.87049737056125
 20
-81.469606865889
 10
-239.9553413908976
 20
-90.41379903403936
 10
-238.94895670583745
 20
-99.32399412978175
 10
-237.85172682990083
 20
-108.19684430853773
 10
-236.66407119238715
 20
-117.02901648968505
 10
-235.38644497155806
 20
-125.8171936742602
 10
-234.01933891468698
 20
-134.5580762563017
 10
-232.56327914404687
 20
-143.2483833273179
 10
-231.01882694891262
 20
-151.88485397336308
 10
-229.38657856366123
 20
-160.46424856420833
 10
-227.66716493205553
 20
-168.98335003409903
 10
-225.86125145780707
 20
-177.43896515359006
 10
-223.96953774151504
 20
-185.82792579195996
 10
-221.99275730408564
 20
-194.1470901697003
 10
-219.93167729674178
 20
-202.39334410058802
 10
-217.78709819773718
 20
-210.5636022228501
 10
-215.5598534958947
 20
-218.65480921893138
 10
-213.25080936109484
 20
-226.66394102338498
 10
-210.86086430184332
 20
-234.5880060184085
 10
-208.3909488100547
 20
-242.42404621655072
 10
-205.84202499319105
 20
-250.16913843012412
 10
-203.215086193902
 20
-257.82039542685953
 10
-200.51115659731633
 20
-265.37496707134517
 10
-197.7312908261398
 20
-272.8300414518012
 10
-194.8765735237206
 20
-280.18284599174166
 10
-191.94811892524547
 20
-287.4306485460865
 10
-188.94707041723785
 20
-294.57075848128886
 10
-185.87460008553072
 20
-301.6005277390516
 10
-182.73190825189369
 20
-308.5173518832118
 10
-179.52022299949715
 20
-315.318671129379
 10
-176.2407996874016
 20
-322.0019713569234
 10
-172.81022514297072
 20
-328.34661689542594
 10
-169.22980777757505
 20
-334.3501879151304
 10
-165.58557706932356
 20
-340.2284813835995
 10
-161.87889241302943
 20
-345.9791755881992
 10
-158.11113789407838
 20
-351.59999926144735
 10
-154.28372174124368
 20
-357.08873247893706
 10
-150.39807576995636
 20
-362.44320753696326
 10
-146.4556548162507
 20
-367.6613098095033
 10
-142.4579361616086
 20
-372.74097858421413
 10
-138.40641894893056
 20
-377.68020787711555
 10
-134.30262358986374
 20
-382.47704722563657
 10
-130.1480911637216
 20
-387.12960245971243
 10
-125.94438280823312
 20
-391.6360364506263
 10
-121.6930791023619
 20
-395.9945698373011
 10
-117.39577944143907
 20
-400.20348172975247
 10
-113.05410140485789
 20
-404.26111038942634
 10
-108.66968011657902
 20
-408.1658538861517
 10
-104.24416759869995
 20
-411.9161707314479
 10
-99.77923211834376
 20
-415.51058048793766
 10
-95.27655752812558
 20
-418.9476643546241
 10
-90.73784260045767
 20
-422.2260657277999
 10
-86.16480035595582
 20
-425.3444907373677
 10
-81.5591573862131
 20
-428.30170875835927
 10
-76.92265317120821
 20
-431.0965528974513
 10
-72.25703939161882
 20
-433.72792045428577
 10
-67.56407923631117
 20
-436.19477335741163
 10
-62.84554670528038
 20
-438.49613857467705
 10
-58.10322590831619
 20
-440.63110849790775
 10
-53.33891035967243
 20
-442.59884130172156
 10
-48.554402269018176
 20
-444.39856127633607
 10
-43.75151182895128
 20
-446.0295591342379
 10
-38.93205649935616
 20
-447.4911922905931
 10
-34.09786028888821
 20
-448.78288511728664
 10
-29.250753033869447
 20
-449.9041291704914
 10
-24.392569674880214
 20
-450.8544833916768
 10
-19.52514953133287
 20
-451.63357428197736
 10
-14.650335574314427
 20
-452.2410960498512
 10
-9.76997369798553
 20
-452.6768107319723
 10
-4.8859119898237795
 20
-452.940548287307
 10
0.0
 20
-453.0322066643381
 10
4.8859119898237795
 20
-452.940548287307
 10
9.76997369798553
 20
-452.6768107319723
 10
14.650335574314427
 20
-452.2410960498512
 10
19.52514953133287
 20
-451.63357428197736
 10
24.392569674880214
 20
-450.8544833916768
 10
29.250753033869447
 20
-449.9041291704914
 10
34.09786028888821
 20
-448.78288511728664
 10
38.93205649935616
 20
-447.4911922905931
 10
43.75151182895128
 20
-446.0295591342379
 10
48.554402269018176
 20
-444.39856127633607
 10
53.33891035967243
 20
-442.59884130172156
 10
58.10322590831619
 20
-440.63110849790775
 10
62.84554670528038
 20
-438.49613857467705
 10
67.56407923631117
 20
-436.19477335741163
 10
72.25703939161882
 20
-433.72792045428577
 10
76.92265317120821
 20
-431.0965528974513
 10
81.5591573862131
 20
-428.30170875835927
 10
86.16480035595582
 20
-425.3444907373677
 10
90.73784260045767
 20
-422.2260657277999
 10
95.27655752812558
 20
-418.9476643546241
 10
99.77923211834376
 20
-415.51058048793766
 10
104.24416759869995
 20
-411.9161707314479
 10
108.66968011657902
 20
-408.1658538861517
 10
113.05410140485789
 20
-404.26111038942634
 10
117.39577944143907
 20
-400.20348172975247
 10
121.6930791023619
 20
-395.9945698373011
 10
125.94438280823312
 20
-391.6360364506263
 10
130.1480911637216
 20
-387.12960245971243
 10
134.30262358986374
 20
-382.47704722563657
 10
138.40641894893056
 20
-377.68020787711555
 10
142.4579361616086
 20
-372.74097858421413
 10
146.4556548162507
 20
-367.6613098095033
 10
150.39807576995636
 20
-362.44320753696326
 10
154.28372174124368
 20
-357.08873247893706
 10
158.11113789407838
 20
-351.59999926144735
 10
161.87889241302943
 20
-345.9791755881992
 10
165.58557706932356
 20
-340.2284813835995
 10
169.22980777757505
 20
-334.3501879151304
 10
172.81022514297072
 20
-328.34661689542594
 10
176.2407996874016
 20
-322.0019713569234
 10
179.52022299949715
 20
-315.318671129379
 10
182.73190825189369
 20
-308.5173518832118
 10
185.87460008553072
 20
-301.6005277390516
 10
188.94707041723785
 20
-294.57075848128886
 10
191.94811892524547
 20
-287.4306485460865
 10
194.8765735237206
 20
-280.18284599174166
 10
197.7312908261398
 20
-272.8300414518012
 10
200.51115659731633
 20
-265.37496707134517
 10
203.215086193902
 20
-257.82039542685953
 10
205.84202499319105
 20
-250.16913843012412
 10
208.3909488100547
 20
-242.42404621655072
 10
210.86086430184332
 20
-234.5880060184085
 10
213.25080936109484
 20
-226.66394102338498
 10
215.5598534958947
 20
-218.65480921893138
 10
217.78709819773718
 20
-210.5636022228501
 10
219.93167729674178
 20
-202.39334410058802
 10
221.99275730408564
 20
-194.1470901697003
 10
223.96953774151504
 20
-185.82792579195996
 10
225.86125145780707
 20
-177.43896515359006
 10
227.66716493205553
 20
-168.98335003409903
 10
229.38657856366123
 20
-160.46424856420833
 10
231.01882694891262
 20
-151.88485397336308
 10
232.56327914404687
 20
-143.2483833273179
 10
234.01933891468698
 20
-134.5580762563017
 10
235.38644497155806
 20
-125.8171936742602
 10
236.66407119238715
 20
-117.02901648968505
 10
237.85172682990083
 20
-108.19684430853773
 10
238.94895670583745
 20
-99.32399412978175
 10
239.9553413908976
 20
-90.41379903403936
 10
240.87049737056125
 20
-81.469606865889
 10
241.69407719670698
 20
-72.49477891032734
 10
242.42576962497182
 20
-63.49268856391781
 10
243.06529973779888
 20
-54.46672000114953
 10
243.6124290531236
 20
-45.42026683653696
 10
244.0669556186552
 20
-36.356730782986034
 10
244.4287140917164
 20
-27.27952030696032
 10
244.69757580461038
 20
-18.192049280975727
 10
244.8734488154883
 20
-9.097735633958537
 10
244.95627794469738
 20
-5.3345043364522e-14
 10
246.01519575065592
 20
28.359998655987987
 10
247.0741135566145
 20
56.71999731197597
 10
248.13303136257304
 20
85.07999596796395
 10
249.1919491685316
 20
113.43999462395195
 10
250.25086697449018
 20
141.79999327993994
 10
251.3097847804487
 20
170.1599919359279
 10
252.36870258640727
 20
198.5199905919159
 10
253.42762039236584
 20
226.8799892479039
 10
254.48653819832435
 20
255.23998790389186
 10
255.54545600428293
 20
283.5999865598799
 10
256.6043738102415
 20
311.95998521586785
 10
257.66329161620007
 20
340.3199838718558
 10
258.7222094221586
 20
368.67998252784383
 10
259.78112722811716
 20
397.0399811838318
 10
260.84004503407573
 20
425.39997983981976
 10
261.89896284003424
 20
453.7599784958078
 10
262.9578806459928
 20
482.11997715179575
 10
264.0167984519514
 20
510.4799758077837
 10
265.07571625790996
 20
538.8399744637718
 10
266.1346340638685
 20
567.1999731197598
 10
267.193551869827
 20
595.5599717757477
 10
268.25246967578556
 20
623.9199704317357
 10
269.31138748174413
 20
652.2799690877237
 10
270.37030528770265
 20
680.6399677437116
 10
271.4292230936612
 20
708.9999663996996
  0
LWPOLYLINE
  5
39
330
17
100
AcDbEntity
  8
SECTION
 62
1
100
AcDbPolyline
 90
209
 70
0
 10
-257.37006701390214
 20
717.664848164364
 10
-256.3725182903459
 20
688.9582542377894
 10
-255.37496956678973
 20
660.251660311215
 10
-254.3774208432335
 20
631.5450663846403
 10
-253.37987211967732
 20
602.8384724580658
 10
-252.3823233961211
 20
574.1318785314912
 10
-251.38477467256487
 20
545.4252846049167
 10
-250.3872259490087
 20
516.7186906783421
 10
-249.38967722545246
 20
488.0120967517676
 10
-248.39212850189625
 20
459.305502825193
 10
-247.39457977834007
 20
430.5989088986184
 10
-246.39703105478387
 20
401.8923149720439
 10
-245.39948233122766
 20
373.18572104546934
 10
-244.40193360767142
 20
344.4791271188947
 10
-243.40438488411522
 20
315.77253319232017
 10
-242.40683616055904
 20
287.0659392657456
 10
-241.40928743700283
 20
258.35934533917106
 10
-240.41173871344662
 20
229.6527514125965
 10
-239.4141899898904
 20
200.94615748602195
 10
-238.41664126633418
 20
172.23956355944736
 10
-237.41909254277797
 20
143.5329696328728
 10
-236.4215438192218
 20
114.82637570629825
 10
-235.4239950956656
 20
86.11978177972368
 10
-234.42644637210935
 20
57.413187853149125
 10
-233.42889764855315
 20
28.706593926574563
 10
-232.43134892499694
 20
-5.330180741225376e-14
 10
-232.35210327064038
 20
-9.051660529453276
 10
-232.18464274356518
 20
-18.099920000122736
 10
-231.92901965958146
 20
-27.141378697800725
 10
-231.58532118872503
 20
-36.17263959690041
 10
-231.1536693207957
 20
-45.19030970343724
 10
-230.63422081712972
 20
-54.191001396416766
 10
-230.02716714862572
 20
-63.1713337670986
 10
-229.3327344200485
 20
-72.1279339556059
 10
-228.55118328064052
 20
-81.057438484354
 10
-227.68280882107692
 20
-89.95649458776829
 10
-226.72794045680428
 20
-98.82176153776918
 10
-225.68694179780906
 20
-107.64991196449635
 10
-224.56021050486814
 20
-116.43763317175261
 10
-223.3481781323372
 20
-125.18162844664738
 10
-222.05130995754018
 20
-133.87861836292007
 10
-220.67010479682597
 20
-142.52534207743008
 10
-219.2050948083662
 20
-151.1185586193004
 10
-217.65684528177175
 20
-159.65504817120402
 10
-216.02595441461074
 20
-168.1316133422885
 10
-214.31305307591686
 20
-176.54508043223325
 10
-212.51880455678136
 20
-184.8923006859425
 10
-210.64390430812716
 20
-193.17015153837517
 10
-208.6890796657691
 20
-201.37553784902073
 10
-206.65508956286854
 20
-209.5053931255344
 10
-204.5427242298964
 20
-217.5566807360451
 10
-202.3528048822231
 20
-225.5263951096586
 10
-200.0861833954589
 20
-233.41156292468224
 10
-197.74374196867305
 20
-241.2092442840982
 10
-195.32639277562473
 20
-248.91653387782438
 10
-192.83507760414378
 20
-256.53056213130117
 10
-190.27076748380412
 20
-264.0484963399497
 10
-187.6344623020363
 20
-271.46754178905525
 10
-184.92719040883142
 20
-278.7849428586307
 10
-182.15000821019308
 20
-285.9979841128246
 10
-179.3039997504971
 20
-293.10399137344314
 10
-176.39027628392506
 20
-300.10033277716036
 10
-173.40997583514033
 20
-306.984419816001
 10
-170.36426274938125
 20
-313.7537083606818
 10
-167.25432723214809
 20
-320.4056996664089
 10
-163.99941605105835
 20
-326.71616585859846
 10
-160.60076971048954
 20
-332.6827019066674
 10
-157.14162196115737
 20
-338.52472657484003
 10
-153.62326164482414
 20
-344.23993234959175
 10
-150.0470010123755
 20
-349.826061854038
 10
-146.41417520503487
 20
-355.2809087403661
 10
-142.7261417265277
 20
-360.60231856209396
 10
-138.98427990640576
 20
-365.78818962581005
 10
-135.18999035474206
 20
-370.83647382205777
 10
-131.34469440841315
 20
-375.7451774350359
 10
-127.44983356918705
 20
-380.51236193079495
 10
-123.50686893383923
 20
-385.13614472361905
 10
-119.5172806165223
 20
-389.61469992028674
 10
-115.48256716361654
 20
-393.9462590419218
 10
-111.40424496129414
 20
-398.12911172314324
 10
-107.28384763603034
 20
-402.1616063882434
 10
-103.12292544829884
 20
-406.0421509041212
 10
-98.92304467969113
 20
-409.76921320971775
 10
-94.6857870137019
 20
-413.3413219217018
 10
-90.4127489104257
 20
-416.757066916167
 10
-86.10554097541161
 20
-420.0150998861107
 10
-81.76578732292569
 20
-423.114134874475
 10
-77.39512493387292
 20
-426.0529487825369
 10
-72.99520300863237
 20
-428.830381853449
 10
-68.56768231506166
 20
-431.4453381307384
 10
-64.11423453192816
 20
-433.8967858915823
 10
-59.63654158802671
 20
-436.1837580546901
 10
-55.13629499724519
 20
-438.3053525626296
 10
-50.61519518984061
 20
-440.2607327384469
 10
-46.074950840190226
 20
-442.0491276164387
 10
-41.517278191283424
 20
-443.66983224694576
 10
-36.94390037622143
 20
-445.122207975049
 10
-32.35654673699312
 20
-446.40568269305436
 10
-27.756952140796045
 20
-447.5197510666712
 10
-23.146856294173382
 20
-448.46397473479095
 10
-18.528003055237455
 20
-449.2379824827888
 10
-13.902139744252088
 20
-449.8414703892804
 10
-9.271016452846222
 20
-450.27420194627365
 10
-4.636385352131873
 20
-450.5360081526703
 10
0.0
 20
-450.6267875810789
 10
4.636385352131873
 20
-450.5360081526703
 10
9.271016452846222
 20
-450.27420194627365
 10
13.902139744252088
 20
-449.8414703892804
 10
18.528003055237455
 20
-449.2379824827888
 10
23.146856294173382
 20
-448.46397473479095
 10
27.756952140796045
 20
-447.5197510666712
 10
32.35654673699312
 20
-446.40568269305436
 10
36.94390037622143
 20
-445.122207975049
 10
41.517278191283424
 20
-443.66983224694576
 10
46.074950840190226
 20
-442.0491276164387
 10
50.61519518984061
 20
-440.2607327384469
 10
55.13629499724519
 20
-438.3053525626296
 10
59.63654158802671
 20
-436.1837580546901
 10
64.11423453192816
 20
-433.8967858915823
 10
68.56768231506166
 20
-431.4453381307384
 10
72.99520300863237
 20
-428.830381853449
 10
77.39512493387292
 20
-426.0529487825369
 10
81.76578732292569
 20
-423.114134874475
 10
86.10554097541161
 20
-420.0150998861107
 10
90.4127489104257
 20
-416.757066916167
 10
94.6857870137019
 20
-413.3413219217018
 10
98.92304467969113
 20
-409.76921320971775
 10
103.12292544829884
 20
-406.0421509041212
 10
107.28384763603034
 20
-402.1616063882434
 10
111.40424496129414
 20
-398.12911172314324
 10
115.48256716361654
 20
-393.9462590419218
 10
119.5172806165223
 20
-389.61469992028674
 10
123.50686893383923
 20
-385.13614472361905
 10
127.44983356918705
 20
-380.51236193079495
 10
131.34469440841315
 20
-375.7451774350359
 10
135.18999035474206
 20
-370.83647382205777
 10
138.98427990640576
 20
-365.78818962581005
 10
142.7261417265277
 20
-360.60231856209396
 10
146.41417520503487
 20
-355.2809087403661
 10
150.0470010123755
 20
-349.826061854038
 10
153.62326164482414
 20
-344.23993234959175
 10
157.14162196115737
 20
-338.52472657484003
 10
160.60076971048954
 20
-332.6827019066674
 10
163.99941605105835
 20
-326.71616585859846
 10
167.25432723214809
 20
-320.4056996664089
 10
170.36426274938125
 20
-313.7537083606818
 10
173.40997583514033
 20
-306.984419816001
 10
176.39027628392506
 20
-300.10033277716036
 10
179.3039997504971
 20
-293.10399137344314
 10
182.15000821019308
 20
-285.9979841128246
 10
184.92719040883142
 20
-278.7849428586307
 10
187.6344623020363
 20
-271.46754178905525
 10
190.27076748380412
 20
-264.0484963399497
 10
192.83507760414378
 20
-256.53056213130117
 10
195.32639277562473
 20
-248.91653387782438
 10
197.74374196867305
 20
-241.2092442840982
 10
200.0861833954589
 20
-233.41156292468224
 10
202.3528048822231
 20
-225.5263951096586
 10
204.5427242298964
 20
-217.5566807360451
 10
206.65508956286854
 20
-209.5053931255344
 10
208.6890796657691
 20
-201.37553784902073
 10
210.64390430812716
 20
-193.17015153837517
 10
212.51880455678136
 20
-184.8923006859425
 10
214.31305307591686
 20
-176.54508043223325
 10
216.02595441461074
 20
-168.1316133422885
 10
217.65684528177175
 20
-159.65504817120402
 10
219.2050948083662
 20
-151.1185586193004
 10
220.67010479682597
 20
-142.52534207743008
 10
222.05130995754018
 20
-133.87861836292007
 10
223.3481781323372
 20
-125.18162844664738
 10
224.56021050486814
 20
-116.43763317175261
 10
225.68694179780906
 20
-107.64991196449635
 10
226.72794045680428
 20
-98.82176153776918
 10
227.68280882107692
 20
-89.95649458776829
 10
228.55118328064052
 20
-81.057438484354
 10
229.3327344200485
 20
-72.1279339556059
 10
230.02716714862572
 20
-63.1713337670986
 10
230.63422081712972
 20
-54.191001396416766
 10
231.1536693207957
 20
-45.19030970343724
 10
231.58532118872503
 20
-36.17263959690041
 10
231.92901965958146
 20
-27.141378697800725
 10
232.18464274356518
 20
-18.099920000122736
 10
232.35210327064038
 20
-9.051660529453276
 10
232.43134892499694
 20
-5.330180741225376e-14
 10
233.42889764855315
 20
28.706593926574563
 10
234.42644637210935
 20
57.413187853149125
 10
235.4239950956656
 20
86.11978177972368
 10
236.4215438192218
 20
114.82637570629825
 10
237.41909254277797
 20
143.5329696328728
 10
238.41664126633418
 20
172.23956355944736
 10
239.4141899898904
 20
200.94615748602195
 10
240.41173871344662
 20
229.6527514125965
 10
241.40928743700283
 20
258.35934533917106
 10
242.40683616055904
 20
287.0659392657456
 10
243.40438488411522
 20
315.77253319232017
 10
244.40193360767142
 20
344.4791271188947
 10
245.39948233122766
 20
373.18572104546934
 10
246.39703105478387
 20
401.8923149720439
 10
247.39457977834007
 20
430.5989088986184
 10
248.39212850189625
 20
459.305502825193
 10
249.38967722545246
 20
488.0120967517676
 10
250.3872259490087
 20
516.7186906783421
 10
251.38477467256487
 20
545.4252846049167
 10
252.3823233961211
 20
574.1318785314912
 10
253.37987211967732
 20
602.8384724580658
 10
254.3774208432335
 20
631.5450663846403
 10
255.37496956678973
 20
660.251660311215
 10
256.3725182903459
 20
688.9582542377894
 10
257.37006701390214
 20
717.664848164364
  0
LINE
  5
3A
330
17
100
AcDbEntity
  8
DWL
  6
DASHED
 62
5
100
AcDbLine
 10
-1155.0
 20
0.0
 30
0.0
 11
1155.0
 21
0.0
 31
0.0
  0
LINE
  5
3B
330
17
100
AcDbEntity
  8
CL
  6
CENTER
 62
3
100
AcDbLine
 10
0.0
 20
-572.0
 30
0.0
 11
0.0
 21
1155.0
 31
0.0
  0
LWPOLYLINE
  5
3C
330
17
100
AcDbEntity
  8
KEEL
 62
2
100
AcDbPolyline
 90
200
 70
0
 10
3240.0
 20
-156.0
 10
3275.911730821477
 20
-161.45793968199624
 10
3312.037918691206
 20
-166.85707317425994
 10
3348.377117018643
 20
-172.19768370399257
 10
3384.9278792132427
 20
-177.48005449839536
 10
3421.6887586844605
 20
-182.70446878466979
 10
3458.658308841752
 20
-187.87120979001722
 10
3495.835083094572
 20
-192.980560741639
 10
3533.2176348523762
 20
-198.03280486673665
 10
3570.8045175246198
 20
-203.02822539251142
 10
3608.594284520758
 20
-207.96710554616473
 10
3646.585489250246
 20
-212.84972855489792
 10
3684.7766851225397
 20
-217.67637764591242
 10
3723.1664255470937
 20
-222.4473360464097
 10
3761.7532639333635
 20
-227.162886983591
 10
3800.5357536908045
 20
-231.82331368465776
 10
3839.512448228872
 20
-236.4288993768113
 10
3878.681900957021
 20
-240.97992728725313
 10
3918.0426652847073
 20
-245.47668064318464
 10
3957.593294621386
 20
-249.91944267180708
 10
3997.3323423765123
 20
-254.3084966003219
 10
4037.258361959541
 20
-258.64412565593045
 10
4077.369906779929
 20
-262.9266130658342
 10
4117.66553024713
 20
-267.15624205723446
 10
4158.1437857706
 20
-271.3332958573327
 10
4198.803226759793
 20
-275.4580576933301
 10
4239.642406624167
 20
-279.5308107924284
 10
4280.659878773175
 20
-283.55183838182853
 10
4321.854196616272
 20
-287.52142368873234
 10
4363.223913562916
 20
-291.4398499403408
 10
4404.76758302256
 20
-295.3074003638556
 10
4446.48375840466
 20
-299.124358186478
 10
4488.37099311867
 20
-302.8910066354093
 10
4530.427840574048
 20
-306.6076289378511
 10
4572.652854180247
 20
-310.2745083210046
 10
4615.044587346723
 20
-313.8919280120712
 10
4657.601593482932
 20
-317.4601712382523
 10
4700.322425998328
 20
-320.9795212267494
 10
4743.205638302367
 20
-324.4502612047638
 10
4786.249783804505
 20
-327.87267439949676
 10
4829.453415914197
 20
-331.2470440381499
 10
4872.815088040897
 20
-334.5736533479245
 10
4916.33335359406
 20
-337.8527855560218
 10
4960.006765983144
 20
-341.0847238896435
 10
5003.833878617603
 20
-344.26975157599054
 10
5047.813244906891
 20
-347.4081518422649
 10
5091.943418260465
 20
-350.5002079156673
 10
5136.222952087779
 20
-353.5462030233996
 10
5180.650399798289
 20
-356.5464203926631
 10
5225.224314801451
 20
-359.5011432506589
 10
5269.943250506719
 20
-362.4106548245888
 10
5314.805760323548
 20
-365.27523834165396
 10
5359.810397661397
 20
-368.09517702905583
 10
5404.955715929716
 20
-370.8707541139957
 10
5450.240268537963
 20
-373.60225282367486
 10
5495.662608895594
 20
-376.28995638529517
 10
5541.221290412061
 20
-378.9341480260574
 10
5586.914866496823
 20
-381.53511097316334
 10
5632.741890559335
 20
-384.09312845381424
 10
5678.700916009049
 20
-386.6084836952114
 10
5724.790496255424
 20
-389.0814599245566
 10
5771.009184707913
 20
-391.51234036905066
 10
5817.355534775974
 20
-393.90140825589526
 10
5863.828099869059
 20
-396.2489468122919
 10
5910.425433396624
 20
-398.55523926544157
 10
5957.146088768126
 20
-400.82056884254627
 10
6003.988619393018
 20
-403.0452187708066
 10
6050.951578680758
 20
-405.22947227742463
 10
6098.033520040799
 20
-407.3736125896014
 10
6145.232996882598
 20
-409.4779229345383
 10
6192.548562615609
 20
-411.54268653943694
 10
6239.978770649286
 20
-413.56818663149846
 10
6287.522174393089
 20
-415.5547064379244
 10
6335.177327256469
 20
-417.50252918591593
 10
6382.942782648882
 20
-419.41193810267464
 10
6430.817093979786
 20
-421.28321641540214
 10
6478.798814658632
 20
-423.1166473512991
 10
6526.886498094878
 20
-424.9125141375674
 10
6575.07869769798
 20
-426.6711000014085
 10
6623.373966877391
 20
-428.3926881700236
 10
6671.770859042568
 20
-430.07756187061426
 10
6720.267927602966
 20
-431.7260043303815
 10
6768.863725968039
 20
-433.3382987765271
 10
6817.556807547244
 20
-434.9147284362522
 10
6866.345725750034
 20
-436.4555765367581
 10
6915.229033985869
 20
-437.96112630524664
 10
6964.2052856641985
 20
-439.4316609689188
 10
7013.2730341944825
 20
-440.86746375497603
 10
7062.430832986172
 20
-442.26881789061974
 10
7111.677235448726
 20
-443.6360066030514
 10
7161.010794991599
 20
-444.96931311947236
 10
7210.430065024245
 20
-446.26902066708385
 10
7259.9335989561205
 20
-447.5354124730874
 10
7309.519950196679
 20
-448.7687717646844
 10
7359.187672155377
 20
-449.96938176907616
 10
7408.935318241673
 20
-451.1375257134643
 10
7458.7614418650155
 20
-452.2734868250497
 10
7508.6645964348645
 20
-453.37754833103423
 10
7558.643335360675
 20
-454.449993458619
 10
7608.6962120519
 20
-455.4911054350055
 10
7658.821779917998
 20
-456.5011674873953
 10
7709.018592368423
 20
-457.48046284298954
 10
7759.285202812629
 20
-458.4292747289895
 10
7809.620164660073
 20
-459.3478863725968
 10
7860.022031320208
 20
-460.2365810010127
 10
7910.489356202492
 20
-461.0956418414387
 10
7961.020692716378
 20
-461.9253521210761
 10
8011.614594271323
 20
-462.72599506712623
 10
8062.269614276783
 20
-463.4978539067907
 10
8112.984306142211
 20
-464.2412118672705
 10
8163.757223277064
 20
-464.9563521757674
 10
8214.586919090794
 20
-465.64355805948253
 10
8265.471946992862
 20
-466.3031127456174
 10
8316.410860392718
 20
-466.93529946137346
 10
8367.40221269982
 20
-467.54040143395184
 10
8418.444557323626
 20
-468.1187018905543
 10
8469.536447673585
 20
-468.67048405838193
 10
8520.676437159154
 20
-469.19603116463617
 10
8571.863079189792
 20
-469.69562643651835
 10
8623.094927174952
 20
-470.16955310123006
 10
8674.370534524089
 20
-470.6180943859725
 10
8725.688454646657
 20
-471.04153351794713
 10
8777.047240952113
 20
-471.44015372435524
 10
8828.445446849915
 20
-471.81423823239834
 10
8879.881625749516
 20
-472.1640702692778
 10
8931.354331060367
 20
-472.4899330621949
 10
8982.862116191929
 20
-472.7921098383511
 10
9034.403534553656
 20
-473.0708838249478
 10
9085.977139555001
 20
-473.3265382491864
 10
9137.58148460542
 20
-473.5593563382682
 10
9189.215123114373
 20
-473.76962131939473
 10
9240.876608491308
 20
-473.9576164197671
 10
9292.564494145687
 20
-474.12362486658685
 10
9344.27733348696
 20
-474.2679298870556
 10
9396.013679924585
 20
-474.3908147083743
 10
9447.772086868015
 20
-474.4925625577447
 10
9499.55110772671
 20
-474.57345666236796
 10
9551.34929591012
 20
-474.63378024944546
 10
9603.165204827705
 20
-474.6738165461788
 10
9654.997387888914
 20
-474.69384877976916
 10
9706.84439850321
 20
-474.694160177418
 10
9758.704790080043
 20
-474.67503396632674
 10
9810.577116028871
 20
-474.6367533736966
 10
9862.459929759145
 20
-474.5796016267291
 10
9914.351784680328
 20
-474.50386195262575
 10
9966.251234201867
 20
-474.4098175785876
 10
10018.156831733222
 20
-474.2977517318164
 10
10070.067130683849
 20
-474.1679476395132
 10
10121.980684463197
 20
-474.0206885288796
 10
10173.896046480731
 20
-473.85625762711686
 10
10225.811770145898
 20
-473.6749381614266
 10
10277.726408868159
 20
-473.4770133590099
 10
10329.638516056966
 20
-473.2627664470683
 10
10381.546645121773
 20
-473.03248065280314
 10
10433.44934947204
 20
-472.7864392034159
 10
10485.345182517218
 20
-472.5249253261078
 10
10537.232697666765
 20
-472.24822224808037
 10
10589.110448330131
 20
-471.95661319653493
 10
10640.976987916782
 20
-471.6503813986729
 10
10692.830869836162
 20
-471.32981008169554
 10
10744.670647497736
 20
-470.99518247280446
 10
10796.49487431095
 20
-470.6467817992008
 10
10848.302103685266
 20
-470.28489128808616
 10
10900.090889030136
 20
-469.9097941666617
 10
10951.859783755017
 20
-469.521773662129
 10
11003.607341269362
 20
-469.12111300168937
 10
11055.332114982632
 20
-468.7080954125441
 10
11107.032658304273
 20
-468.2830041218948
 10
11158.707524643749
 20
-467.84612235694266
 10
11210.35526741051
 20
-467.3977333448891
 10
11261.974440014015
 20
-466.93812031293555
 10
11313.563595863716
 20
-466.46756648828347
 10
11365.121288369068
 20
-465.986355098134
 10
11416.646070939532
 20
-465.4947693696888
 10
11468.136496984558
 20
-464.9930925301491
 10
11519.5911199136
 20
-464.4816078067162
 10
11571.00849313612
 20
-463.9605984265917
 10
11622.387170061564
 20
-463.4303476169768
 10
11673.725704099397
 20
-462.891138605073
 10
11725.022648659067
 20
-462.3432546180817
 10
11776.276557150033
 20
-461.7869788832042
 10
11827.48598298175
 20
-461.2225946276419
 10
11878.649479563672
 20
-460.6503850785962
 10
11929.765600305256
 20
-460.0706334632685
 10
11980.832898615956
 20
-459.48362300886015
 10
12031.849927905227
 20
-458.88963694257257
 10
12082.815241582524
 20
-458.28895849160705
 10
12133.727393057305
 20
-457.6818708831651
 10
12184.584935739022
 20
-457.0686573444481
 10
12235.386423037131
 20
-456.4496011026573
 10
12286.13040836109
 20
-455.82498538499414
 10
12336.815445120352
 20
-455.1950934186602
 10
12387.440086724371
 20
-454.5602084308566
 10
12438.002886582608
 20
-453.92061364878487
 10
12488.502398104509
 20
-453.27659229964627
 10
12538.937174699537
 20
-452.6284276106423
 10
12589.305769777146
 20
-451.9764028089743
 10
12639.606736746786
 20
-451.32080112184366
 10
12689.83862901792
 20
-450.6619057764518
 10
12740.0
 20
-450.0
  0
LWPOLYLINE
  5
3D
330
17
100
AcDbEntity
  8
SHEER
 62
6
100
AcDbPolyline
 90
200
 70
0
 10
2140.0
 20
294.00000000000006
 10
2156.81599583991
 20
308.0137566386469
 10
2174.09716951719
 20
321.77491061837065
 10
2191.8420439867577
 20
335.28539985017255
 10
2210.04914220353
 20
348.5471639284701
 10
2228.7169871224255
 20
361.5621441310981
 10
2247.8441016983606
 20
374.3322834193073
 10
2267.4290088862535
 20
386.8595264377657
 10
2287.470231641021
 20
399.1458195145577
 10
2307.966292917581
 20
411.19311066118416
 10
2328.9157156708516
 20
423.0033495725631
 10
2350.31702285575
 20
434.5784876270288
 10
2372.1687374271933
 20
445.9204778863323
 10
2394.4693823400985
 20
457.0312750956416
 10
2417.217480549384
 20
467.9128356835406
 10
2440.411555009968
 20
478.5671177620308
 10
2464.0501286767667
 20
488.99608112652965
 10
2488.1317245046985
 20
499.20168725587155
 10
2512.6548654486796
 20
509.185899312308
 10
2537.6180744636285
 20
518.9506821415058
 10
2563.0198745044636
 20
528.4980022725499
 10
2588.8587885261004
 20
537.8298279179414
 10
2615.1333394834583
 20
546.9481289735978
 10
2641.8420503314533
 20
555.8548770188534
 10
2668.9834440250033
 20
564.5520453164595
 10
2696.556043519027
 20
573.0416088125831
 10
2724.5583717684403
 20
581.3255441368094
 10
2752.9889517281617
 20
589.4058296021385
 10
2781.846306353108
 20
597.284445204989
 10
2811.1289585981976
 20
604.9633726251944
 10
2840.8354314183475
 20
612.4445952260061
 10
2870.9642477684756
 20
619.7300980540914
 10
2901.5139306034985
 20
626.8218678395351
 10
2932.4830028783344
 20
633.7218929958377
 10
2963.8699875479006
 20
640.4321636199171
 10
2995.673407567115
 20
646.9546714921075
 10
3027.891785890895
 20
653.2914100761597
 10
3060.5236454741575
 20
659.4443745192414
 10
3093.56750927182
 20
665.4155616519371
 10
3127.0219002388017
 20
671.2069699882472
 10
3160.885341330018
 20
676.82059972559
 10
3195.1563555003877
 20
682.2584527447992
 10
3229.8334657048276
 20
687.5225326101255
 10
3264.915194898256
 20
692.6148445692374
 10
3300.4000660355896
 20
697.5373955532182
 10
3336.286602071746
 20
702.2921941765695
 10
3372.573325961643
 20
706.881250737208
 10
3409.2587606601983
 20
711.3065772164688
 10
3446.3414291223294
 20
715.5701872791026
 10
3483.8198543029534
 20
719.6740962732763
 10
3521.6925591569875
 20
723.6203212305749
 10
3559.9580666393504
 20
727.4108808659988
 10
3598.614899704959
 20
731.0477955779655
 10
3637.66158130873
 20
734.5330874483096
 10
3677.096634405583
 20
737.8687802422813
 10
3716.9185819504332
 20
741.056899408549
 10
3757.125946898199
 20
744.0994720791958
 10
3797.717252203798
 20
746.9985270697234
 10
3838.691020822148
 20
749.7560948790492
 10
3880.0457757081663
 20
752.3742076895064
 10
3921.7800398167706
 20
754.8548993668475
 10
3963.8923361028774
 20
757.2002054602383
 10
4006.3811875214055
 20
759.4121632022639
 10
4049.2451170272716
 20
761.4928115089251
 10
4092.4826475753935
 20
763.4441909796384
 10
4136.092302120689
 20
765.2683438972396
 10
4180.072603618075
 20
766.9673142279778
 10
4224.4220750224695
 20
768.5431476215216
 10
4269.13923928879
 20
769.9978914109546
 10
4314.222619371953
 20
771.3335946127772
 10
4359.670738226879
 20
772.552307926908
 10
4405.482118808481
 20
773.6560837366799
 10
4451.65528407168
 20
774.6469761088441
 10
4498.188756971393
 20
775.5270407935685
 10
4545.081060462536
 20
776.2983352244361
 10
4592.330717500028
 20
776.9629185184488
 10
4639.9362510387855
 20
777.5228514760231
 10
4687.896184033727
 20
777.9801965809933
 10
4736.209039439769
 20
778.3370180006106
 10
4784.873340211829
 20
778.5953815855415
 10
4833.887609304826
 20
778.757354869871
 10
4883.250369673676
 20
778.8250070710992
 10
4932.9601442732965
 20
778.8004090901436
 10
4983.015456058607
 20
778.6856335113382
 10
5033.414827984522
 20
778.4827546024336
 10
5084.156783005962
 20
778.1938483145979
 10
5135.239844077842
 20
777.820992282414
 10
5186.662534155082
 20
777.3662658238832
 10
5238.423376192596
 20
776.8317499404225
 10
5290.520893145305
 20
776.219527316866
 10
5342.953607968126
 20
775.531682321465
 10
5395.720043615974
 20
774.7703010058858
 10
5448.818723043769
 20
773.9374711052131
 10
5502.248169206427
 20
773.035282037947
 10
5556.006905058866
 20
772.0658249060054
 10
5610.0934535560045
 20
771.0311924947221
 10
5664.50633765276
 20
769.9334792728472
 10
5719.244080304048
 20
768.7747813925486
 10
5774.305204464788
 20
767.5571966894099
 10
5829.688233089895
 20
766.2828246824317
 10
5885.39168913429
 20
764.9537665740316
 10
5941.414095552889
 20
763.5721252500434
 10
5997.7539753006085
 20
762.1400052797175
 10
6054.409851332367
 20
760.6595129157212
 10
6111.380246603083
 20
759.1327560941387
 10
6168.663684067669
 20
757.5618444344702
 10
6226.258686681051
 20
755.9488892396333
 10
6284.163777398139
 20
754.2960034959616
 10
6342.377479173855
 20
752.6053018732058
 10
6400.898314963114
 20
750.8789007245329
 10
6459.724807720835
 20
749.1189180865272
 10
6518.855480401933
 20
747.3274736791891
 10
6578.288855961329
 20
745.5066889059357
 10
6638.02345735394
 20
743.6586868536007
 10
6698.057807534681
 20
741.785592292435
 10
6758.390429458472
 20
739.8895316761057
 10
6819.019846080228
 20
737.9726331416964
 10
6879.944580354869
 20
736.0370265097079
 10
6941.163155237311
 20
734.0848432840571
 10
7002.6740936824735
 20
732.1182166520782
 10
7064.475918645271
 20
730.1392814845213
 10
7126.567153080622
 20
728.1501743355541
 10
7188.946319943446
 20
726.1530334427598
 10
7251.611942188658
 20
724.1499987271394
 10
7314.5625427711775
 20
722.1432117931095
 10
7377.796644645922
 20
720.1348159285045
 10
7441.312770767805
 20
718.1269561045744
 10
7505.109444091749
 20
716.1217789759867
 10
7569.185187572671
 20
714.121432880825
 10
7633.538524165486
 20
712.1280678405896
 10
7698.167976825112
 20
710.1438355601979
 10
7763.072068506467
 20
708.1708894279833
 10
7828.24932216447
 20
706.2113845156966
 10
7893.698260754037
 20
704.2674775785049
 10
7959.417407230085
 20
702.3413270549918
 10
8025.405284547533
 20
700.4350930671577
 10
8091.660415661297
 20
698.5509374204196
 10
8158.181323526295
 20
696.6910236036116
 10
8224.966531097445
 20
694.8575167889837
 10
8292.014561329666
 20
693.0525838322033
 10
8359.323937177873
 20
691.2783932723537
 10
8426.893181596983
 20
689.537115331936
 10
8494.720817541915
 20
687.8309219168664
 10
8562.805367967587
 20
686.1619866164792
 10
8631.145355828918
 20
684.5324847035245
 10
8699.73930408082
 20
682.9445931341694
 10
8768.585735678214
 20
681.4004905479977
 10
8837.683173576019
 20
679.9023572680096
 10
8907.03014072915
 20
678.4523753006223
 10
8976.625160092526
 20
677.0527283356693
 10
9046.466754621066
 20
675.7056017464009
 10
9116.553447269682
 20
674.4131825894842
 10
9186.883760993294
 20
673.177659605003
 10
9257.456218746825
 20
672.0012232164574
 10
9328.269343485183
 20
670.8860655307647
 10
9399.321658163295
 20
669.834380338258
 10
9470.611685736072
 20
668.8483631126882
 10
9542.137949158432
 20
667.9302110112219
 10
9613.898971385297
 20
667.0821228744428
 10
9685.893275371582
 20
666.3062992263514
 10
9758.1193840722
 20
665.6049422743641
 10
9830.575820442076
 20
664.9802559093152
 10
9903.261107436123
 20
664.4344457054547
 10
9976.17376800926
 20
663.9697189204493
 10
10049.312325116403
 20
663.5882844953829
 10
10122.675301712472
 20
663.2923530547556
 10
10196.261220752383
 20
663.0841369064846
 10
10270.068605191052
 20
662.9658500419031
 10
10344.0959779834
 20
662.9397081357616
 10
10418.341862084342
 20
663.0079285462269
 10
10492.804780448798
 20
663.1727303148826
 10
10567.48325603168
 20
663.436334166729
 10
10642.375811787912
 20
663.8009625101828
 10
10717.480970672406
 20
664.2688394370778
 10
10792.797255640085
 20
664.8421907226639
 10
10868.323189645864
 20
665.5232438256082
 10
10944.05729564466
 20
666.3142278879942
 10
11019.998096591387
 20
667.2173737353221
 10
11096.14411544097
 20
668.2349138765088
 10
11172.493875148322
 20
669.3690825038877
 10
11249.045898668362
 20
670.6221154932091
 10
11325.798708956008
 20
671.9962504036398
 10
11402.750828966173
 20
673.4937264777632
 10
11479.90078165378
 20
675.1167846415797
 10
11557.247089973744
 20
676.8676675045059
 10
11634.788276880983
 20
678.7486193593753
 10
11712.522865330415
 20
680.7618861824384
 10
11790.449378276955
 20
682.9097156333613
 10
11868.566338675524
 20
685.1943570552284
 10
11946.872269481039
 20
687.6180614745391
 10
12025.365693648413
 20
690.1830816012103
 10
12104.045134132572
 20
692.8916718285758
 10
12182.909113888423
 20
695.7460882333854
 10
12261.956155870892
 20
698.7485885758061
 10
12341.184783034894
 20
701.9014322994212
 10
12420.593518335345
 20
705.2068805312309
 10
12500.180884727164
 20
708.6671960816519
 10
12579.945405165268
 20
712.2846434445174
 10
12659.885602604572
 20
716.0614887970779
 10
12740.0
 20
720.0
  0
LINE
  5
3E
330
17
100
AcDbEntity
  8
DWL
  6
DASHED
 62
5
100
AcDbLine
 10
3240.0
 20
0.0
 30
0.0
 11
12740.0
 21
0.0
 31
0.0
  0
LINE
  5
3F
330
17
100
AcDbEntity
  8
GRID
 62
8
100
AcDbLine
 10
3287.5
 20
-163.1898304772483
 30
0.0
 11
3287.5
 21
695.7478657980968
 31
0.0
  0
LINE
  5
40
330
17
100
AcDbEntity
  8
GRID
 62
8
100
AcDbLine
 10
3472.481547598021
 20
-189.77099210070224
 30
0.0
 11
3472.481547598021
 21
718.4325452038058
 31
0.0
  0
LINE
  5
41
330
17
100
AcDbEntity
  8
GRID
 62
8
100
AcDbLine
 10
4147.169276719
 20
-270.2008084478489
 30
0.0
 11
4147.169276719
 21
765.6962502679585
 31
0.0
  0
LINE
  5
42
330
17
100
AcDbEntity
  8
GRID
 62
8
100
AcDbLine
 10
5198.020051610753
 20
-357.69782267002813
 30
0.0
 11
5198.020051610753
 21
777.2489807636375
 31
0.0
  0
LINE
  5
43
330
17
100
AcDbEntity
  8
GRID
 62
8
100
AcDbLine
 10
6522.169276719
 20
-424.7363463418439
 30
0.0
 11
6522.169276719
 21
747.2259531140354
 31
0.0
  0
LINE
  5
44
330
17
100
AcDbEntity
  8
GRID
 62
8
100
AcDbLine
 10
7989.999999999999
 20
-462.3839464821545
 30
0.0
 11
7989.999999999999
 21
701.4578681509623
 31
0.0
  0
LINE
  5
45
330
17
100
AcDbEntity
  8
GRID
 62
8
100
AcDbLine
 10
9457.830723281
 20
-474.50827711497004
 30
0.0
 11
9457.830723281
 21
669.0251374746731
 31
0.0
  0
LINE
  5
46
330
17
100
AcDbEntity
  8
GRID
 62
8
100
AcDbLine
 10
10781.979948389246
 20
-470.74436183617183
 30
0.0
 11
10781.979948389246
 21
664.7598430999484
 31
0.0
  0
LINE
  5
47
330
17
100
AcDbEntity
  8
GRID
 62
8
100
AcDbLine
 10
11832.830723281
 20
-461.16281936518493
 30
0.0
 11
11832.830723281
 21
684.1492182435071
 31
0.0
  0
LINE
  5
48
330
17
100
AcDbEntity
  8
GRID
 62
8
100
AcDbLine
 10
12507.51845240198
 20
-453.0322066643381
 30
0.0
 11
12507.51845240198
 21
708.9999663996996
 31
0.0
  0
LINE
  5
49
330
17
100
AcDbEntity
  8
GRID
 62
8
100
AcDbLine
 10
12692.5
 20
-450.62678758107893
 30
0.0
 11
12692.5
 21
717.664848164364
 31
0.0
  0
LWPOLYLINE
  5
4A
330
17
100
AcDbEntity
  8
WATERLINE
 62
1
100
AcDbPolyline
 90
88
 70
0
 10
16456.5756302521
 20
79.57284642367036
 10
16535.60924369748
 20
117.38504687295325
 10
16614.64285714286
 20
147.9274464850374
 10
16693.676470588234
 20
174.49233241906538
 10
16772.710084033613
 20
198.87348444640716
 10
16851.743697478993
 20
221.75509024755468
 10
16930.77731092437
 20
243.5337035708914
 10
17009.810924369747
 20
264.3582804170462
 10
17088.844537815126
 20
284.246232317075
 10
17167.878151260506
 20
303.6373023161476
 10
17246.91176470588
 20
322.3835609543013
 10
17325.94537815126
 20
340.52473843513906
 10
17404.97899159664
 20
358.25117713315024
 10
17484.01260504202
 20
375.3561210026908
 10
17563.046218487398
 20
392.0269965780777
 10
17642.079831932773
 20
408.28920109598386
 10
17721.113445378152
 20
423.8569987763722
 10
17800.14705882353
 20
439.1155590608534
 10
17879.180672268907
 20
453.8420872842975
 10
17958.214285714286
 20
467.9158377104273
 10
18037.247899159665
 20
481.5607312216208
 10
18116.28151260504
 20
494.7583364164257
 10
18195.315126050424
 20
507.2332473557357
 10
18274.3487394958
 20
519.0943175610972
 10
18353.38235294118
 20
530.4255029724759
 10
18432.415966386558
 20
541.1701090800278
 10
18511.449579831933
 20
551.2970909800488
 10
18590.483193277312
 20
560.5600216903088
 10
18669.51680672269
 20
566.560595175277
 10
18748.550420168067
 20
569.3528787300745
 10
18827.584033613446
 20
571.3971774990321
 10
18906.617647058825
 20
572.8091630066843
 10
18985.6512605042
 20
573.5137340385486
 10
19064.68487394958
 20
573.5100101394887
 10
19143.71848739496
 20
572.7905568689722
 10
19222.75210084034
 20
571.4010245669213
 10
19301.785714285717
 20
569.4293746561322
 10
19380.819327731093
 20
566.8440567460505
 10
19459.852941176472
 20
563.6730098314383
 10
19538.88655462185
 20
559.9438503065426
 10
19617.920168067227
 20
555.6328113542218
 10
19696.953781512606
 20
550.8038751762141
 10
19775.987394957985
 20
545.4269774924834
 10
19855.021008403364
 20
539.550615699877
 10
19934.054621848743
 20
533.1806655144462
 10
20013.08823529412
 20
526.3285586299686
 10
20092.121848739498
 20
519.0291888483314
 10
20171.155462184877
 20
511.27618036889766
 10
20250.189075630253
 20
503.11706127808344
 10
20329.222689075632
 20
494.5398105407407
 10
20408.25630252101
 20
485.5949073378135
 10
20487.289915966387
 20
476.27352534237104
 10
20566.323529411766
 20
466.6211378633812
 10
20645.357142857145
 20
456.63909820221824
 10
20724.39075630252
 20
446.3619302925456
 10
20803.4243697479
 20
435.80600240568833
 10
20882.45798319328
 20
424.99126027469146
 10
20961.491596638658
 20
413.9514630098972
 10
21040.525210084037
 20
402.6909833677714
 10
21119.558823529413
 20
391.25829646690516
 10
21198.59243697479
 20
379.6509683795199
 10
21277.62605042017
 20
367.9176177187452
 10
21356.659663865546
 20
356.06928688133564
 10
21435.693277310926
 20
344.1398226279499
 10
21514.726890756305
 20
332.15086906888615
 10
21593.760504201684
 20
320.13617587078966
 10
21672.79411764706
 20
308.11754913508753
 10
21751.82773109244
 20
296.1305710203035
 10
21830.861344537818
 20
284.1998864686481
 10
21909.894957983197
 20
272.36408377353024
 10
21988.928571428572
 20
260.64773261720376
 10
22067.96218487395
 20
249.08520505617238
 10
22146.99579831933
 20
237.6769782814401
 10
22226.029411764706
 20
226.49043592083976
 10
22305.063025210082
 20
215.5695488472121
 10
22384.096638655465
 20
204.95230888569938
 10
22463.13025210084
 20
194.68225704910407
 10
22542.16386554622
 20
184.80078631908356
 10
22621.1974789916
 20
175.36114607668242
 10
22700.231092436978
 20
166.4106412465416
 10
22779.264705882353
 20
157.99795255219902
 10
22858.298319327732
 20
150.14970508537797
 10
22937.331932773108
 20
142.93355944838103
 10
23016.36554621849
 20
136.4333739744505
 10
23095.399159663866
 20
130.72961749722268
 10
23174.432773109245
 20
125.89666770090305
 10
23253.466386554624
 20
122.0081759938641
 10
23332.5
 20
119.15154204236234
  0
LWPOLYLINE
  5
4B
330
17
100
AcDbEntity
  8
WATERLINE
 62
1
100
AcDbPolyline
 90
88
 70
0
 10
23332.5
 20
-119.15154204236234
 10
23253.466386554624
 20
-122.0081759938641
 10
23174.432773109245
 20
-125.89666770090305
 10
23095.399159663866
 20
-130.72961749722268
 10
23016.36554621849
 20
-136.4333739744505
 10
22937.331932773108
 20
-142.93355944838103
 10
22858.298319327732
 20
-150.14970508537797
 10
22779.264705882353
 20
-157.99795255219902
 10
22700.231092436978
 20
-166.4106412465416
 10
22621.1974789916
 20
-175.36114607668242
 10
22542.16386554622
 20
-184.80078631908356
 10
22463.13025210084
 20
-194.68225704910407
 10
22384.096638655465
 20
-204.95230888569938
 10
22305.063025210082
 20
-215.5695488472121
 10
22226.029411764706
 20
-226.49043592083976
 10
22146.99579831933
 20
-237.6769782814401
 10
22067.96218487395
 20
-249.08520505617238
 10
21988.928571428572
 20
-260.64773261720376
 10
21909.894957983197
 20
-272.36408377353024
 10
21830.861344537818
 20
-284.1998864686481
 10
21751.82773109244
 20
-296.1305710203035
 10
21672.79411764706
 20
-308.11754913508753
 10
21593.760504201684
 20
-320.13617587078966
 10
21514.726890756305
 20
-332.15086906888615
 10
21435.693277310926
 20
-344.1398226279499
 10
21356.659663865546
 20
-356.06928688133564
 10
21277.62605042017
 20
-367.9176177187452
 10
21198.59243697479
 20
-379.6509683795199
 10
21119.558823529413
 20
-391.25829646690516
 10
21040.525210084037
 20
-402.6909833677714
 10
20961.491596638658
 20
-413.9514630098972
 10
20882.45798319328
 20
-424.99126027469146
 10
20803.4243697479
 20
-435.80600240568833
 10
20724.39075630252
 20
-446.3619302925456
 10
20645.357142857145
 20
-456.63909820221824
 10
20566.323529411766
 20
-466.6211378633812
 10
20487.289915966387
 20
-476.27352534237104
 10
20408.25630252101
 20
-485.5949073378135
 10
20329.222689075632
 20
-494.5398105407407
 10
20250.189075630253
 20
-503.11706127808344
 10
20171.155462184877
 20
-511.27618036889766
 10
20092.121848739498
 20
-519.0291888483314
 10
20013.08823529412
 20
-526.3285586299686
 10
19934.054621848743
 20
-533.1806655144462
 10
19855.021008403364
 20
-539.550615699877
 10
19775.987394957985
 20
-545.4269774924834
 10
19696.953781512606
 20
-550.8038751762141
 10
19617.920168067227
 20
-555.6328113542218
 10
19538.88655462185
 20
-559.9438503065426
 10
19459.852941176472
 20
-563.6730098314383
 10
19380.819327731093
 20
-566.8440567460505
 10
19301.785714285717
 20
-569.4293746561322
 10
19222.75210084034
 20
-571.4010245669213
 10
19143.71848739496
 20
-572.7905568689722
 10
19064.68487394958
 20
-573.5100101394887
 10
18985.6512605042
 20
-573.5137340385486
 10
18906.617647058825
 20
-572.8091630066843
 10
18827.584033613446
 20
-571.3971774990321
 10
18748.550420168067
 20
-569.3528787300745
 10
18669.51680672269
 20
-566.560595175277
 10
18590.483193277312
 20
-560.5600216903088
 10
18511.449579831933
 20
-551.2970909800488
 10
18432.415966386558
 20
-541.1701090800278
 10
18353.38235294118
 20
-530.4255029724759
 10
18274.3487394958
 20
-519.0943175610972
 10
18195.315126050424
 20
-507.2332473557357
 10
18116.28151260504
 20
-494.7583364164257
 10
18037.247899159665
 20
-481.5607312216208
 10
17958.214285714286
 20
-467.9158377104273
 10
17879.180672268907
 20
-453.8420872842975
 10
17800.14705882353
 20
-439.1155590608534
 10
17721.113445378152
 20
-423.8569987763722
 10
17642.079831932773
 20
-408.28920109598386
 10
17563.046218487398
 20
-392.0269965780777
 10
17484.01260504202
 20
-375.3561210026908
 10
17404.97899159664
 20
-358.25117713315024
 10
17325.94537815126
 20
-340.52473843513906
 10
17246.91176470588
 20
-322.3835609543013
 10
17167.878151260506
 20
-303.6373023161476
 10
17088.844537815126
 20
-284.246232317075
 10
17009.810924369747
 20
-264.3582804170462
 10
16930.77731092437
 20
-243.5337035708914
 10
16851.743697478993
 20
-221.75509024755468
 10
16772.710084033613
 20
-198.87348444640716
 10
16693.676470588234
 20
-174.49233241906538
 10
16614.64285714286
 20
-147.9274464850374
 10
16535.60924369748
 20
-117.38504687295325
 10
16456.5756302521
 20
-79.57284642367036
  0
LWPOLYLINE
  5
4C
330
17
100
AcDbEntity
  8
WATERLINE
 62
1
100
AcDbPolyline
 90
107
 70
0
 10
14954.936974789916
 20
15.248844689279617
 10
15033.970588235294
 20
51.66295440099284
 10
15113.004201680673
 20
75.27805719217945
 10
15192.03781512605
 20
96.14432223858053
 10
15271.07142857143
 20
115.95929710973941
 10
15350.105042016807
 20
135.25627110071767
 10
15429.138655462186
 20
154.2669679493161
 10
15508.172268907563
 20
173.16219428823857
 10
15587.205882352942
 20
192.03093265457392
 10
15666.23949579832
 20
210.92713917761492
 10
15745.273109243699
 20
229.87082577070544
 10
15824.306722689076
 20
248.89206266942742
 10
15903.340336134454
 20
267.89950313440727
 10
15982.373949579833
 20
286.9619352776027
 10
16061.40756302521
 20
306.14716718001165
 10
16140.441176470587
 20
325.2578031033398
 10
16219.474789915967
 20
344.47480286504634
 10
16298.508403361346
 20
363.6193909524218
 10
16377.542016806723
 20
382.85194006502036
 10
16456.5756302521
 20
401.94616596598837
 10
16535.60924369748
 20
421.0824471839637
 10
16614.64285714286
 20
440.07017387996416
 10
16693.676470588234
 20
458.9548028012162
 10
16772.710084033613
 20
477.79692381988895
 10
16851.743697478993
 20
496.4083234157192
 10
16930.77731092437
 20
514.8491222914577
 10
17009.810924369747
 20
533.165028484685
 10
17088.844537815126
 20
551.3258572402995
 10
17167.878151260506
 20
569.1453718889992
 10
17246.91176470588
 20
586.7566353380914
 10
17325.94537815126
 20
604.1499909330313
 10
17404.97899159664
 20
621.2740628650996
 10
17484.01260504202
 20
638.0227673358436
 10
17563.046218487398
 20
654.4022621808144
 10
17642.079831932773
 20
670.4288032526639
 10
17721.113445378152
 20
686.067057813117
 10
17800.14705882353
 20
701.3119170556189
 10
17879.180672268907
 20
716.1184130263885
 10
17958.214285714286
 20
730.3885382949109
 10
18037.247899159665
 20
744.0879773143329
 10
18116.28151260504
 20
757.2592670866057
 10
18195.315126050424
 20
769.8721015264132
 10
18274.3487394958
 20
781.8568115188867
 10
18353.38235294118
 20
793.1939530470988
 10
18432.415966386558
 20
803.8499395449794
 10
18511.449579831933
 20
813.794188371322
 10
18590.483193277312
 20
822.9813695255712
 10
18669.51680672269
 20
827.5399606439108
 10
18748.550420168067
 20
827.5581977435958
 10
18827.584033613446
 20
826.7593381643451
 10
18906.617647058825
 20
825.2779357679487
 10
18985.6512605042
 20
823.0427747574196
 10
19064.68487394958
 20
820.0955023745764
 10
19143.71848739496
 20
816.4943844991318
 10
19222.75210084034
 20
812.1425274441287
 10
19301.785714285717
 20
807.1720642729503
 10
19380.819327731093
 20
801.5314456343071
 10
19459.852941176472
 20
795.2532021340979
 10
19538.88655462185
 20
788.3804566199957
 10
19617.920168067227
 20
780.8614904059658
 10
19696.953781512606
 20
772.7989134772997
 10
19775.987394957985
 20
764.1236628968518
 10
19855.021008403364
 20
754.922536356784
 10
19934.054621848743
 20
745.1721086696379
 10
20013.08823529412
 20
734.9068355098364
 10
20092.121848739498
 20
724.1464872031664
 10
20171.155462184877
 20
712.8941620709815
 10
20250.189075630253
 20
701.1938773929369
 10
20329.222689075632
 20
689.0340338348241
 10
20408.25630252101
 20
676.4682241325835
 10
20487.289915966387
 20
663.483690147347
 10
20566.323529411766
 20
650.1315854894486
 10
20645.357142857145
 20
636.4087427371522
 10
20724.39075630252
 20
622.3548443788208
 10
20803.4243697479
 20
607.9839318751856
 10
20882.45798319328
 20
593.3185331553884
 10
20961.491596638658
 20
578.3940001328875
 10
21040.525210084037
 20
563.2137853095726
 10
21119.558823529413
 20
547.8315245371747
 10
21198.59243697479
 20
532.2434320906528
 10
21277.62605042017
 20
516.5016316089467
 10
21356.659663865546
 20
500.6232661625719
 10
21435.693277310926
 20
484.6385231497271
 10
21514.726890756305
 20
468.58124112027616
 10
21593.760504201684
 20
452.48156718926646
 10
21672.79411764706
 20
436.37290101918006
 10
21751.82773109244
 20
420.2910328240742
 10
21830.861344537818
 20
404.27131310748666
 10
21909.894957983197
 20
388.3577271328968
 10
21988.928571428572
 20
372.58373742501374
 10
22067.96218487395
 20
356.9910001125199
 10
22146.99579831933
 20
341.63466613416097
 10
22226.029411764706
 20
326.5615032037998
 10
22305.063025210082
 20
311.8159517510853
 10
22384.096638655465
 20
297.4519178632565
 10
22463.13025210084
 20
283.5287756214991
 10
22542.16386554622
 20
270.10918079532524
 10
22621.1974789916
 20
257.26806499744646
 10
22700.231092436978
 20
245.0806090550922
 10
22779.264705882353
 20
233.61820041197157
 10
22858.298319327732
 20
222.96005301035012
 10
22937.331932773108
 20
213.20013695131345
 10
23016.36554621849
 20
204.4479978964985
 10
23095.399159663866
 20
196.83537225762274
 10
23174.432773109245
 20
190.48756561262363
 10
23253.466386554624
 20
185.5338542357791
 10
23332.5
 20
182.1254673974596
  0
LWPOLYLINE
  5
4D
330
17
100
AcDbEntity
  8
WATERLINE
 62
1
100
AcDbPolyline
 90
107
 70
0
 10
23332.5
 20
-182.1254673974596
 10
23253.466386554624
 20
-185.5338542357791
 10
23174.432773109245
 20
-190.48756561262363
 10
23095.399159663866
 20
-196.83537225762274
 10
23016.36554621849
 20
-204.4479978964985
 10
22937.331932773108
 20
-213.20013695131345
 10
22858.298319327732
 20
-222.96005301035012
 10
22779.264705882353
 20
-233.61820041197157
 10
22700.231092436978
 20
-245.0806090550922
 10
22621.1974789916
 20
-257.26806499744646
 10
22542.16386554622
 20
-270.10918079532524
 10
22463.13025210084
 20
-283.5287756214991
 10
22384.096638655465
 20
-297.4519178632565
 10
22305.063025210082
 20
-311.8159517510853
 10
22226.029411764706
 20
-326.5615032037998
 10
22146.99579831933
 20
-341.63466613416097
 10
22067.96218487395
 20
-356.9910001125199
 10
21988.928571428572
 20
-372.58373742501374
 10
21909.894957983197
 20
-388.3577271328968
 10
21830.861344537818
 20
-404.27131310748666
 10
21751.82773109244
 20
-420.2910328240742
 10
21672.79411764706
 20
-436.37290101918006
 10
21593.760504201684
 20
-452.48156718926646
 10
21514.726890756305
 20
-468.58124112027616
 10
21435.693277310926
 20
-484.6385231497271
 10
21356.659663865546
 20
-500.6232661625719
 10
21277.62605042017
 20
-516.5016316089467
 10
21198.59243697479
 20
-532.2434320906528
 10
21119.558823529413
 20
-547.8315245371747
 10
21040.525210084037
 20
-563.2137853095726
 10
20961.491596638658
 20
-578.3940001328875
 10
20882.45798319328
 20
-593.3185331553884
 10
20803.4243697479
 20
-607.9839318751856
 10
20724.39075630252
 20
-622.3548443788208
 10
20645.357142857145
 20
-636.4087427371522
 10
20566.323529411766
 20
-650.1315854894486
 10
20487.289915966387
 20
-663.483690147347
 10
20408.25630252101
 20
-676.4682241325835
 10
20329.222689075632
 20
-689.0340338348241
 10
20250.189075630253
 20
-701.1938773929369
 10
20171.155462184877
 20
-712.8941620709815
 10
20092.121848739498
 20
-724.1464872031664
 10
20013.08823529412
 20
-734.9068355098364
 10
19934.054621848743
 20
-745.1721086696379
 10
19855.021008403364
 20
-754.922536356784
 10
19775.987394957985
 20
-764.1236628968518
 10
19696.953781512606
 20
-772.7989134772997
 10
19617.920168067227
 20
-780.8614904059658
 10
19538.88655462185
 20
-788.3804566199957
 10
19459.852941176472
 20
-795.2532021340979
 10
19380.819327731093
 20
-801.5314456343071
 10
19301.785714285717
 20
-807.1720642729503
 10
19222.75210084034
 20
-812.1425274441287
 10
19143.71848739496
 20
-816.4943844991318
 10
19064.68487394958
 20
-820.0955023745764
 10
18985.6512605042
 20
-823.0427747574196
 10
18906.617647058825
 20
-825.2779357679487
 10
18827.584033613446
 20
-826.7593381643451
 10
18748.550420168067
 20
-827.5581977435958
 10
18669.51680672269
 20
-827.5399606439108
 10
18590.483193277312
 20
-822.9813695255712
 10
18511.449579831933
 20
-813.794188371322
 10
18432.415966386558
 20
-803.8499395449794
 10
18353.38235294118
 20
-793.1939530470988
 10
18274.3487394958
 20
-781.8568115188867
 10
18195.315126050424
 20
-769.8721015264132
 10
18116.28151260504
 20
-757.2592670866057
 10
18037.247899159665
 20
-744.0879773143329
 10
17958.214285714286
 20
-730.3885382949109
 10
17879.180672268907
 20
-716.1184130263885
 10
17800.14705882353
 20
-701.3119170556189
 10
17721.113445378152
 20
-686.067057813117
 10
17642.079831932773
 20
-670.4288032526639
 10
17563.046218487398
 20
-654.4022621808144
 10
17484.01260504202
 20
-638.0227673358436
 10
17404.97899159664
 20
-621.2740628650996
 10
17325.94537815126
 20
-604.1499909330313
 10
17246.91176470588
 20
-586.7566353380914
 10
17167.878151260506
 20
-569.1453718889992
 10
17088.844537815126
 20
-551.3258572402995
 10
17009.810924369747
 20
-533.165028484685
 10
16930.77731092437
 20
-514.8491222914577
 10
16851.743697478993
 20
-496.4083234157192
 10
16772.710084033613
 20
-477.79692381988895
 10
16693.676470588234
 20
-458.9548028012162
 10
16614.64285714286
 20
-440.07017387996416
 10
16535.60924369748
 20
-421.0824471839637
 10
16456.5756302521
 20
-401.94616596598837
 10
16377.542016806723
 20
-382.85194006502036
 10
16298.508403361346
 20
-363.6193909524218
 10
16219.474789915967
 20
-344.47480286504634
 10
16140.441176470587
 20
-325.2578031033398
 10
16061.40756302521
 20
-306.14716718001165
 10
15982.373949579833
 20
-286.9619352776027
 10
15903.340336134454
 20
-267.89950313440727
 10
15824.306722689076
 20
-248.89206266942742
 10
15745.273109243699
 20
-229.87082577070544
 10
15666.23949579832
 20
-210.92713917761492
 10
15587.205882352942
 20
-192.03093265457392
 10
15508.172268907563
 20
-173.16219428823857
 10
15429.138655462186
 20
-154.2669679493161
 10
15350.105042016807
 20
-135.25627110071767
 10
15271.07142857143
 20
-115.95929710973941
 10
15192.03781512605
 20
-96.14432223858053
 10
15113.004201680673
 20
-75.27805719217945
 10
15033.970588235294
 20
-51.66295440099284
 10
14954.936974789916
 20
-15.248844689279617
  0
LWPOLYLINE
  5
4E
330
17
100
AcDbEntity
  8
WATERLINE
 62
1
100
AcDbPolyline
 90
118
 70
0
 10
14085.567226890757
 20
6.421567285063468
 10
14164.600840336134
 20
16.77802809621143
 10
14243.634453781513
 20
27.574302569332414
 10
14322.66806722689
 20
39.218966666084825
 10
14401.70168067227
 20
51.67509791365269
 10
14480.735294117647
 20
64.843295678322
 10
14559.768907563026
 20
78.68305241514649
 10
14638.802521008403
 20
93.12440600349834
 10
14717.836134453783
 20
108.10906787909626
 10
14796.86974789916
 20
123.58913309895021
 10
14875.903361344537
 20
139.54777203034374
 10
14954.936974789916
 20
155.95800997764303
 10
15033.970588235294
 20
172.77084204744554
 10
15113.004201680673
 20
189.95607883509697
 10
15192.03781512605
 20
207.49923539599303
 10
15271.07142857143
 20
225.3967757938396
 10
15350.105042016807
 20
243.56492207498908
 10
15429.138655462186
 20
262.05064672777604
 10
15508.172268907563
 20
280.76019588912624
 10
15587.205882352942
 20
299.72424495910883
 10
15666.23949579832
 20
318.9052176470596
 10
15745.273109243699
 20
338.25492063253097
 10
15824.306722689076
 20
357.81335597194845
 10
15903.340336134454
 20
377.4854793412268
 10
15982.373949579833
 20
397.27135040066645
 10
16061.40756302521
 20
417.1961263031343
 10
16140.441176470587
 20
437.2109618924111
 10
16219.474789915967
 20
457.2234514208245
 10
16298.508403361346
 20
477.2953492934621
 10
16377.542016806723
 20
497.4027613067405
 10
16456.5756302521
 20
517.5222368102657
 10
16535.60924369748
 20
537.5563331710601
 10
16614.64285714286
 20
557.530549979469
 10
16693.676470588234
 20
577.4381084216518
 10
16772.710084033613
 20
597.2538233342087
 10
16851.743697478993
 20
616.9617117597567
 10
16930.77731092437
 20
636.5206710446823
 10
17009.810924369747
 20
655.8562303197951
 10
17088.844537815126
 20
674.9869323069488
 10
17167.878151260506
 20
693.8837151882241
 10
17246.91176470588
 20
712.53446863395
 10
17325.94537815126
 20
730.9207607660574
 10
17404.97899159664
 20
748.9882356235177
 10
17484.01260504202
 20
766.720354469251
 10
17563.046218487398
 20
784.1010096032538
 10
17642.079831932773
 20
801.0814674326191
 10
17721.113445378152
 20
817.5705548942785
 10
17800.14705882353
 20
833.6053104509273
 10
17879.180672268907
 20
849.157336495021
 10
17958.214285714286
 20
864.1645319408574
 10
18037.247899159665
 20
878.6077578285425
 10
18116.28151260504
 20
892.4636395501068
 10
18195.315126050424
 20
905.6965079286125
 10
18274.3487394958
 20
918.236096853865
 10
18353.38235294118
 20
930.0523222686481
 10
18432.415966386558
 20
941.1187876617382
 10
18511.449579831933
 20
951.395132708524
 10
18590.483193277312
 20
960.8344854684269
 10
18669.51680672269
 20
964.9320298922852
 10
18748.550420168067
 20
963.8533513227466
 10
18827.584033613446
 20
961.8931211309107
 10
18906.617647058825
 20
959.1997863816324
 10
18985.6512605042
 20
955.6998927838138
 10
19064.68487394958
 20
951.4186493179077
 10
19143.71848739496
 20
946.4331531522978
 10
19222.75210084034
 20
940.6378897676727
 10
19301.785714285717
 20
934.1880842822353
 10
19380.819327731093
 20
927.022012476707
 10
19459.852941176472
 20
919.1753097479618
 10
19538.88655462185
 20
910.6990069818265
 10
19617.920168067227
 20
901.5280355878093
 10
19696.953781512606
 20
891.7845520425703
 10
19775.987394957985
 20
881.3810478231582
 10
19855.021008403364
 20
870.4230632392978
 10
19934.054621848743
 20
858.8744724386802
 10
20013.08823529412
 20
846.7802388283774
 10
20092.121848739498
 20
834.154854751065
 10
20171.155462184877
 20
821.00525385138
 10
20250.189075630253
 20
807.3757905810564
 10
20329.222689075632
 20
793.2545138678865
 10
20408.25630252101
 20
778.6983778408494
 10
20487.289915966387
 20
763.6925124682577
 10
20566.323529411766
 20
748.2923547510323
 10
20645.357142857145
 20
732.4927967604776
 10
20724.39075630252
 20
716.3371373386598
 10
20803.4243697479
 20
699.8390561926768
 10
20882.45798319328
 20
683.0229912736304
 10
20961.491596638658
 20
665.9263531666957
 10
21040.525210084037
 20
648.5523586714057
 10
21119.558823529413
 20
630.9588571691704
 10
21198.59243697479
 20
613.1413645998992
 10
21277.62605042017
 20
595.1555238017206
 10
21356.659663865546
 20
577.0215329748455
 10
21435.693277310926
 20
558.7694272088467
 10
21514.726890756305
 20
540.4391406142338
 10
21593.760504201684
 20
522.0606974910219
 10
21672.79411764706
 20
503.6733330656074
 10
21751.82773109244
 20
485.3144172659547
 10
21830.861344537818
 20
467.02486610671144
 10
21909.894957983197
 20
448.8525679108818
 10
21988.928571428572
 20
430.83576440474286
 10
22067.96218487395
 20
413.0206227769177
 10
22146.99579831933
 20
395.47016701499376
 10
22226.029411764706
 20
378.2374187857517
 10
22305.063025210082
 20
361.36727352902454
 10
22384.096638655465
 20
344.9260910433981
 10
22463.13025210084
 20
328.98359901906787
 10
22542.16386554622
 20
313.61296752370606
 10
22621.1974789916
 20
298.90043320712846
 10
22700.231092436978
 20
284.93455192663436
 10
22779.264705882353
 20
271.79811093149186
 10
22858.298319327732
 20
259.59210887914355
 10
22937.331932773108
 20
248.4272793699338
 10
23016.36554621849
 20
238.4244398655336
 10
23095.399159663866
 20
229.73949815159148
 10
23174.432773109245
 20
222.52141459538717
 10
23253.466386554624
 20
216.9248665623649
 10
23332.5
 20
213.13037512774912
  0
LWPOLYLINE
  5
4F
330
17
100
AcDbEntity
  8
WATERLINE
 62
1
100
AcDbPolyline
 90
118
 70
0
 10
23332.5
 20
-213.13037512774912
 10
23253.466386554624
 20
-216.9248665623649
 10
23174.432773109245
 20
-222.52141459538717
 10
23095.399159663866
 20
-229.73949815159148
 10
23016.36554621849
 20
-238.4244398655336
 10
22937.331932773108
 20
-248.4272793699338
 10
22858.298319327732
 20
-259.59210887914355
 10
22779.264705882353
 20
-271.79811093149186
 10
22700.231092436978
 20
-284.93455192663436
 10
22621.1974789916
 20
-298.90043320712846
 10
22542.16386554622
 20
-313.61296752370606
 10
22463.13025210084
 20
-328.98359901906787
 10
22384.096638655465
 20
-344.9260910433981
 10
22305.063025210082
 20
-361.36727352902454
 10
22226.029411764706
 20
-378.2374187857517
 10
22146.99579831933
 20
-395.47016701499376
 10
22067.96218487395
 20
-413.0206227769177
 10
21988.928571428572
 20
-430.83576440474286
 10
21909.894957983197
 20
-448.8525679108818
 10
21830.861344537818
 20
-467.02486610671144
 10
21751.82773109244
 20
-485.3144172659547
 10
21672.79411764706
 20
-503.6733330656074
 10
21593.760504201684
 20
-522.0606974910219
 10
21514.726890756305
 20
-540.4391406142338
 10
21435.693277310926
 20
-558.7694272088467
 10
21356.659663865546
 20
-577.0215329748455
 10
21277.62605042017
 20
-595.1555238017206
 10
21198.59243697479
 20
-613.1413645998992
 10
21119.558823529413
 20
-630.9588571691704
 10
21040.525210084037
 20
-648.5523586714057
 10
20961.491596638658
 20
-665.9263531666957
 10
20882.45798319328
 20
-683.0229912736304
 10
20803.4243697479
 20
-699.8390561926768
 10
20724.39075630252
 20
-716.3371373386598
 10
20645.357142857145
 20
-732.4927967604776
 10
20566.323529411766
 20
-748.2923547510323
 10
20487.289915966387
 20
-763.6925124682577
 10
20408.25630252101
 20
-778.6983778408494
 10
20329.222689075632
 20
-793.2545138678865
 10
20250.189075630253
 20
-807.3757905810564
 10
20171.155462184877
 20
-821.00525385138
 10
20092.121848739498
 20
-834.154854751065
 10
20013.08823529412
 20
-846.7802388283774
 10
19934.054621848743
 20
-858.8744724386802
 10
19855.021008403364
 20
-870.4230632392978
 10
19775.987394957985
 20
-881.3810478231582
 10
19696.953781512606
 20
-891.7845520425703
 10
19617.920168067227
 20
-901.5280355878093
 10
19538.88655462185
 20
-910.6990069818265
 10
19459.852941176472
 20
-919.1753097479618
 10
19380.819327731093
 20
-927.022012476707
 10
19301.785714285717
 20
-934.1880842822353
 10
19222.75210084034
 20
-940.6378897676727
 10
19143.71848739496
 20
-946.4331531522978
 10
19064.68487394958
 20
-951.4186493179077
 10
18985.6512605042
 20
-955.6998927838138
 10
18906.617647058825
 20
-959.1997863816324
 10
18827.584033613446
 20
-961.8931211309107
 10
18748.550420168067
 20
-963.8533513227466
 10
18669.51680672269
 20
-964.9320298922852
 10
18590.483193277312
 20
-960.8344854684269
 10
18511.449579831933
 20
-951.395132708524
 10
18432.415966386558
 20
-941.1187876617382
 10
18353.38235294118
 20
-930.0523222686481
 10
18274.3487394958
 20
-918.236096853865
 10
18195.315126050424
 20
-905.6965079286125
 10
18116.28151260504
 20
-892.4636395501068
 10
18037.247899159665
 20
-878.6077578285425
 10
17958.214285714286
 20
-864.1645319408574
 10
17879.180672268907
 20
-849.157336495021
 10
17800.14705882353
 20
-833.6053104509273
 10
17721.113445378152
 20
-817.5705548942785
 10
17642.079831932773
 20
-801.0814674326191
 10
17563.046218487398
 20
-784.1010096032538
 10
17484.01260504202
 20
-766.720354469251
 10
17404.97899159664
 20
-748.9882356235177
 10
17325.94537815126
 20
-730.9207607660574
 10
17246.91176470588
 20
-712.53446863395
 10
17167.878151260506
 20
-693.8837151882241
 10
17088.844537815126
 20
-674.9869323069488
 10
17009.810924369747
 20
-655.8562303197951
 10
16930.77731092437
 20
-636.5206710446823
 10
16851.743697478993
 20
-616.9617117597567
 10
16772.710084033613
 20
-597.2538233342087
 10
16693.676470588234
 20
-577.4381084216518
 10
16614.64285714286
 20
-557.530549979469
 10
16535.60924369748
 20
-537.5563331710601
 10
16456.5756302521
 20
-517.5222368102657
 10
16377.542016806723
 20
-497.4027613067405
 10
16298.508403361346
 20
-477.2953492934621
 10
16219.474789915967
 20
-457.2234514208245
 10
16140.441176470587
 20
-437.2109618924111
 10
16061.40756302521
 20
-417.1961263031343
 10
15982.373949579833
 20
-397.27135040066645
 10
15903.340336134454
 20
-377.4854793412268
 10
15824.306722689076
 20
-357.81335597194845
 10
15745.273109243699
 20
-338.25492063253097
 10
15666.23949579832
 20
-318.9052176470596
 10
15587.205882352942
 20
-299.72424495910883
 10
15508.172268907563
 20
-280.76019588912624
 10
15429.138655462186
 20
-262.05064672777604
 10
15350.105042016807
 20
-243.56492207498908
 10
15271.07142857143
 20
-225.3967757938396
 10
15192.03781512605
 20
-207.49923539599303
 10
15113.004201680673
 20
-189.95607883509697
 10
15033.970588235294
 20
-172.77084204744554
 10
14954.936974789916
 20
-155.95800997764303
 10
14875.903361344537
 20
-139.54777203034374
 10
14796.86974789916
 20
-123.58913309895021
 10
14717.836134453783
 20
-108.10906787909626
 10
14638.802521008403
 20
-93.12440600349834
 10
14559.768907563026
 20
-78.68305241514649
 10
14480.735294117647
 20
-64.843295678322
 10
14401.70168067227
 20
-51.67509791365269
 10
14322.66806722689
 20
-39.218966666084825
 10
14243.634453781513
 20
-27.574302569332414
 10
14164.600840336134
 20
-16.77802809621143
 10
14085.567226890757
 20
-6.421567285063468
  0
LWPOLYLINE
  5
50
330
17
100
AcDbEntity
  8
WATERLINE
 62
1
100
AcDbPolyline
 90
120
 70
0
 10
13927.5
 20
5.970379934047451
 10
14006.533613445377
 20
16.66338793773625
 10
14085.567226890757
 20
28.146871435781193
 10
14164.600840336134
 20
40.40969574118797
 10
14243.634453781513
 20
53.32983590766327
 10
14322.66806722689
 20
66.88878302544518
 10
14401.70168067227
 20
81.0429145195145
 10
14480.735294117647
 20
95.72436082734765
 10
14559.768907563026
 20
110.96962286481983
 10
14638.802521008403
 20
126.66746358304695
 10
14717.836134453783
 20
142.8655890500476
 10
14796.86974789916
 20
159.49981985739387
 10
14875.903361344537
 20
176.5336434966564
 10
14954.936974789916
 20
193.9822092865818
 10
15033.970588235294
 20
211.79715807978266
 10
15113.004201680673
 20
229.97264702117909
 10
15192.03781512605
 20
248.45253431336673
 10
15271.07142857143
 20
267.26246663669764
 10
15350.105042016807
 20
286.3623938376681
 10
15429.138655462186
 20
305.7305423773225
 10
15508.172268907563
 20
325.3260064260014
 10
15587.205882352942
 20
345.13247373516646
 10
15666.23949579832
 20
365.1588633142001
 10
15745.273109243699
 20
385.3649656258782
 10
15824.306722689076
 20
405.7340788905985
 10
15903.340336134454
 20
426.2512039500297
 10
15982.373949579833
 20
446.8825417360843
 10
16061.40756302521
 20
467.59842368730176
 10
16140.441176470587
 20
488.3717555764825
 10
16219.474789915967
 20
509.19741700275233
 10
16298.508403361346
 20
530.0550486014873
 10
16377.542016806723
 20
550.9200108635222
 10
16456.5756302521
 20
571.7701176374626
 10
16535.60924369748
 20
592.5792099573225
 10
16614.64285714286
 20
613.3293337139924
 10
16693.676470588234
 20
633.9885899388657
 10
16772.710084033613
 20
654.5360895890249
 10
16851.743697478993
 20
674.9539047909465
 10
16930.77731092437
 20
695.1987338342434
 10
17009.810924369747
 20
715.2587747272001
 10
17088.844537815126
 20
735.1091132167294
 10
17167.878151260506
 20
754.6784057199608
 10
17246.91176470588
 20
773.9830460408921
 10
17325.94537815126
 20
793.0006509490445
 10
17404.97899159664
 20
811.6749974309674
 10
17484.01260504202
 20
829.9930215728795
 10
17563.046218487398
 20
847.9351544426639
 10
17642.079831932773
 20
865.4534710460066
 10
17721.113445378152
 20
882.505542048005
 10
17800.14705882353
 20
899.0842227893658
 10
17879.180672268907
 20
915.1556845788654
 10
17958.214285714286
 20
930.6498473331658
 10
18037.247899159665
 20
945.5502806660102
 10
18116.28151260504
 20
959.8324574495392
 10
18195.315126050424
 20
973.4580234102835
 10
18274.3487394958
 20
986.3558639244673
 10
18353.38235294118
 20
998.4909062828532
 10
18432.415966386558
 20
1009.8397198403673
 10
18511.449579831933
 20
1020.3572528869076
 10
18590.483193277312
 20
1029.9955493217167
 10
18669.51680672269
 20
1033.9241025594456
 10
18748.550420168067
 20
1032.326149413779
 10
18827.584033613446
 20
1029.8128748163165
 10
18906.617647058825
 20
1026.5398272774733
 10
18985.6512605042
 20
1022.4322392804619
 10
19064.68487394958
 20
1017.527698174634
 10
19143.71848739496
 20
1011.9079122980872
 10
19222.75210084034
 20
1005.4444332863559
 10
19301.785714285717
 20
998.3039649949928
 10
19380.819327731093
 20
990.4197779932774
 10
19459.852941176472
 20
981.8291967516143
 10
19538.88655462185
 20
972.5871565508371
 10
19617.920168067227
 20
962.622189569423
 10
19696.953781512606
 20
952.0660800096302
 10
19775.987394957985
 20
940.822505022352
 10
19855.021008403364
 20
929.0061177306749
 10
19934.054621848743
 20
916.5749729632813
 10
20013.08823529412
 20
903.5789916552008
 10
20092.121848739498
 20
890.0305528679186
 10
20171.155462184877
 20
875.938295512133
 10
20250.189075630253
 20
861.3471773478723
 10
20329.222689075632
 20
846.2449632793356
 10
20408.25630252101
 20
830.6906385023649
 10
20487.289915966387
 20
814.6682653565381
 10
20566.323529411766
 20
798.2356919415357
 10
20645.357142857145
 20
781.3869192663938
 10
20724.39075630252
 20
764.1672451815191
 10
20803.4243697479
 20
746.5903329785094
 10
20882.45798319328
 20
728.6816912539259
 10
20961.491596638658
 20
710.4800021734184
 10
21040.525210084037
 20
691.9884111545769
 10
21119.558823529413
 20
673.267179422077
 10
21198.59243697479
 20
654.3114731192734
 10
21277.62605042017
 20
635.1790274156729
 10
21356.659663865546
 20
615.8915620040859
 10
21435.693277310926
 20
596.4793610765348
 10
21514.726890756305
 20
576.9853945254622
 10
21593.760504201684
 20
557.4399497335846
 10
21672.79411764706
 20
537.8851811075671
 10
21751.82773109244
 20
518.3595316403982
 10
21830.861344537818
 20
498.90674081135995
 10
21909.894957983197
 20
479.5768809623503
 10
21988.928571428572
 20
460.4106541663812
 10
22067.96218487395
 20
441.4566574218206
 10
22146.99579831933
 20
422.78196872426236
 10
22226.029411764706
 20
404.4428645411737
 10
22305.063025210082
 20
386.49299373087365
 10
22384.096638655465
 20
368.9987408507723
 10
22463.13025210084
 20
352.03235648823704
 10
22542.16386554622
 20
335.6723507572459
 10
22621.1974789916
 20
320.0107271475581
 10
22700.231092436978
 20
305.14282392521267
 10
22779.264705882353
 20
291.1572388438919
 10
22858.298319327732
 20
278.16281478651524
 10
22937.331932773108
 20
266.27862044653415
 10
23016.36554621849
 20
255.63495614826988
 10
23095.399159663866
 20
246.39989932717003
 10
23174.432773109245
 20
238.73429832852906
 10
23253.466386554624
 20
232.80555711524548
 10
23332.5
 20
228.80889035420407
  0
LWPOLYLINE
  5
51
330
17
100
AcDbEntity
  8
WATERLINE
 62
1
100
AcDbPolyline
 90
120
 70
0
 10
23332.5
 20
-228.80889035420407
 10
23253.466386554624
 20
-232.80555711524548
 10
23174.432773109245
 20
-238.73429832852906
 10
23095.399159663866
 20
-246.39989932717003
 10
23016.36554621849
 20
-255.63495614826988
 10
22937.331932773108
 20
-266.27862044653415
 10
22858.298319327732
 20
-278.16281478651524
 10
22779.264705882353
 20
-291.1572388438919
 10
22700.231092436978
 20
-305.14282392521267
 10
22621.1974789916
 20
-320.0107271475581
 10
22542.16386554622
 20
-335.6723507572459
 10
22463.13025210084
 20
-352.03235648823704
 10
22384.096638655465
 20
-368.9987408507723
 10
22305.063025210082
 20
-386.49299373087365
 10
22226.029411764706
 20
-404.4428645411737
 10
22146.99579831933
 20
-422.78196872426236
 10
22067.96218487395
 20
-441.4566574218206
 10
21988.928571428572
 20
-460.4106541663812
 10
21909.894957983197
 20
-479.5768809623503
 10
21830.861344537818
 20
-498.90674081135995
 10
21751.82773109244
 20
-518.3595316403982
 10
21672.79411764706
 20
-537.8851811075671
 10
21593.760504201684
 20
-557.4399497335846
 10
21514.726890756305
 20
-576.9853945254622
 10
21435.693277310926
 20
-596.4793610765348
 10
21356.659663865546
 20
-615.8915620040859
 10
21277.62605042017
 20
-635.1790274156729
 10
21198.59243697479
 20
-654.3114731192734
 10
21119.558823529413
 20
-673.267179422077
 10
21040.525210084037
 20
-691.9884111545769
 10
20961.491596638658
 20
-710.4800021734184
 10
20882.45798319328
 20
-728.6816912539259
 10
20803.4243697479
 20
-746.5903329785094
 10
20724.39075630252
 20
-764.1672451815191
 10
20645.357142857145
 20
-781.3869192663938
 10
20566.323529411766
 20
-798.2356919415357
 10
20487.289915966387
 20
-814.6682653565381
 10
20408.25630252101
 20
-830.6906385023649
 10
20329.222689075632
 20
-846.2449632793356
 10
20250.189075630253
 20
-861.3471773478723
 10
20171.155462184877
 20
-875.938295512133
 10
20092.121848739498
 20
-890.0305528679186
 10
20013.08823529412
 20
-903.5789916552008
 10
19934.054621848743
 20
-916.5749729632813
 10
19855.021008403364
 20
-929.0061177306749
 10
19775.987394957985
 20
-940.822505022352
 10
19696.953781512606
 20
-952.0660800096302
 10
19617.920168067227
 20
-962.622189569423
 10
19538.88655462185
 20
-972.5871565508371
 10
19459.852941176472
 20
-981.8291967516143
 10
19380.819327731093
 20
-990.4197779932774
 10
19301.785714285717
 20
-998.3039649949928
 10
19222.75210084034
 20
-1005.4444332863559
 10
19143.71848739496
 20
-1011.9079122980872
 10
19064.68487394958
 20
-1017.527698174634
 10
18985.6512605042
 20
-1022.4322392804619
 10
18906.617647058825
 20
-1026.5398272774733
 10
18827.584033613446
 20
-1029.8128748163165
 10
18748.550420168067
 20
-1032.326149413779
 10
18669.51680672269
 20
-1033.9241025594456
 10
18590.483193277312
 20
-1029.9955493217167
 10
18511.449579831933
 20
-1020.3572528869076
 10
18432.415966386558
 20
-1009.8397198403673
 10
18353.38235294118
 20
-998.4909062828532
 10
18274.3487394958
 20
-986.3558639244673
 10
18195.315126050424
 20
-973.4580234102835
 10
18116.28151260504
 20
-959.8324574495392
 10
18037.247899159665
 20
-945.5502806660102
 10
17958.214285714286
 20
-930.6498473331658
 10
17879.180672268907
 20
-915.1556845788654
 10
17800.14705882353
 20
-899.0842227893658
 10
17721.113445378152
 20
-882.505542048005
 10
17642.079831932773
 20
-865.4534710460066
 10
17563.046218487398
 20
-847.9351544426639
 10
17484.01260504202
 20
-829.9930215728795
 10
17404.97899159664
 20
-811.6749974309674
 10
17325.94537815126
 20
-793.0006509490445
 10
17246.91176470588
 20
-773.9830460408921
 10
17167.878151260506
 20
-754.6784057199608
 10
17088.844537815126
 20
-735.1091132167294
 10
17009.810924369747
 20
-715.2587747272001
 10
16930.77731092437
 20
-695.1987338342434
 10
16851.743697478993
 20
-674.9539047909465
 10
16772.710084033613
 20
-654.5360895890249
 10
16693.676470588234
 20
-633.9885899388657
 10
16614.64285714286
 20
-613.3293337139924
 10
16535.60924369748
 20
-592.5792099573225
 10
16456.5756302521
 20
-571.7701176374626
 10
16377.542016806723
 20
-550.9200108635222
 10
16298.508403361346
 20
-530.0550486014873
 10
16219.474789915967
 20
-509.19741700275233
 10
16140.441176470587
 20
-488.3717555764825
 10
16061.40756302521
 20
-467.59842368730176
 10
15982.373949579833
 20
-446.8825417360843
 10
15903.340336134454
 20
-426.2512039500297
 10
15824.306722689076
 20
-405.7340788905985
 10
15745.273109243699
 20
-385.3649656258782
 10
15666.23949579832
 20
-365.1588633142001
 10
15587.205882352942
 20
-345.13247373516646
 10
15508.172268907563
 20
-325.3260064260014
 10
15429.138655462186
 20
-305.7305423773225
 10
15350.105042016807
 20
-286.3623938376681
 10
15271.07142857143
 20
-267.26246663669764
 10
15192.03781512605
 20
-248.45253431336673
 10
15113.004201680673
 20
-229.97264702117909
 10
15033.970588235294
 20
-211.79715807978266
 10
14954.936974789916
 20
-193.9822092865818
 10
14875.903361344537
 20
-176.5336434966564
 10
14796.86974789916
 20
-159.49981985739387
 10
14717.836134453783
 20
-142.8655890500476
 10
14638.802521008403
 20
-126.66746358304695
 10
14559.768907563026
 20
-110.96962286481983
 10
14480.735294117647
 20
-95.72436082734765
 10
14401.70168067227
 20
-81.0429145195145
 10
14322.66806722689
 20
-66.88878302544518
 10
14243.634453781513
 20
-53.32983590766327
 10
14164.600840336134
 20
-40.40969574118797
 10
14085.567226890757
 20
-28.146871435781193
 10
14006.533613445377
 20
-16.66338793773625
 10
13927.5
 20
-5.970379934047451
  0
LWPOLYLINE
  5
52
330
17
100
AcDbEntity
  8
WATERLINE
 62
1
100
AcDbPolyline
 90
120
 70
0
 10
13927.5
 20
9.913288471035068
 10
14006.533613445377
 20
21.7469905765671
 10
14085.567226890757
 20
34.14005553170234
 10
14164.600840336134
 20
47.15623970348694
 10
14243.634453781513
 20
60.711418583624216
 10
14322.66806722689
 20
74.81546607676103
 10
14401.70168067227
 20
89.44877145786748
 10
14480.735294117647
 20
104.56124759745825
 10
14559.768907563026
 20
120.18955131414808
 10
14638.802521008403
 20
136.24553697825988
 10
14717.836134453783
 20
152.77241208057166
 10
14796.86974789916
 20
169.7024088724501
 10
14875.903361344537
 20
187.03635457502799
 10
14954.936974789916
 20
204.7582056964507
 10
15033.970588235294
 20
222.82120861352755
 10
15113.004201680673
 20
241.25283804494674
 10
15192.03781512605
 20
259.98214107993454
 10
15271.07142857143
 20
279.02538379826024
 10
15350.105042016807
 20
298.3431834850464
 10
15429.138655462186
 20
317.91473873915294
 10
15508.172268907563
 20
337.73761063400013
 10
15587.205882352942
 20
357.764764714413
 10
15666.23949579832
 20
378.0022707196116
 10
15745.273109243699
 20
398.41012762675393
 10
15824.306722689076
 20
418.9721450875213
 10
15903.340336134454
 20
439.6745027402667
 10
15982.373949579833
 20
460.4833118382731
 10
16061.40756302521
 20
481.3891016470274
 10
16140.441176470587
 20
502.3621397293646
 10
16219.474789915967
 20
523.382111412409
 10
16298.508403361346
 20
544.4285660822964
 10
16377.542016806723
 20
565.4768336819833
 10
16456.5756302521
 20
586.5048305115281
 10
16535.60924369748
 20
607.4872442334057
 10
16614.64285714286
 20
628.405587881867
 10
16693.676470588234
 20
649.2277831244323
 10
16772.710084033613
 20
669.9339246835502
 10
16851.743697478993
 20
690.5056133399486
 10
16930.77731092437
 20
710.8990346061179
 10
17009.810924369747
 20
731.1034973959279
 10
17088.844537815126
 20
751.0978518864662
 10
17167.878151260506
 20
770.8285283376124
 10
17246.91176470588
 20
790.2903414980087
 10
17325.94537815126
 20
809.4600751980698
 10
17404.97899159664
 20
828.2810123230906
 10
17484.01260504202
 20
846.74074620178
 10
17563.046218487398
 20
864.8189857038424
 10
17642.079831932773
 20
882.4678429674854
 10
17721.113445378152
 20
899.6443362613757
 10
17800.14705882353
 20
916.3411771437901
 10
17879.180672268907
 20
932.5251062187613
 10
17958.214285714286
 20
948.124289462613
 10
18037.247899159665
 20
963.1228412627422
 10
18116.28151260504
 20
977.4959658260672
 10
18195.315126050424
 20
991.2046919963803
 10
18274.3487394958
 20
1004.1776496087829
 10
18353.38235294118
 20
1016.378671426615
 10
18432.415966386558
 20
1027.7849200559676
 10
18511.449579831933
 20
1038.3503083108906
 10
18590.483193277312
 20
1048.0265735766163
 10
18669.51680672269
 20
1051.9101992785857
 10
18748.550420168067
 20
1050.1881542795893
 10
18827.584033613446
 20
1047.5424618020447
 10
18906.617647058825
 20
1044.1302974493353
 10
18985.6512605042
 20
1039.876537024128
 10
19064.68487394958
 20
1034.8185237367786
 10
19143.71848739496
 20
1029.0396390640892
 10
19222.75210084034
 20
1022.4091235887792
 10
19301.785714285717
 20
1015.0962537162571
 10
19380.819327731093
 20
1007.0331502428935
 10
19459.852941176472
 20
998.2575016122635
 10
19538.88655462185
 20
988.825134806767
 10
19617.920168067227
 20
978.6631176735395
 10
19696.953781512606
 20
967.9053605981844
 10
19775.987394957985
 20
956.4535779066422
 10
19855.021008403364
 20
944.4244814106585
 10
19934.054621848743
 20
931.7747734035165
 10
20013.08823529412
 20
918.5555066648735
 10
20092.121848739498
 20
904.7785745902834
 10
20171.155462184877
 20
890.4529794911393
 10
20250.189075630253
 20
875.6238216891013
 10
20329.222689075632
 20
860.2787886119685
 10
20408.25630252101
 20
844.4772881824493
 10
20487.289915966387
 20
828.2032002544788
 10
20566.323529411766
 20
811.514861706741
 10
20645.357142857145
 20
794.4061046567726
 10
20724.39075630252
 20
776.9226560589126
 10
20803.4243697479
 20
759.0781823623015
 10
20882.45798319328
 20
740.8984362358793
 10
20961.491596638658
 20
722.4223743728005
 10
21040.525210084037
 20
703.6531463144514
 10
21119.558823529413
 20
684.6515390171404
 10
21198.59243697479
 20
665.4126651265009
 10
21277.62605042017
 20
645.9947232748071
 10
21356.659663865546
 20
626.419778823448
 10
21435.693277310926
 20
606.7181955330169
 10
21514.726890756305
 20
586.9336034668877
 10
21593.760504201684
 20
567.0964130094924
 10
21672.79411764706
 20
547.2494153320943
 10
21751.82773109244
 20
527.4313083675561
 10
21830.861344537818
 20
507.6865113772606
 10
21909.894957983197
 20
488.065585723863
 10
21988.928571428572
 20
468.6098149894819
 10
22067.96218487395
 20
449.36837519712424
 10
22146.99579831933
 20
430.4092843258508
 10
22226.029411764706
 20
411.78957493917164
 10
22305.063025210082
 20
393.56364859786396
 10
22384.096638655465
 20
375.79887664879794
 10
22463.13025210084
 20
358.5685367654049
 10
22542.16386554622
 20
341.9523889689172
 10
22621.1974789916
 20
326.04379430029513
 10
22700.231092436978
 20
310.9396685329263
 10
22779.264705882353
 20
296.7299816049691
 10
22858.298319327732
 20
283.5254049014297
 10
22937.331932773108
 20
271.4469557989735
 10
23016.36554621849
 20
260.6271463000737
 10
23095.399159663866
 20
251.23688481859318
 10
23174.432773109245
 20
243.43979080764746
 10
23253.466386554624
 20
237.40623180955637
 10
23332.5
 20
233.33484402016967
  0
LWPOLYLINE
  5
53
330
17
100
AcDbEntity
  8
WATERLINE
 62
1
100
AcDbPolyline
 90
120
 70
0
 10
23332.5
 20
-233.33484402016967
 10
23253.466386554624
 20
-237.40623180955637
 10
23174.432773109245
 20
-243.43979080764746
 10
23095.399159663866
 20
-251.23688481859318
 10
23016.36554621849
 20
-260.6271463000737
 10
22937.331932773108
 20
-271.4469557989735
 10
22858.298319327732
 20
-283.5254049014297
 10
22779.264705882353
 20
-296.7299816049691
 10
22700.231092436978
 20
-310.9396685329263
 10
22621.1974789916
 20
-326.04379430029513
 10
22542.16386554622
 20
-341.9523889689172
 10
22463.13025210084
 20
-358.5685367654049
 10
22384.096638655465
 20
-375.79887664879794
 10
22305.063025210082
 20
-393.56364859786396
 10
22226.029411764706
 20
-411.78957493917164
 10
22146.99579831933
 20
-430.4092843258508
 10
22067.96218487395
 20
-449.36837519712424
 10
21988.928571428572
 20
-468.6098149894819
 10
21909.894957983197
 20
-488.065585723863
 10
21830.861344537818
 20
-507.6865113772606
 10
21751.82773109244
 20
-527.4313083675561
 10
21672.79411764706
 20
-547.2494153320943
 10
21593.760504201684
 20
-567.0964130094924
 10
21514.726890756305
 20
-586.9336034668877
 10
21435.693277310926
 20
-606.7181955330169
 10
21356.659663865546
 20
-626.419778823448
 10
21277.62605042017
 20
-645.9947232748071
 10
21198.59243697479
 20
-665.4126651265009
 10
21119.558823529413
 20
-684.6515390171404
 10
21040.525210084037
 20
-703.6531463144514
 10
20961.491596638658
 20
-722.4223743728005
 10
20882.45798319328
 20
-740.8984362358793
 10
20803.4243697479
 20
-759.0781823623015
 10
20724.39075630252
 20
-776.9226560589126
 10
20645.357142857145
 20
-794.4061046567726
 10
20566.323529411766
 20
-811.514861706741
 10
20487.289915966387
 20
-828.2032002544788
 10
20408.25630252101
 20
-844.4772881824493
 10
20329.222689075632
 20
-860.2787886119685
 10
20250.189075630253
 20
-875.6238216891013
 10
20171.155462184877
 20
-890.4529794911393
 10
20092.121848739498
 20
-904.7785745902834
 10
20013.08823529412
 20
-918.5555066648735
 10
19934.054621848743
 20
-931.7747734035165
 10
19855.021008403364
 20
-944.4244814106585
 10
19775.987394957985
 20
-956.4535779066422
 10
19696.953781512606
 20
-967.9053605981844
 10
19617.920168067227
 20
-978.6631176735395
 10
19538.88655462185
 20
-988.825134806767
 10
19459.852941176472
 20
-998.2575016122635
 10
19380.819327731093
 20
-1007.0331502428935
 10
19301.785714285717
 20
-1015.0962537162571
 10
19222.75210084034
 20
-1022.4091235887792
 10
19143.71848739496
 20
-1029.0396390640892
 10
19064.68487394958
 20
-1034.8185237367786
 10
18985.6512605042
 20
-1039.876537024128
 10
18906.617647058825
 20
-1044.1302974493353
 10
18827.584033613446
 20
-1047.5424618020447
 10
18748.550420168067
 20
-1050.1881542795893
 10
18669.51680672269
 20
-1051.9101992785857
 10
18590.483193277312
 20
-1048.0265735766163
 10
18511.449579831933
 20
-1038.3503083108906
 10
18432.415966386558
 20
-1027.7849200559676
 10
18353.38235294118
 20
-1016.378671426615
 10
18274.3487394958
 20
-1004.1776496087829
 10
18195.315126050424
 20
-991.2046919963803
 10
18116.28151260504
 20
-977.4959658260672
 10
18037.247899159665
 20
-963.1228412627422
 10
17958.214285714286
 20
-948.124289462613
 10
17879.180672268907
 20
-932.5251062187613
 10
17800.14705882353
 20
-916.3411771437901
 10
17721.113445378152
 20
-899.6443362613757
 10
17642.079831932773
 20
-882.4678429674854
 10
17563.046218487398
 20
-864.8189857038424
 10
17484.01260504202
 20
-846.74074620178
 10
17404.97899159664
 20
-828.2810123230906
 10
17325.94537815126
 20
-809.4600751980698
 10
17246.91176470588
 20
-790.2903414980087
 10
17167.878151260506
 20
-770.8285283376124
 10
17088.844537815126
 20
-751.0978518864662
 10
17009.810924369747
 20
-731.1034973959279
 10
16930.77731092437
 20
-710.8990346061179
 10
16851.743697478993
 20
-690.5056133399486
 10
16772.710084033613
 20
-669.9339246835502
 10
16693.676470588234
 20
-649.2277831244323
 10
16614.64285714286
 20
-628.405587881867
 10
16535.60924369748
 20
-607.4872442334057
 10
16456.5756302521
 20
-586.5048305115281
 10
16377.542016806723
 20
-565.4768336819833
 10
16298.508403361346
 20
-544.4285660822964
 10
16219.474789915967
 20
-523.382111412409
 10
16140.441176470587
 20
-502.3621397293646
 10
16061.40756302521
 20
-481.3891016470274
 10
15982.373949579833
 20
-460.4833118382731
 10
15903.340336134454
 20
-439.6745027402667
 10
15824.306722689076
 20
-418.9721450875213
 10
15745.273109243699
 20
-398.41012762675393
 10
15666.23949579832
 20
-378.0022707196116
 10
15587.205882352942
 20
-357.764764714413
 10
15508.172268907563
 20
-337.73761063400013
 10
15429.138655462186
 20
-317.91473873915294
 10
15350.105042016807
 20
-298.3431834850464
 10
15271.07142857143
 20
-279.02538379826024
 10
15192.03781512605
 20
-259.98214107993454
 10
15113.004201680673
 20
-241.25283804494674
 10
15033.970588235294
 20
-222.82120861352755
 10
14954.936974789916
 20
-204.7582056964507
 10
14875.903361344537
 20
-187.03635457502799
 10
14796.86974789916
 20
-169.7024088724501
 10
14717.836134453783
 20
-152.77241208057166
 10
14638.802521008403
 20
-136.24553697825988
 10
14559.768907563026
 20
-120.18955131414808
 10
14480.735294117647
 20
-104.56124759745825
 10
14401.70168067227
 20
-89.44877145786748
 10
14322.66806722689
 20
-74.81546607676103
 10
14243.634453781513
 20
-60.711418583624216
 10
14164.600840336134
 20
-47.15623970348694
 10
14085.567226890757
 20
-34.14005553170234
 10
14006.533613445377
 20
-21.7469905765671
 10
13927.5
 20
-9.913288471035068
  0
LINE
  5
54
330
17
100
AcDbEntity
  8
CL
  6
CENTER
 62
3
100
AcDbLine
 10
13880.0
 20
-1155000.0
 30
0.0
 11
13880.0
 21
1155000.0
 31
0.0
  0
ENDSEC
  0
SECTION
  2
OBJECTS
  0
DICTIONARY
  5
A
330
0
100
AcDbDictionary
281
1
  3
ACAD_COLOR
350
B
  3
ACAD_GROUP
350
C
  3
ACAD_LAYOUT
350
D
  3
ACAD_MATERIAL
350
E
  3
ACAD_MLEADERSTYLE
350
F
  3
ACAD_MLINESTYLE
350
10
  3
ACAD_PLOTSETTINGS
350
11
  3
ACAD_PLOTSTYLENAME
350
12
  3
ACAD_SCALELIST
350
14
  3
ACAD_TABLESTYLE
350
15
  3
ACAD_VISUALSTYLE
350
16
  3
EZDXF_META
350
2D
  0
DICTIONARY
  5
B
330
A
100
AcDbDictionary
281
1
  0
DICTIONARY
  5
C
330
A
100
AcDbDictionary
281
1
  0
DICTIONARY
  5
D
330
A
100
AcDbDictionary
281
1
  3
Model
350
1A
  3
Layout1
350
1E
  0
DICTIONARY
  5
E
330
A
100
AcDbDictionary
281
1
  3
ByBlock
350
1F
  3
ByLayer
350
20
  3
Global
350
21
  0
DICTIONARY
  5
F
330
A
100
AcDbDictionary
281
1
  3
Standard
350
2C
  0
DICTIONARY
  5
10
330
A
100
AcDbDictionary
281
1
  3
Standard
350
22
  0
DICTIONARY
  5
11
330
A
100
AcDbDictionary
281
1
  0
ACDBDICTIONARYWDFLT
  5
12
330
A
100
AcDbDictionary
281
1
  3
Normal
350
13
100
AcDbDictionaryWithDefault
340
13
  0
ACDBPLACEHOLDER
  5
13
330
12
  0
DICTIONARY
  5
14
330
A
100
AcDbDictionary
281
1
  0
DICTIONARY
  5
15
330
A
100
AcDbDictionary
281
1
  0
DICTIONARY
  5
16
330
A
100
AcDbDictionary
281
1
  0
LAYOUT
  5
1A
330
D
100
AcDbPlotSettings
  1

  4
A3
  6

 40
7.5
 41
20.0
 42
7.5
 43
20.0
 44
420.0
 45
297.0
 46
0.0
 47
0.0
 48
0.0
 49
0.0
140
0.0
141
0.0
142
1.0
143
1.0
 70
1024
 72
1
 73
0
 74
5
  7

 75
16
 76
0
 77
2
 78
300
147
1.0
148
0.0
149
0.0
100
AcDbLayout
  1
Model
 70
1
 71
0
 10
0.0
 20
0.0
 11
420.0
 21
297.0
 12
0.0
 22
0.0
 32
0.0
 14
1e+20
 24
1e+20
 34
1e+20
 15
-1e+20
 25
-1e+20
 35
-1e+20
146
0.0
 13
0.0
 23
0.0
 33
0.0
 16
1.0
 26
0.0
 36
0.0
 17
0.0
 27
1.0
 37
0.0
 76
1
330
17
  0
LAYOUT
  5
1E
330
D
100
AcDbPlotSettings
  1

  4
A3
  6

 40
7.5
 41
20.0
 42
7.5
 43
20.0
 44
420.0
 45
297.0
 46
0.0
 47
0.0
 48
0.0
 49
0.0
140
0.0
141
0.0
142
1.0
143
1.0
 70
0
 72
1
 73
0
 74
5
  7

 75
16
 76
0
 77
2
 78
300
147
1.0
148
0.0
149
0.0
100
AcDbLayout
  1
Layout1
 70
1
 71
1
 10
0.0
 20
0.0
 11
420.0
 21
297.0
 12
0.0
 22
0.0
 32
0.0
 14
1e+20
 24
1e+20
 34
1e+20
 15
-1e+20
 25
-1e+20
 35
-1e+20
146
0.0
 13
0.0
 23
0.0
 33
0.0
 16
1.0
 26
0.0
 36
0.0
 17
0.0
 27
1.0
 37
0.0
 76
1
330
1B
  0
MATERIAL
  5
1F
102
{ACAD_REACTORS
330
E
102
}
330
E
100
AcDbMaterial
  1
ByBlock
  2

 70
0
 40
1.0
 71
1
 41
1.0
 91
-1023410177
 42
1.0
 72
1
  3

 73
1
 74
1
 75
1
 44
0.5
 73
0
 45
1.0
 46
1.0
 77
1
  4

 78
1
 79
1
170
1
 48
1.0
171
1
  6

172
1
173
1
174
1
140
1.0
141
1.0
175
1
  7

176
1
177
1
178
1
143
1.0
179
1
  8

270
1
271
1
272
1
145
1.0
146
1.0
273
1
  9

274
1
275
1
276
1
 42
1.0
 72
1
  3

 73
1
 74
1
 75
1
 94
63
  0
MATERIAL
  5
20
102
{ACAD_REACTORS
330
E
102
}
330
E
100
AcDbMaterial
  1
ByLayer
  2

 70
0
 40
1.0
 71
1
 41
1.0
 91
-1023410177
 42
1.0
 72
1
  3

 73
1
 74
1
 75
1
 44
0.5
 73
0
 45
1.0
 46
1.0
 77
1
  4

 78
1
 79
1
170
1
 48
1.0
171
1
  6

172
1
173
1
174
1
140
1.0
141
1.0
175
1
  7

176
1
177
1
178
1
143
1.0
179
1
  8

270
1
271
1
272
1
145
1.0
146
1.0
273
1
  9

274
1
275
1
276
1
 42
1.0
 72
1
  3

 73
1
 74
1
 75
1
 94
63
  0
MATERIAL
  5
21
102
{ACAD_REACTORS
330
E
102
}
330
E
100
AcDbMaterial
  1
Global
  2

 70
0
 40
1.0
 71
1
 41
1.0
 91
-1023410177
 42
1.0
 72
1
  3

 73
1
 74
1
 75
1
 44
0.5
 73
0
 45
1.0
 46
1.0
 77
1
  4

 78
1
 79
1
170
1
 48
1.0
171
1
  6

172
1
173
1
174
1
140
1.0
141
1.0
175
1
  7

176
1
177
1
178
1
143
1.0
179
1
  8

270
1
271
1
272
1
145
1.0
146
1.0
273
1
  9

274
1
275
1
276
1
 42
1.0
 72
1
  3

 73
1
 74
1
 75
1
 94
63
  0
MLINESTYLE
  5
22
102
{ACAD_REACTORS
330
10
102
}
330
10
100
AcDbMlineStyle
  2
Standard
 70
0
  3

 62
256
 51
90.0
 52
90.0
 71
2
 49
0.5
 62
256
  6
BYLAYER
 49
-0.5
 62
256
  6
BYLAYER
  0
MLEADERSTYLE
  5
2C
102
{ACAD_REACTORS
330
F
102
}
330
F
100
AcDbMLeaderStyle
179
2
170
2
171
1
172
0
 90
2
 40
0.0
 41
0.0
173
1
 91
-1056964608
 92
-2
290
1
 42
2.0
291
1
 43
8.0
  3
Standard
 44
4.0
300

342
29
174
1
175
1
176
0
178
1
 93
-1056964608
 45
4.0
292
0
297
0
 46
4.0
 94
-1056964608
 47
1.0
 49
1.0
140
1.0
294
1
141
0.0
177
0
142
1.0
295
0
296
0
143
3.75
271
0
272
9
273
9
  0
DICTIONARY
  5
2D
330
A
100
AcDbDictionary
280
1
281
1
  3
CREATED_BY_EZDXF
350
2E
  3
WRITTEN_BY_EZDXF
350
57
  0
DICTIONARYVAR
  5
2E
330
2D
100
DictionaryVariables
280
0
  1
1.4.3 @ 2026-03-18T02:26:20.999647+00:00
  0
DICTIONARYVAR
  5
57
330
2D
100
DictionaryVariables
280
0
  1
1.4.3 @ 2026-03-18T02:26:21.841066+00:00
  0
ENDSEC
  0
EOF
